%TF.GenerationSoftware,KiCad,Pcbnew,9.0.7*%
%TF.CreationDate,2026-02-25T20:28:23+01:00*%
%TF.ProjectId,AFF314KEEB,41464633-3134-44b4-9545-422e6b696361,rev?*%
%TF.SameCoordinates,Original*%
%TF.FileFunction,Legend,Bot*%
%TF.FilePolarity,Positive*%
%FSLAX46Y46*%
G04 Gerber Fmt 4.6, Leading zero omitted, Abs format (unit mm)*
G04 Created by KiCad (PCBNEW 9.0.7) date 2026-02-25 20:28:23*
%MOMM*%
%LPD*%
G01*
G04 APERTURE LIST*
%ADD10C,1.000000*%
%ADD11C,0.200000*%
%ADD12C,0.150000*%
%ADD13C,2.500000*%
G04 APERTURE END LIST*
D10*
X172887344Y-110637523D02*
X168125439Y-110637523D01*
X173839725Y-112066095D02*
X170506391Y-107066095D01*
X170506391Y-107066095D02*
X167173058Y-112066095D01*
X160506391Y-109447047D02*
X163839724Y-109447047D01*
X163839724Y-112066095D02*
X163839724Y-107066095D01*
X163839724Y-107066095D02*
X159077819Y-107066095D01*
X151934962Y-109447047D02*
X155268295Y-109447047D01*
X155268295Y-112066095D02*
X155268295Y-107066095D01*
X155268295Y-107066095D02*
X150506390Y-107066095D01*
X147649247Y-107066095D02*
X141458771Y-107066095D01*
X141458771Y-107066095D02*
X144792104Y-108970857D01*
X144792104Y-108970857D02*
X143363533Y-108970857D01*
X143363533Y-108970857D02*
X142411152Y-109208952D01*
X142411152Y-109208952D02*
X141934961Y-109447047D01*
X141934961Y-109447047D02*
X141458771Y-109923238D01*
X141458771Y-109923238D02*
X141458771Y-111113714D01*
X141458771Y-111113714D02*
X141934961Y-111589904D01*
X141934961Y-111589904D02*
X142411152Y-111828000D01*
X142411152Y-111828000D02*
X143363533Y-112066095D01*
X143363533Y-112066095D02*
X146220676Y-112066095D01*
X146220676Y-112066095D02*
X147173057Y-111828000D01*
X147173057Y-111828000D02*
X147649247Y-111589904D01*
X131934961Y-112066095D02*
X137649247Y-112066095D01*
X134792104Y-112066095D02*
X134792104Y-107066095D01*
X134792104Y-107066095D02*
X135744485Y-107780380D01*
X135744485Y-107780380D02*
X136696866Y-108256571D01*
X136696866Y-108256571D02*
X137649247Y-108494666D01*
X123363532Y-108732761D02*
X123363532Y-112066095D01*
X125744484Y-106828000D02*
X128125437Y-110399428D01*
X128125437Y-110399428D02*
X121934960Y-110399428D01*
D11*
X144316350Y-89436682D02*
X144887778Y-89436682D01*
X144602064Y-89436682D02*
X144602064Y-88436682D01*
X144602064Y-88436682D02*
X144697302Y-88579539D01*
X144697302Y-88579539D02*
X144792540Y-88674777D01*
X144792540Y-88674777D02*
X144887778Y-88722396D01*
X139009534Y-88865253D02*
X139104772Y-88817634D01*
X139104772Y-88817634D02*
X139152391Y-88770015D01*
X139152391Y-88770015D02*
X139200010Y-88674777D01*
X139200010Y-88674777D02*
X139200010Y-88627158D01*
X139200010Y-88627158D02*
X139152391Y-88531920D01*
X139152391Y-88531920D02*
X139104772Y-88484301D01*
X139104772Y-88484301D02*
X139009534Y-88436682D01*
X139009534Y-88436682D02*
X138819058Y-88436682D01*
X138819058Y-88436682D02*
X138723820Y-88484301D01*
X138723820Y-88484301D02*
X138676201Y-88531920D01*
X138676201Y-88531920D02*
X138628582Y-88627158D01*
X138628582Y-88627158D02*
X138628582Y-88674777D01*
X138628582Y-88674777D02*
X138676201Y-88770015D01*
X138676201Y-88770015D02*
X138723820Y-88817634D01*
X138723820Y-88817634D02*
X138819058Y-88865253D01*
X138819058Y-88865253D02*
X139009534Y-88865253D01*
X139009534Y-88865253D02*
X139104772Y-88912872D01*
X139104772Y-88912872D02*
X139152391Y-88960491D01*
X139152391Y-88960491D02*
X139200010Y-89055729D01*
X139200010Y-89055729D02*
X139200010Y-89246205D01*
X139200010Y-89246205D02*
X139152391Y-89341443D01*
X139152391Y-89341443D02*
X139104772Y-89389063D01*
X139104772Y-89389063D02*
X139009534Y-89436682D01*
X139009534Y-89436682D02*
X138819058Y-89436682D01*
X138819058Y-89436682D02*
X138723820Y-89389063D01*
X138723820Y-89389063D02*
X138676201Y-89341443D01*
X138676201Y-89341443D02*
X138628582Y-89246205D01*
X138628582Y-89246205D02*
X138628582Y-89055729D01*
X138628582Y-89055729D02*
X138676201Y-88960491D01*
X138676201Y-88960491D02*
X138723820Y-88912872D01*
X138723820Y-88912872D02*
X138819058Y-88865253D01*
X138961915Y-65576682D02*
X138866677Y-65576682D01*
X138866677Y-65576682D02*
X138771439Y-65624301D01*
X138771439Y-65624301D02*
X138723820Y-65671920D01*
X138723820Y-65671920D02*
X138676201Y-65767158D01*
X138676201Y-65767158D02*
X138628582Y-65957634D01*
X138628582Y-65957634D02*
X138628582Y-66195729D01*
X138628582Y-66195729D02*
X138676201Y-66386205D01*
X138676201Y-66386205D02*
X138723820Y-66481443D01*
X138723820Y-66481443D02*
X138771439Y-66529063D01*
X138771439Y-66529063D02*
X138866677Y-66576682D01*
X138866677Y-66576682D02*
X138961915Y-66576682D01*
X138961915Y-66576682D02*
X139057153Y-66529063D01*
X139057153Y-66529063D02*
X139104772Y-66481443D01*
X139104772Y-66481443D02*
X139152391Y-66386205D01*
X139152391Y-66386205D02*
X139200010Y-66195729D01*
X139200010Y-66195729D02*
X139200010Y-65957634D01*
X139200010Y-65957634D02*
X139152391Y-65767158D01*
X139152391Y-65767158D02*
X139104772Y-65671920D01*
X139104772Y-65671920D02*
X139057153Y-65624301D01*
X139057153Y-65624301D02*
X138961915Y-65576682D01*
X138676201Y-80816682D02*
X139152391Y-80816682D01*
X139152391Y-80816682D02*
X139200010Y-81292872D01*
X139200010Y-81292872D02*
X139152391Y-81245253D01*
X139152391Y-81245253D02*
X139057153Y-81197634D01*
X139057153Y-81197634D02*
X138819058Y-81197634D01*
X138819058Y-81197634D02*
X138723820Y-81245253D01*
X138723820Y-81245253D02*
X138676201Y-81292872D01*
X138676201Y-81292872D02*
X138628582Y-81388110D01*
X138628582Y-81388110D02*
X138628582Y-81626205D01*
X138628582Y-81626205D02*
X138676201Y-81721443D01*
X138676201Y-81721443D02*
X138723820Y-81769063D01*
X138723820Y-81769063D02*
X138819058Y-81816682D01*
X138819058Y-81816682D02*
X139057153Y-81816682D01*
X139057153Y-81816682D02*
X139152391Y-81769063D01*
X139152391Y-81769063D02*
X139200010Y-81721443D01*
X162259357Y-65624301D02*
X162354595Y-65576682D01*
X162354595Y-65576682D02*
X162497452Y-65576682D01*
X162497452Y-65576682D02*
X162640309Y-65624301D01*
X162640309Y-65624301D02*
X162735547Y-65719539D01*
X162735547Y-65719539D02*
X162783166Y-65814777D01*
X162783166Y-65814777D02*
X162830785Y-66005253D01*
X162830785Y-66005253D02*
X162830785Y-66148110D01*
X162830785Y-66148110D02*
X162783166Y-66338586D01*
X162783166Y-66338586D02*
X162735547Y-66433824D01*
X162735547Y-66433824D02*
X162640309Y-66529063D01*
X162640309Y-66529063D02*
X162497452Y-66576682D01*
X162497452Y-66576682D02*
X162402214Y-66576682D01*
X162402214Y-66576682D02*
X162259357Y-66529063D01*
X162259357Y-66529063D02*
X162211738Y-66481443D01*
X162211738Y-66481443D02*
X162211738Y-66148110D01*
X162211738Y-66148110D02*
X162402214Y-66148110D01*
X161783166Y-66576682D02*
X161783166Y-65576682D01*
X161783166Y-65576682D02*
X161211738Y-66576682D01*
X161211738Y-66576682D02*
X161211738Y-65576682D01*
X160735547Y-66576682D02*
X160735547Y-65576682D01*
X160735547Y-65576682D02*
X160497452Y-65576682D01*
X160497452Y-65576682D02*
X160354595Y-65624301D01*
X160354595Y-65624301D02*
X160259357Y-65719539D01*
X160259357Y-65719539D02*
X160211738Y-65814777D01*
X160211738Y-65814777D02*
X160164119Y-66005253D01*
X160164119Y-66005253D02*
X160164119Y-66148110D01*
X160164119Y-66148110D02*
X160211738Y-66338586D01*
X160211738Y-66338586D02*
X160259357Y-66433824D01*
X160259357Y-66433824D02*
X160354595Y-66529063D01*
X160354595Y-66529063D02*
X160497452Y-66576682D01*
X160497452Y-66576682D02*
X160735547Y-66576682D01*
X161116500Y-86896682D02*
X161687928Y-86896682D01*
X161402214Y-86896682D02*
X161402214Y-85896682D01*
X161402214Y-85896682D02*
X161497452Y-86039539D01*
X161497452Y-86039539D02*
X161592690Y-86134777D01*
X161592690Y-86134777D02*
X161687928Y-86182396D01*
X160259357Y-86230015D02*
X160259357Y-86896682D01*
X160497452Y-85849063D02*
X160735547Y-86563348D01*
X160735547Y-86563348D02*
X160116500Y-86563348D01*
X150015397Y-88436680D02*
X149348731Y-88436680D01*
X149348731Y-88436680D02*
X149777302Y-89436680D01*
X138628582Y-64036682D02*
X139200010Y-64036682D01*
X138914296Y-64036682D02*
X138914296Y-63036682D01*
X138914296Y-63036682D02*
X139009534Y-63179539D01*
X139009534Y-63179539D02*
X139104772Y-63274777D01*
X139104772Y-63274777D02*
X139200010Y-63322396D01*
X139247629Y-75736682D02*
X138628582Y-75736682D01*
X138628582Y-75736682D02*
X138961915Y-76117634D01*
X138961915Y-76117634D02*
X138819058Y-76117634D01*
X138819058Y-76117634D02*
X138723820Y-76165253D01*
X138723820Y-76165253D02*
X138676201Y-76212872D01*
X138676201Y-76212872D02*
X138628582Y-76308110D01*
X138628582Y-76308110D02*
X138628582Y-76546205D01*
X138628582Y-76546205D02*
X138676201Y-76641443D01*
X138676201Y-76641443D02*
X138723820Y-76689063D01*
X138723820Y-76689063D02*
X138819058Y-76736682D01*
X138819058Y-76736682D02*
X139104772Y-76736682D01*
X139104772Y-76736682D02*
X139200010Y-76689063D01*
X139200010Y-76689063D02*
X139247629Y-76641443D01*
X139247629Y-85896682D02*
X138580963Y-85896682D01*
X138580963Y-85896682D02*
X139009534Y-86896682D01*
X138723820Y-78610015D02*
X138723820Y-79276682D01*
X138961915Y-78229063D02*
X139200010Y-78943348D01*
X139200010Y-78943348D02*
X138580963Y-78943348D01*
X139200010Y-73291920D02*
X139152391Y-73244301D01*
X139152391Y-73244301D02*
X139057153Y-73196682D01*
X139057153Y-73196682D02*
X138819058Y-73196682D01*
X138819058Y-73196682D02*
X138723820Y-73244301D01*
X138723820Y-73244301D02*
X138676201Y-73291920D01*
X138676201Y-73291920D02*
X138628582Y-73387158D01*
X138628582Y-73387158D02*
X138628582Y-73482396D01*
X138628582Y-73482396D02*
X138676201Y-73625253D01*
X138676201Y-73625253D02*
X139247629Y-74196682D01*
X139247629Y-74196682D02*
X138628582Y-74196682D01*
X147427778Y-88531920D02*
X147380159Y-88484301D01*
X147380159Y-88484301D02*
X147284921Y-88436682D01*
X147284921Y-88436682D02*
X147046826Y-88436682D01*
X147046826Y-88436682D02*
X146951588Y-88484301D01*
X146951588Y-88484301D02*
X146903969Y-88531920D01*
X146903969Y-88531920D02*
X146856350Y-88627158D01*
X146856350Y-88627158D02*
X146856350Y-88722396D01*
X146856350Y-88722396D02*
X146903969Y-88865253D01*
X146903969Y-88865253D02*
X147475397Y-89436682D01*
X147475397Y-89436682D02*
X146856350Y-89436682D01*
X161878405Y-69116682D02*
X162211738Y-68640491D01*
X162449833Y-69116682D02*
X162449833Y-68116682D01*
X162449833Y-68116682D02*
X162068881Y-68116682D01*
X162068881Y-68116682D02*
X161973643Y-68164301D01*
X161973643Y-68164301D02*
X161926024Y-68211920D01*
X161926024Y-68211920D02*
X161878405Y-68307158D01*
X161878405Y-68307158D02*
X161878405Y-68450015D01*
X161878405Y-68450015D02*
X161926024Y-68545253D01*
X161926024Y-68545253D02*
X161973643Y-68592872D01*
X161973643Y-68592872D02*
X162068881Y-68640491D01*
X162068881Y-68640491D02*
X162449833Y-68640491D01*
X161497452Y-69069063D02*
X161354595Y-69116682D01*
X161354595Y-69116682D02*
X161116500Y-69116682D01*
X161116500Y-69116682D02*
X161021262Y-69069063D01*
X161021262Y-69069063D02*
X160973643Y-69021443D01*
X160973643Y-69021443D02*
X160926024Y-68926205D01*
X160926024Y-68926205D02*
X160926024Y-68830967D01*
X160926024Y-68830967D02*
X160973643Y-68735729D01*
X160973643Y-68735729D02*
X161021262Y-68688110D01*
X161021262Y-68688110D02*
X161116500Y-68640491D01*
X161116500Y-68640491D02*
X161306976Y-68592872D01*
X161306976Y-68592872D02*
X161402214Y-68545253D01*
X161402214Y-68545253D02*
X161449833Y-68497634D01*
X161449833Y-68497634D02*
X161497452Y-68402396D01*
X161497452Y-68402396D02*
X161497452Y-68307158D01*
X161497452Y-68307158D02*
X161449833Y-68211920D01*
X161449833Y-68211920D02*
X161402214Y-68164301D01*
X161402214Y-68164301D02*
X161306976Y-68116682D01*
X161306976Y-68116682D02*
X161068881Y-68116682D01*
X161068881Y-68116682D02*
X160926024Y-68164301D01*
X160640309Y-68116682D02*
X160068881Y-68116682D01*
X160354595Y-69116682D02*
X160354595Y-68116682D01*
X138628582Y-70704301D02*
X138723820Y-70656682D01*
X138723820Y-70656682D02*
X138866677Y-70656682D01*
X138866677Y-70656682D02*
X139009534Y-70704301D01*
X139009534Y-70704301D02*
X139104772Y-70799539D01*
X139104772Y-70799539D02*
X139152391Y-70894777D01*
X139152391Y-70894777D02*
X139200010Y-71085253D01*
X139200010Y-71085253D02*
X139200010Y-71228110D01*
X139200010Y-71228110D02*
X139152391Y-71418586D01*
X139152391Y-71418586D02*
X139104772Y-71513824D01*
X139104772Y-71513824D02*
X139009534Y-71609063D01*
X139009534Y-71609063D02*
X138866677Y-71656682D01*
X138866677Y-71656682D02*
X138771439Y-71656682D01*
X138771439Y-71656682D02*
X138628582Y-71609063D01*
X138628582Y-71609063D02*
X138580963Y-71561443D01*
X138580963Y-71561443D02*
X138580963Y-71228110D01*
X138580963Y-71228110D02*
X138771439Y-71228110D01*
X138152391Y-71656682D02*
X138152391Y-70656682D01*
X138152391Y-70656682D02*
X137580963Y-71656682D01*
X137580963Y-71656682D02*
X137580963Y-70656682D01*
X137104772Y-71656682D02*
X137104772Y-70656682D01*
X137104772Y-70656682D02*
X136866677Y-70656682D01*
X136866677Y-70656682D02*
X136723820Y-70704301D01*
X136723820Y-70704301D02*
X136628582Y-70799539D01*
X136628582Y-70799539D02*
X136580963Y-70894777D01*
X136580963Y-70894777D02*
X136533344Y-71085253D01*
X136533344Y-71085253D02*
X136533344Y-71228110D01*
X136533344Y-71228110D02*
X136580963Y-71418586D01*
X136580963Y-71418586D02*
X136628582Y-71513824D01*
X136628582Y-71513824D02*
X136723820Y-71609063D01*
X136723820Y-71609063D02*
X136866677Y-71656682D01*
X136866677Y-71656682D02*
X137104772Y-71656682D01*
X161116500Y-79276682D02*
X161687928Y-79276682D01*
X161402214Y-79276682D02*
X161402214Y-78276682D01*
X161402214Y-78276682D02*
X161497452Y-78419539D01*
X161497452Y-78419539D02*
X161592690Y-78514777D01*
X161592690Y-78514777D02*
X161687928Y-78562396D01*
X160640309Y-79276682D02*
X160449833Y-79276682D01*
X160449833Y-79276682D02*
X160354595Y-79229063D01*
X160354595Y-79229063D02*
X160306976Y-79181443D01*
X160306976Y-79181443D02*
X160211738Y-79038586D01*
X160211738Y-79038586D02*
X160164119Y-78848110D01*
X160164119Y-78848110D02*
X160164119Y-78467158D01*
X160164119Y-78467158D02*
X160211738Y-78371920D01*
X160211738Y-78371920D02*
X160259357Y-78324301D01*
X160259357Y-78324301D02*
X160354595Y-78276682D01*
X160354595Y-78276682D02*
X160545071Y-78276682D01*
X160545071Y-78276682D02*
X160640309Y-78324301D01*
X160640309Y-78324301D02*
X160687928Y-78371920D01*
X160687928Y-78371920D02*
X160735547Y-78467158D01*
X160735547Y-78467158D02*
X160735547Y-78705253D01*
X160735547Y-78705253D02*
X160687928Y-78800491D01*
X160687928Y-78800491D02*
X160640309Y-78848110D01*
X160640309Y-78848110D02*
X160545071Y-78895729D01*
X160545071Y-78895729D02*
X160354595Y-78895729D01*
X160354595Y-78895729D02*
X160259357Y-78848110D01*
X160259357Y-78848110D02*
X160211738Y-78800491D01*
X160211738Y-78800491D02*
X160164119Y-78705253D01*
X161640309Y-63512872D02*
X161497452Y-63560491D01*
X161497452Y-63560491D02*
X161449833Y-63608110D01*
X161449833Y-63608110D02*
X161402214Y-63703348D01*
X161402214Y-63703348D02*
X161402214Y-63846205D01*
X161402214Y-63846205D02*
X161449833Y-63941443D01*
X161449833Y-63941443D02*
X161497452Y-63989063D01*
X161497452Y-63989063D02*
X161592690Y-64036682D01*
X161592690Y-64036682D02*
X161973642Y-64036682D01*
X161973642Y-64036682D02*
X161973642Y-63036682D01*
X161973642Y-63036682D02*
X161640309Y-63036682D01*
X161640309Y-63036682D02*
X161545071Y-63084301D01*
X161545071Y-63084301D02*
X161497452Y-63131920D01*
X161497452Y-63131920D02*
X161449833Y-63227158D01*
X161449833Y-63227158D02*
X161449833Y-63322396D01*
X161449833Y-63322396D02*
X161497452Y-63417634D01*
X161497452Y-63417634D02*
X161545071Y-63465253D01*
X161545071Y-63465253D02*
X161640309Y-63512872D01*
X161640309Y-63512872D02*
X161973642Y-63512872D01*
X160973642Y-63655729D02*
X160211738Y-63655729D01*
X160592690Y-64036682D02*
X160592690Y-63274777D01*
X161116500Y-84356682D02*
X161687928Y-84356682D01*
X161402214Y-84356682D02*
X161402214Y-83356682D01*
X161402214Y-83356682D02*
X161497452Y-83499539D01*
X161497452Y-83499539D02*
X161592690Y-83594777D01*
X161592690Y-83594777D02*
X161687928Y-83642396D01*
X160211738Y-83356682D02*
X160687928Y-83356682D01*
X160687928Y-83356682D02*
X160735547Y-83832872D01*
X160735547Y-83832872D02*
X160687928Y-83785253D01*
X160687928Y-83785253D02*
X160592690Y-83737634D01*
X160592690Y-83737634D02*
X160354595Y-83737634D01*
X160354595Y-83737634D02*
X160259357Y-83785253D01*
X160259357Y-83785253D02*
X160211738Y-83832872D01*
X160211738Y-83832872D02*
X160164119Y-83928110D01*
X160164119Y-83928110D02*
X160164119Y-84166205D01*
X160164119Y-84166205D02*
X160211738Y-84261443D01*
X160211738Y-84261443D02*
X160259357Y-84309063D01*
X160259357Y-84309063D02*
X160354595Y-84356682D01*
X160354595Y-84356682D02*
X160592690Y-84356682D01*
X160592690Y-84356682D02*
X160687928Y-84309063D01*
X160687928Y-84309063D02*
X160735547Y-84261443D01*
X138723820Y-83356682D02*
X138914296Y-83356682D01*
X138914296Y-83356682D02*
X139009534Y-83404301D01*
X139009534Y-83404301D02*
X139057153Y-83451920D01*
X139057153Y-83451920D02*
X139152391Y-83594777D01*
X139152391Y-83594777D02*
X139200010Y-83785253D01*
X139200010Y-83785253D02*
X139200010Y-84166205D01*
X139200010Y-84166205D02*
X139152391Y-84261443D01*
X139152391Y-84261443D02*
X139104772Y-84309063D01*
X139104772Y-84309063D02*
X139009534Y-84356682D01*
X139009534Y-84356682D02*
X138819058Y-84356682D01*
X138819058Y-84356682D02*
X138723820Y-84309063D01*
X138723820Y-84309063D02*
X138676201Y-84261443D01*
X138676201Y-84261443D02*
X138628582Y-84166205D01*
X138628582Y-84166205D02*
X138628582Y-83928110D01*
X138628582Y-83928110D02*
X138676201Y-83832872D01*
X138676201Y-83832872D02*
X138723820Y-83785253D01*
X138723820Y-83785253D02*
X138819058Y-83737634D01*
X138819058Y-83737634D02*
X139009534Y-83737634D01*
X139009534Y-83737634D02*
X139104772Y-83785253D01*
X139104772Y-83785253D02*
X139152391Y-83832872D01*
X139152391Y-83832872D02*
X139200010Y-83928110D01*
X161116500Y-81816682D02*
X161687928Y-81816682D01*
X161402214Y-81816682D02*
X161402214Y-80816682D01*
X161402214Y-80816682D02*
X161497452Y-80959539D01*
X161497452Y-80959539D02*
X161592690Y-81054777D01*
X161592690Y-81054777D02*
X161687928Y-81102396D01*
X160545071Y-81245253D02*
X160640309Y-81197634D01*
X160640309Y-81197634D02*
X160687928Y-81150015D01*
X160687928Y-81150015D02*
X160735547Y-81054777D01*
X160735547Y-81054777D02*
X160735547Y-81007158D01*
X160735547Y-81007158D02*
X160687928Y-80911920D01*
X160687928Y-80911920D02*
X160640309Y-80864301D01*
X160640309Y-80864301D02*
X160545071Y-80816682D01*
X160545071Y-80816682D02*
X160354595Y-80816682D01*
X160354595Y-80816682D02*
X160259357Y-80864301D01*
X160259357Y-80864301D02*
X160211738Y-80911920D01*
X160211738Y-80911920D02*
X160164119Y-81007158D01*
X160164119Y-81007158D02*
X160164119Y-81054777D01*
X160164119Y-81054777D02*
X160211738Y-81150015D01*
X160211738Y-81150015D02*
X160259357Y-81197634D01*
X160259357Y-81197634D02*
X160354595Y-81245253D01*
X160354595Y-81245253D02*
X160545071Y-81245253D01*
X160545071Y-81245253D02*
X160640309Y-81292872D01*
X160640309Y-81292872D02*
X160687928Y-81340491D01*
X160687928Y-81340491D02*
X160735547Y-81435729D01*
X160735547Y-81435729D02*
X160735547Y-81626205D01*
X160735547Y-81626205D02*
X160687928Y-81721443D01*
X160687928Y-81721443D02*
X160640309Y-81769063D01*
X160640309Y-81769063D02*
X160545071Y-81816682D01*
X160545071Y-81816682D02*
X160354595Y-81816682D01*
X160354595Y-81816682D02*
X160259357Y-81769063D01*
X160259357Y-81769063D02*
X160211738Y-81721443D01*
X160211738Y-81721443D02*
X160164119Y-81626205D01*
X160164119Y-81626205D02*
X160164119Y-81435729D01*
X160164119Y-81435729D02*
X160211738Y-81340491D01*
X160211738Y-81340491D02*
X160259357Y-81292872D01*
X160259357Y-81292872D02*
X160354595Y-81245253D01*
X161116500Y-91976682D02*
X161687928Y-91976682D01*
X161402214Y-91976682D02*
X161402214Y-90976682D01*
X161402214Y-90976682D02*
X161497452Y-91119539D01*
X161497452Y-91119539D02*
X161592690Y-91214777D01*
X161592690Y-91214777D02*
X161687928Y-91262396D01*
X160497452Y-90976682D02*
X160402214Y-90976682D01*
X160402214Y-90976682D02*
X160306976Y-91024301D01*
X160306976Y-91024301D02*
X160259357Y-91071920D01*
X160259357Y-91071920D02*
X160211738Y-91167158D01*
X160211738Y-91167158D02*
X160164119Y-91357634D01*
X160164119Y-91357634D02*
X160164119Y-91595729D01*
X160164119Y-91595729D02*
X160211738Y-91786205D01*
X160211738Y-91786205D02*
X160259357Y-91881443D01*
X160259357Y-91881443D02*
X160306976Y-91929063D01*
X160306976Y-91929063D02*
X160402214Y-91976682D01*
X160402214Y-91976682D02*
X160497452Y-91976682D01*
X160497452Y-91976682D02*
X160592690Y-91929063D01*
X160592690Y-91929063D02*
X160640309Y-91881443D01*
X160640309Y-91881443D02*
X160687928Y-91786205D01*
X160687928Y-91786205D02*
X160735547Y-91595729D01*
X160735547Y-91595729D02*
X160735547Y-91357634D01*
X160735547Y-91357634D02*
X160687928Y-91167158D01*
X160687928Y-91167158D02*
X160640309Y-91071920D01*
X160640309Y-91071920D02*
X160592690Y-91024301D01*
X160592690Y-91024301D02*
X160497452Y-90976682D01*
X161116500Y-89436682D02*
X161687928Y-89436682D01*
X161402214Y-89436682D02*
X161402214Y-88436682D01*
X161402214Y-88436682D02*
X161497452Y-88579539D01*
X161497452Y-88579539D02*
X161592690Y-88674777D01*
X161592690Y-88674777D02*
X161687928Y-88722396D01*
X160259357Y-88436682D02*
X160449833Y-88436682D01*
X160449833Y-88436682D02*
X160545071Y-88484301D01*
X160545071Y-88484301D02*
X160592690Y-88531920D01*
X160592690Y-88531920D02*
X160687928Y-88674777D01*
X160687928Y-88674777D02*
X160735547Y-88865253D01*
X160735547Y-88865253D02*
X160735547Y-89246205D01*
X160735547Y-89246205D02*
X160687928Y-89341443D01*
X160687928Y-89341443D02*
X160640309Y-89389063D01*
X160640309Y-89389063D02*
X160545071Y-89436682D01*
X160545071Y-89436682D02*
X160354595Y-89436682D01*
X160354595Y-89436682D02*
X160259357Y-89389063D01*
X160259357Y-89389063D02*
X160211738Y-89341443D01*
X160211738Y-89341443D02*
X160164119Y-89246205D01*
X160164119Y-89246205D02*
X160164119Y-89008110D01*
X160164119Y-89008110D02*
X160211738Y-88912872D01*
X160211738Y-88912872D02*
X160259357Y-88865253D01*
X160259357Y-88865253D02*
X160354595Y-88817634D01*
X160354595Y-88817634D02*
X160545071Y-88817634D01*
X160545071Y-88817634D02*
X160640309Y-88865253D01*
X160640309Y-88865253D02*
X160687928Y-88912872D01*
X160687928Y-88912872D02*
X160735547Y-89008110D01*
X138628582Y-68164301D02*
X138723820Y-68116682D01*
X138723820Y-68116682D02*
X138866677Y-68116682D01*
X138866677Y-68116682D02*
X139009534Y-68164301D01*
X139009534Y-68164301D02*
X139104772Y-68259539D01*
X139104772Y-68259539D02*
X139152391Y-68354777D01*
X139152391Y-68354777D02*
X139200010Y-68545253D01*
X139200010Y-68545253D02*
X139200010Y-68688110D01*
X139200010Y-68688110D02*
X139152391Y-68878586D01*
X139152391Y-68878586D02*
X139104772Y-68973824D01*
X139104772Y-68973824D02*
X139009534Y-69069063D01*
X139009534Y-69069063D02*
X138866677Y-69116682D01*
X138866677Y-69116682D02*
X138771439Y-69116682D01*
X138771439Y-69116682D02*
X138628582Y-69069063D01*
X138628582Y-69069063D02*
X138580963Y-69021443D01*
X138580963Y-69021443D02*
X138580963Y-68688110D01*
X138580963Y-68688110D02*
X138771439Y-68688110D01*
X138152391Y-69116682D02*
X138152391Y-68116682D01*
X138152391Y-68116682D02*
X137580963Y-69116682D01*
X137580963Y-69116682D02*
X137580963Y-68116682D01*
X137104772Y-69116682D02*
X137104772Y-68116682D01*
X137104772Y-68116682D02*
X136866677Y-68116682D01*
X136866677Y-68116682D02*
X136723820Y-68164301D01*
X136723820Y-68164301D02*
X136628582Y-68259539D01*
X136628582Y-68259539D02*
X136580963Y-68354777D01*
X136580963Y-68354777D02*
X136533344Y-68545253D01*
X136533344Y-68545253D02*
X136533344Y-68688110D01*
X136533344Y-68688110D02*
X136580963Y-68878586D01*
X136580963Y-68878586D02*
X136628582Y-68973824D01*
X136628582Y-68973824D02*
X136723820Y-69069063D01*
X136723820Y-69069063D02*
X136866677Y-69116682D01*
X136866677Y-69116682D02*
X137104772Y-69116682D01*
X139104772Y-91976682D02*
X138914296Y-91976682D01*
X138914296Y-91976682D02*
X138819058Y-91929063D01*
X138819058Y-91929063D02*
X138771439Y-91881443D01*
X138771439Y-91881443D02*
X138676201Y-91738586D01*
X138676201Y-91738586D02*
X138628582Y-91548110D01*
X138628582Y-91548110D02*
X138628582Y-91167158D01*
X138628582Y-91167158D02*
X138676201Y-91071920D01*
X138676201Y-91071920D02*
X138723820Y-91024301D01*
X138723820Y-91024301D02*
X138819058Y-90976682D01*
X138819058Y-90976682D02*
X139009534Y-90976682D01*
X139009534Y-90976682D02*
X139104772Y-91024301D01*
X139104772Y-91024301D02*
X139152391Y-91071920D01*
X139152391Y-91071920D02*
X139200010Y-91167158D01*
X139200010Y-91167158D02*
X139200010Y-91405253D01*
X139200010Y-91405253D02*
X139152391Y-91500491D01*
X139152391Y-91500491D02*
X139104772Y-91548110D01*
X139104772Y-91548110D02*
X139009534Y-91595729D01*
X139009534Y-91595729D02*
X138819058Y-91595729D01*
X138819058Y-91595729D02*
X138723820Y-91548110D01*
X138723820Y-91548110D02*
X138676201Y-91500491D01*
X138676201Y-91500491D02*
X138628582Y-91405253D01*
X161687928Y-75831920D02*
X161640309Y-75784301D01*
X161640309Y-75784301D02*
X161545071Y-75736682D01*
X161545071Y-75736682D02*
X161306976Y-75736682D01*
X161306976Y-75736682D02*
X161211738Y-75784301D01*
X161211738Y-75784301D02*
X161164119Y-75831920D01*
X161164119Y-75831920D02*
X161116500Y-75927158D01*
X161116500Y-75927158D02*
X161116500Y-76022396D01*
X161116500Y-76022396D02*
X161164119Y-76165253D01*
X161164119Y-76165253D02*
X161735547Y-76736682D01*
X161735547Y-76736682D02*
X161116500Y-76736682D01*
X160497452Y-75736682D02*
X160402214Y-75736682D01*
X160402214Y-75736682D02*
X160306976Y-75784301D01*
X160306976Y-75784301D02*
X160259357Y-75831920D01*
X160259357Y-75831920D02*
X160211738Y-75927158D01*
X160211738Y-75927158D02*
X160164119Y-76117634D01*
X160164119Y-76117634D02*
X160164119Y-76355729D01*
X160164119Y-76355729D02*
X160211738Y-76546205D01*
X160211738Y-76546205D02*
X160259357Y-76641443D01*
X160259357Y-76641443D02*
X160306976Y-76689063D01*
X160306976Y-76689063D02*
X160402214Y-76736682D01*
X160402214Y-76736682D02*
X160497452Y-76736682D01*
X160497452Y-76736682D02*
X160592690Y-76689063D01*
X160592690Y-76689063D02*
X160640309Y-76641443D01*
X160640309Y-76641443D02*
X160687928Y-76546205D01*
X160687928Y-76546205D02*
X160735547Y-76355729D01*
X160735547Y-76355729D02*
X160735547Y-76117634D01*
X160735547Y-76117634D02*
X160687928Y-75927158D01*
X160687928Y-75927158D02*
X160640309Y-75831920D01*
X160640309Y-75831920D02*
X160592690Y-75784301D01*
X160592690Y-75784301D02*
X160497452Y-75736682D01*
X161687928Y-73291920D02*
X161640309Y-73244301D01*
X161640309Y-73244301D02*
X161545071Y-73196682D01*
X161545071Y-73196682D02*
X161306976Y-73196682D01*
X161306976Y-73196682D02*
X161211738Y-73244301D01*
X161211738Y-73244301D02*
X161164119Y-73291920D01*
X161164119Y-73291920D02*
X161116500Y-73387158D01*
X161116500Y-73387158D02*
X161116500Y-73482396D01*
X161116500Y-73482396D02*
X161164119Y-73625253D01*
X161164119Y-73625253D02*
X161735547Y-74196682D01*
X161735547Y-74196682D02*
X161116500Y-74196682D01*
X160164119Y-74196682D02*
X160735547Y-74196682D01*
X160449833Y-74196682D02*
X160449833Y-73196682D01*
X160449833Y-73196682D02*
X160545071Y-73339539D01*
X160545071Y-73339539D02*
X160640309Y-73434777D01*
X160640309Y-73434777D02*
X160735547Y-73482396D01*
X162973642Y-70656682D02*
X162354595Y-70656682D01*
X162354595Y-70656682D02*
X162687928Y-71037634D01*
X162687928Y-71037634D02*
X162545071Y-71037634D01*
X162545071Y-71037634D02*
X162449833Y-71085253D01*
X162449833Y-71085253D02*
X162402214Y-71132872D01*
X162402214Y-71132872D02*
X162354595Y-71228110D01*
X162354595Y-71228110D02*
X162354595Y-71466205D01*
X162354595Y-71466205D02*
X162402214Y-71561443D01*
X162402214Y-71561443D02*
X162449833Y-71609063D01*
X162449833Y-71609063D02*
X162545071Y-71656682D01*
X162545071Y-71656682D02*
X162830785Y-71656682D01*
X162830785Y-71656682D02*
X162926023Y-71609063D01*
X162926023Y-71609063D02*
X162973642Y-71561443D01*
X161926023Y-71561443D02*
X161878404Y-71609063D01*
X161878404Y-71609063D02*
X161926023Y-71656682D01*
X161926023Y-71656682D02*
X161973642Y-71609063D01*
X161973642Y-71609063D02*
X161926023Y-71561443D01*
X161926023Y-71561443D02*
X161926023Y-71656682D01*
X161545071Y-70656682D02*
X160926024Y-70656682D01*
X160926024Y-70656682D02*
X161259357Y-71037634D01*
X161259357Y-71037634D02*
X161116500Y-71037634D01*
X161116500Y-71037634D02*
X161021262Y-71085253D01*
X161021262Y-71085253D02*
X160973643Y-71132872D01*
X160973643Y-71132872D02*
X160926024Y-71228110D01*
X160926024Y-71228110D02*
X160926024Y-71466205D01*
X160926024Y-71466205D02*
X160973643Y-71561443D01*
X160973643Y-71561443D02*
X161021262Y-71609063D01*
X161021262Y-71609063D02*
X161116500Y-71656682D01*
X161116500Y-71656682D02*
X161402214Y-71656682D01*
X161402214Y-71656682D02*
X161497452Y-71609063D01*
X161497452Y-71609063D02*
X161545071Y-71561443D01*
X160592690Y-70990015D02*
X160354595Y-71656682D01*
X160354595Y-71656682D02*
X160116500Y-70990015D01*
D12*
X135392397Y-58117331D02*
X135444733Y-57118702D01*
X135444733Y-57118702D02*
X135064302Y-57098764D01*
X135064302Y-57098764D02*
X134966703Y-57141334D01*
X134966703Y-57141334D02*
X134916657Y-57186395D01*
X134916657Y-57186395D02*
X134864118Y-57279011D01*
X134864118Y-57279011D02*
X134856642Y-57421672D01*
X134856642Y-57421672D02*
X134899211Y-57519272D01*
X134899211Y-57519272D02*
X134944273Y-57569318D01*
X134944273Y-57569318D02*
X135036888Y-57621856D01*
X135036888Y-57621856D02*
X135417318Y-57641793D01*
X134443813Y-58019934D02*
X134298660Y-58060011D01*
X134298660Y-58060011D02*
X134060891Y-58047550D01*
X134060891Y-58047550D02*
X133968275Y-57995012D01*
X133968275Y-57995012D02*
X133923214Y-57944966D01*
X133923214Y-57944966D02*
X133880644Y-57847366D01*
X133880644Y-57847366D02*
X133885629Y-57752259D01*
X133885629Y-57752259D02*
X133938167Y-57659643D01*
X133938167Y-57659643D02*
X133988213Y-57614582D01*
X133988213Y-57614582D02*
X134085812Y-57572012D01*
X134085812Y-57572012D02*
X134278520Y-57534427D01*
X134278520Y-57534427D02*
X134376120Y-57491858D01*
X134376120Y-57491858D02*
X134426166Y-57446796D01*
X134426166Y-57446796D02*
X134478704Y-57354181D01*
X134478704Y-57354181D02*
X134483688Y-57259073D01*
X134483688Y-57259073D02*
X134441119Y-57161473D01*
X134441119Y-57161473D02*
X134396057Y-57111427D01*
X134396057Y-57111427D02*
X134303442Y-57058889D01*
X134303442Y-57058889D02*
X134065673Y-57046428D01*
X134065673Y-57046428D02*
X133920519Y-57086505D01*
X133590135Y-57021506D02*
X133300030Y-58007675D01*
X133300030Y-58007675D02*
X133147198Y-57284399D01*
X133147198Y-57284399D02*
X132919600Y-57987737D01*
X132919600Y-57987737D02*
X132734167Y-56976647D01*
X131778309Y-57927925D02*
X132348954Y-57957831D01*
X132063632Y-57942878D02*
X132115968Y-56944249D01*
X132115968Y-56944249D02*
X132203599Y-57091894D01*
X132203599Y-57091894D02*
X132293722Y-57191986D01*
X132293722Y-57191986D02*
X132386337Y-57244524D01*
D11*
%TO.C,U1*%
X158832065Y-59494463D02*
X158832065Y-92794463D01*
X140532065Y-59494463D02*
X158832065Y-59494463D01*
X140532065Y-59494463D02*
X140532065Y-92794463D01*
X140532065Y-92794463D02*
X158832065Y-92794463D01*
D12*
%TO.C,SWL4*%
X100521311Y-56363205D02*
G75*
G02*
X100115731Y-55783977I86824J492404D01*
G01*
X98609979Y-58564752D02*
G75*
G02*
X99826719Y-60302436I-260472J-1477212D01*
G01*
X104952946Y-57144622D02*
X100521311Y-56363205D01*
X104848757Y-57735507D02*
X104952946Y-57144622D01*
X104136802Y-61773219D02*
X104223624Y-61280815D01*
X100115731Y-55783977D02*
X100289379Y-54799170D01*
X99883800Y-54219942D02*
X100289379Y-54799170D01*
X99826718Y-60302436D02*
X99705165Y-60991802D01*
X99705165Y-60991802D02*
X104136802Y-61773219D01*
X96929376Y-53698997D02*
X99883800Y-54219942D01*
X96350148Y-54104577D02*
X96929376Y-53698997D01*
X96147960Y-58130632D02*
X98609979Y-58564752D01*
X95742380Y-57551404D02*
X96147960Y-58130632D01*
%TO.C,SWL2*%
X62011132Y-47831121D02*
G75*
G02*
X61566135Y-47281596I52264J497261D01*
G01*
X60258028Y-50160633D02*
G75*
G02*
X61593019Y-51809209I-156792J-1491783D01*
G01*
X66486481Y-48301498D02*
X62011132Y-47831121D01*
X66423764Y-48898213D02*
X66486481Y-48301498D01*
X65995197Y-52975752D02*
X66047461Y-52478491D01*
X61593018Y-51809209D02*
X61519848Y-52505374D01*
X61566135Y-47281596D02*
X61670664Y-46287074D01*
X61519848Y-52505374D02*
X65995197Y-52975752D01*
X61225667Y-45737549D02*
X61670664Y-46287074D01*
X58242102Y-45423964D02*
X61225667Y-45737549D01*
X57771723Y-49899312D02*
X60258028Y-50160633D01*
X57692576Y-45868960D02*
X58242102Y-45423964D01*
X57326727Y-49349787D02*
X57771723Y-49899312D01*
%TO.C,SWL26*%
X219232700Y-65179676D02*
X219638279Y-64600448D01*
X219638279Y-64600448D02*
X222592703Y-64079503D01*
X219840468Y-68626503D02*
X220419696Y-69032083D01*
X220419696Y-69032083D02*
X222881715Y-68597962D01*
X222592703Y-64079503D02*
X223171931Y-64485083D01*
X223345579Y-65469891D02*
X223171931Y-64485083D01*
X224619399Y-69814701D02*
X224740953Y-70504067D01*
X224740953Y-70504067D02*
X229172588Y-69722650D01*
X228356442Y-65094054D02*
X223924807Y-65875470D01*
X228460630Y-65684938D02*
X228356442Y-65094054D01*
X229172588Y-69722650D02*
X229085764Y-69230246D01*
X222881715Y-68597962D02*
G75*
G02*
X224619400Y-69814701I260473J-1477212D01*
G01*
X223924807Y-65875470D02*
G75*
G02*
X223345580Y-65469891I-86824J492403D01*
G01*
%TO.C,SWL35*%
X188010615Y-119404959D02*
X188217353Y-118728749D01*
X188217353Y-118728749D02*
X190866196Y-117320334D01*
X189653765Y-122495275D02*
X190329975Y-122702013D01*
X190329975Y-122702013D02*
X192537344Y-121528334D01*
X190866196Y-117320334D02*
X191542405Y-117527072D01*
X192011877Y-118410020D02*
X191542405Y-117527072D01*
X194565973Y-122148548D02*
X194894603Y-122766612D01*
X194894603Y-122766612D02*
X198867867Y-120653990D01*
X196661350Y-116504136D02*
X192688086Y-118616758D01*
X196943033Y-117033905D02*
X196661350Y-116504136D01*
X198867867Y-120653990D02*
X198633131Y-120212516D01*
X192537344Y-121528334D02*
G75*
G02*
X194565973Y-122148548I704207J-1324422D01*
G01*
X192688086Y-118616758D02*
G75*
G02*
X192011877Y-118410020I-234735J441474D01*
G01*
%TO.C,SWL31*%
X222184719Y-81921408D02*
X222590298Y-81342180D01*
X222590298Y-81342180D02*
X225544722Y-80821235D01*
X222792487Y-85368235D02*
X223371715Y-85773815D01*
X223371715Y-85773815D02*
X225833734Y-85339694D01*
X225544722Y-80821235D02*
X226123950Y-81226815D01*
X226297598Y-82211623D02*
X226123950Y-81226815D01*
X227571418Y-86556433D02*
X227692972Y-87245799D01*
X227692972Y-87245799D02*
X232124607Y-86464382D01*
X231308461Y-81835786D02*
X226876826Y-82617202D01*
X231412649Y-82426670D02*
X231308461Y-81835786D01*
X232124607Y-86464382D02*
X232037783Y-85971978D01*
X225833734Y-85339694D02*
G75*
G02*
X227571419Y-86556433I260473J-1477212D01*
G01*
X226876826Y-82617202D02*
G75*
G02*
X226297599Y-82211623I-86824J492403D01*
G01*
%TO.C,SWL10*%
X110308523Y-78600572D02*
X110714103Y-79179800D01*
X110714103Y-79179800D02*
X113176122Y-79613920D01*
X110916291Y-75153745D02*
X111495519Y-74748165D01*
X111495519Y-74748165D02*
X114449943Y-75269110D01*
X114271308Y-82040970D02*
X118702945Y-82822387D01*
X114392861Y-81351604D02*
X114271308Y-82040970D01*
X114449943Y-75269110D02*
X114855522Y-75848338D01*
X114681874Y-76833145D02*
X114855522Y-75848338D01*
X118702945Y-82822387D02*
X118789767Y-82329983D01*
X119414900Y-78784675D02*
X119519089Y-78193790D01*
X119519089Y-78193790D02*
X115087454Y-77412373D01*
X113176122Y-79613920D02*
G75*
G02*
X114392862Y-81351604I-260472J-1477212D01*
G01*
X115087454Y-77412373D02*
G75*
G02*
X114681874Y-76833145I86824J492404D01*
G01*
%TO.C,SWL36*%
X207452441Y-110837754D02*
X207773461Y-110207717D01*
X207773461Y-110207717D02*
X210626630Y-109280666D01*
X208534001Y-114166452D02*
X209164037Y-114487471D01*
X209164037Y-114487471D02*
X211541679Y-113714929D01*
X210626630Y-109280666D02*
X211256667Y-109601686D01*
X211565684Y-110552742D02*
X211256667Y-109601686D01*
X213431789Y-114677988D02*
X213648101Y-115343728D01*
X213648101Y-115343728D02*
X217927855Y-113953151D01*
X216475475Y-109483186D02*
X212195721Y-110873762D01*
X216660884Y-110053820D02*
X216475475Y-109483186D01*
X217927855Y-113953151D02*
X217773347Y-113477623D01*
X211541679Y-113714929D02*
G75*
G02*
X213431789Y-114677988I463525J-1426585D01*
G01*
X212195721Y-110873762D02*
G75*
G02*
X211565684Y-110552742I-154509J475528D01*
G01*
%TO.C,SWL23*%
X259298869Y-50390938D02*
X259781115Y-49873792D01*
X259421017Y-53888806D02*
X259938163Y-54371051D01*
X259781115Y-49873792D02*
X262779287Y-49769094D01*
X259938163Y-54371051D02*
X262436640Y-54283802D01*
X262779287Y-49769094D02*
X263296433Y-50251340D01*
X263331332Y-51250730D02*
X263296433Y-50251340D01*
X263988075Y-55730539D02*
X264012505Y-56430113D01*
X264012505Y-56430113D02*
X268509764Y-56273065D01*
X268345736Y-51575928D02*
X263848477Y-51732976D01*
X268366676Y-52175563D02*
X268345736Y-51575928D01*
X268509764Y-56273065D02*
X268492314Y-55773370D01*
X262436640Y-54283802D02*
G75*
G02*
X263988076Y-55730539I52349J-1499087D01*
G01*
X263848477Y-51732976D02*
G75*
G02*
X263331332Y-51250730I-17450J499695D01*
G01*
%TO.C,SWL1*%
X35960294Y-53994648D02*
X36442540Y-54511793D01*
X36082442Y-50496780D02*
X36599588Y-50014534D01*
X36442540Y-54511793D02*
X38941017Y-54599041D01*
X36599588Y-50014534D02*
X39597760Y-50119232D01*
X39597760Y-50119232D02*
X40080006Y-50636378D01*
X40045106Y-51635768D02*
X40080006Y-50636378D01*
X40363324Y-56850053D02*
X44860583Y-57007098D01*
X40387754Y-56150477D02*
X40363324Y-56850053D01*
X44860583Y-57007098D02*
X44878033Y-56507403D01*
X45003671Y-52909596D02*
X45024611Y-52309961D01*
X45024611Y-52309961D02*
X40527352Y-52152914D01*
X38941017Y-54599041D02*
G75*
G02*
X40387755Y-56150477I-52349J-1499087D01*
G01*
X40527352Y-52152914D02*
G75*
G02*
X40045106Y-51635768I17450J499696D01*
G01*
%TO.C,SWL3*%
X78554150Y-51372832D02*
X78959730Y-51952060D01*
X78959730Y-51952060D02*
X81421749Y-52386180D01*
X79161918Y-47926005D02*
X79741146Y-47520425D01*
X79741146Y-47520425D02*
X82695570Y-48041370D01*
X82516935Y-54813230D02*
X86948572Y-55594647D01*
X82638488Y-54123864D02*
X82516935Y-54813230D01*
X82695570Y-48041370D02*
X83101149Y-48620598D01*
X82927501Y-49605405D02*
X83101149Y-48620598D01*
X86948572Y-55594647D02*
X87035394Y-55102243D01*
X87660527Y-51556935D02*
X87764716Y-50966050D01*
X87764716Y-50966050D02*
X83333081Y-50184633D01*
X81421749Y-52386180D02*
G75*
G02*
X82638489Y-54123864I-260472J-1477212D01*
G01*
X83333081Y-50184633D02*
G75*
G02*
X82927501Y-49605405I86824J492404D01*
G01*
%TO.C,SWL27*%
X239495183Y-63061333D02*
X239940180Y-62511808D01*
X239861033Y-66542160D02*
X240410558Y-66987157D01*
X239940180Y-62511808D02*
X242923745Y-62198223D01*
X240410558Y-66987157D02*
X242896863Y-66725840D01*
X242923745Y-62198223D02*
X243473271Y-62643219D01*
X243577799Y-63637741D02*
X243473271Y-62643219D01*
X244545438Y-68060826D02*
X244618608Y-68756991D01*
X244618608Y-68756991D02*
X249093957Y-68286613D01*
X248602673Y-63612360D02*
X244127324Y-64082738D01*
X248665390Y-64209073D02*
X248602673Y-63612360D01*
X249093957Y-68286613D02*
X249041692Y-67789352D01*
X242896863Y-66725840D02*
G75*
G02*
X244545438Y-68060826I156798J-1491776D01*
G01*
X244127324Y-64082738D02*
G75*
G02*
X243577799Y-63637741I-52264J497261D01*
G01*
%TO.C,SWL21*%
X216280681Y-48437944D02*
X216686260Y-47858716D01*
X216686260Y-47858716D02*
X219640684Y-47337771D01*
X216888449Y-51884771D02*
X217467677Y-52290351D01*
X217467677Y-52290351D02*
X219929696Y-51856230D01*
X219640684Y-47337771D02*
X220219912Y-47743351D01*
X220393560Y-48728159D02*
X220219912Y-47743351D01*
X221667380Y-53072969D02*
X221788934Y-53762335D01*
X221788934Y-53762335D02*
X226220569Y-52980918D01*
X225404423Y-48352322D02*
X220972788Y-49133738D01*
X225508611Y-48943206D02*
X225404423Y-48352322D01*
X226220569Y-52980918D02*
X226133745Y-52488514D01*
X219929696Y-51856230D02*
G75*
G02*
X221667381Y-53072969I260473J-1477212D01*
G01*
X220972788Y-49133738D02*
G75*
G02*
X220393561Y-48728159I-86824J492403D01*
G01*
%TO.C,SWL28*%
X259895652Y-67480520D02*
X260377898Y-66963374D01*
X260017800Y-70978388D02*
X260534946Y-71460633D01*
X260377898Y-66963374D02*
X263376070Y-66858676D01*
X260534946Y-71460633D02*
X263033423Y-71373384D01*
X263376070Y-66858676D02*
X263893216Y-67340922D01*
X263928115Y-68340312D02*
X263893216Y-67340922D01*
X264584858Y-72820121D02*
X264609288Y-73519695D01*
X264609288Y-73519695D02*
X269106547Y-73362647D01*
X268942519Y-68665510D02*
X264445260Y-68822558D01*
X268963459Y-69265145D02*
X268942519Y-68665510D01*
X269106547Y-73362647D02*
X269089097Y-72862952D01*
X263033423Y-71373384D02*
G75*
G02*
X264584859Y-72820121I52349J-1499087D01*
G01*
X264445260Y-68822558D02*
G75*
G02*
X263928115Y-68340312I-17450J499695D01*
G01*
%TO.C,SWL7*%
X55549743Y-66256659D02*
X55994739Y-66806184D01*
X55915592Y-62775832D02*
X56465118Y-62330836D01*
X55994739Y-66806184D02*
X58481044Y-67067505D01*
X56465118Y-62330836D02*
X59448683Y-62644421D01*
X59448683Y-62644421D02*
X59893680Y-63193946D01*
X59742864Y-69412246D02*
X64218213Y-69882624D01*
X59789151Y-64188468D02*
X59893680Y-63193946D01*
X59816034Y-68716081D02*
X59742864Y-69412246D01*
X64218213Y-69882624D02*
X64270477Y-69385363D01*
X64646780Y-65805085D02*
X64709497Y-65208370D01*
X64709497Y-65208370D02*
X60234148Y-64737993D01*
X58481044Y-67067505D02*
G75*
G02*
X59816035Y-68716081I-156792J-1491783D01*
G01*
X60234148Y-64737993D02*
G75*
G02*
X59789151Y-64188468I52264J497261D01*
G01*
%TO.C,SWL25*%
X202044470Y-71358247D02*
X202450049Y-70779019D01*
X202450049Y-70779019D02*
X205404473Y-70258074D01*
X202652238Y-74805074D02*
X203231466Y-75210654D01*
X203231466Y-75210654D02*
X205693485Y-74776533D01*
X205404473Y-70258074D02*
X205983701Y-70663654D01*
X206157349Y-71648462D02*
X205983701Y-70663654D01*
X207431169Y-75993272D02*
X207552723Y-76682638D01*
X207552723Y-76682638D02*
X211984358Y-75901221D01*
X211168212Y-71272625D02*
X206736577Y-72054041D01*
X211272400Y-71863509D02*
X211168212Y-71272625D01*
X211984358Y-75901221D02*
X211897534Y-75408817D01*
X205693485Y-74776533D02*
G75*
G02*
X207431170Y-75993272I260473J-1477212D01*
G01*
X206736577Y-72054041D02*
G75*
G02*
X206157350Y-71648462I-86824J492403D01*
G01*
%TO.C,SWL20*%
X199092451Y-54616516D02*
X199498030Y-54037288D01*
X199498030Y-54037288D02*
X202452454Y-53516343D01*
X199700219Y-58063343D02*
X200279447Y-58468923D01*
X200279447Y-58468923D02*
X202741466Y-58034802D01*
X202452454Y-53516343D02*
X203031682Y-53921923D01*
X203205330Y-54906731D02*
X203031682Y-53921923D01*
X204479150Y-59251541D02*
X204600704Y-59940907D01*
X204600704Y-59940907D02*
X209032339Y-59159490D01*
X208216193Y-54530894D02*
X203784558Y-55312310D01*
X208320381Y-55121778D02*
X208216193Y-54530894D01*
X209032339Y-59159490D02*
X208945515Y-58667086D01*
X202741466Y-58034802D02*
G75*
G02*
X204479151Y-59251541I260473J-1477212D01*
G01*
X203784558Y-55312310D02*
G75*
G02*
X203205331Y-54906731I-86824J492403D01*
G01*
%TO.C,SWL24*%
X184543673Y-75764165D02*
X184949252Y-75184937D01*
X184949252Y-75184937D02*
X187903676Y-74663992D01*
X185151441Y-79210992D02*
X185730669Y-79616572D01*
X185730669Y-79616572D02*
X188192688Y-79182451D01*
X187903676Y-74663992D02*
X188482904Y-75069572D01*
X188656552Y-76054380D02*
X188482904Y-75069572D01*
X189930372Y-80399190D02*
X190051926Y-81088556D01*
X190051926Y-81088556D02*
X194483561Y-80307139D01*
X193667415Y-75678543D02*
X189235780Y-76459959D01*
X193771603Y-76269427D02*
X193667415Y-75678543D01*
X194483561Y-80307139D02*
X194396737Y-79814735D01*
X188192688Y-79182451D02*
G75*
G02*
X189930373Y-80399190I260473J-1477212D01*
G01*
X189235780Y-76459959D02*
G75*
G02*
X188656553Y-76054380I-86824J492403D01*
G01*
%TO.C,SWL19*%
X181591654Y-59022433D02*
X181997233Y-58443205D01*
X181997233Y-58443205D02*
X184951657Y-57922260D01*
X182199422Y-62469260D02*
X182778650Y-62874840D01*
X182778650Y-62874840D02*
X185240669Y-62440719D01*
X184951657Y-57922260D02*
X185530885Y-58327840D01*
X185704533Y-59312648D02*
X185530885Y-58327840D01*
X186978353Y-63657458D02*
X187099907Y-64346824D01*
X187099907Y-64346824D02*
X191531542Y-63565407D01*
X190715396Y-58936811D02*
X186283761Y-59718227D01*
X190819584Y-59527695D02*
X190715396Y-58936811D01*
X191531542Y-63565407D02*
X191444718Y-63073003D01*
X185240669Y-62440719D02*
G75*
G02*
X186978354Y-63657458I260473J-1477212D01*
G01*
X186283761Y-59718227D02*
G75*
G02*
X185704534Y-59312648I-86824J492403D01*
G01*
%TO.C,SWL18*%
X117235862Y-128340077D02*
X118956592Y-125882620D01*
X117358650Y-129036440D02*
X117235862Y-128340077D01*
X118956592Y-125882620D02*
X119652956Y-125759833D01*
X120225683Y-131043958D02*
X120922048Y-130921171D01*
X120472108Y-126333407D02*
X119652956Y-125759833D01*
X120922048Y-130921171D02*
X122355987Y-128873291D01*
X123749567Y-122524437D02*
X121168472Y-126210621D01*
X124241057Y-122868582D02*
X123749567Y-122524437D01*
X124445080Y-128504928D02*
X125018486Y-128906431D01*
X125018486Y-128906431D02*
X127599581Y-125220247D01*
X127599581Y-125220247D02*
X127190005Y-124933458D01*
X121168472Y-126210621D02*
G75*
G02*
X120472107Y-126333408I-409576J286788D01*
G01*
X122355987Y-128873291D02*
G75*
G02*
X124445081Y-128504927I1228729J-860364D01*
G01*
%TO.C,SWL14*%
X89855707Y-90936387D02*
X90261287Y-91515615D01*
X90261287Y-91515615D02*
X92723306Y-91949735D01*
X90463475Y-87489560D02*
X91042703Y-87083980D01*
X91042703Y-87083980D02*
X93997127Y-87604925D01*
X93818492Y-94376785D02*
X98250129Y-95158202D01*
X93940045Y-93687419D02*
X93818492Y-94376785D01*
X93997127Y-87604925D02*
X94402706Y-88184153D01*
X94229058Y-89168960D02*
X94402706Y-88184153D01*
X98250129Y-95158202D02*
X98336951Y-94665798D01*
X98962084Y-91120490D02*
X99066273Y-90529605D01*
X99066273Y-90529605D02*
X94634638Y-89748188D01*
X92723306Y-91949735D02*
G75*
G02*
X93940046Y-93687419I-260472J-1477212D01*
G01*
X94634638Y-89748188D02*
G75*
G02*
X94229058Y-89168960I86824J492404D01*
G01*
%TO.C,SWL5*%
X113243177Y-61957321D02*
X113648757Y-62536549D01*
X113648757Y-62536549D02*
X116110776Y-62970669D01*
X113850945Y-58510494D02*
X114430173Y-58104914D01*
X114430173Y-58104914D02*
X117384597Y-58625859D01*
X117205962Y-65397719D02*
X121637599Y-66179136D01*
X117327515Y-64708353D02*
X117205962Y-65397719D01*
X117384597Y-58625859D02*
X117790176Y-59205087D01*
X117616528Y-60189894D02*
X117790176Y-59205087D01*
X121637599Y-66179136D02*
X121724421Y-65686732D01*
X122349554Y-62141424D02*
X122453743Y-61550539D01*
X122453743Y-61550539D02*
X118022108Y-60769122D01*
X116110776Y-62970669D02*
G75*
G02*
X117327516Y-64708353I-260472J-1477212D01*
G01*
X118022108Y-60769122D02*
G75*
G02*
X117616528Y-60189894I86824J492404D01*
G01*
%TO.C,SWL22*%
X237707746Y-46055008D02*
X238152743Y-45505483D01*
X238073596Y-49535835D02*
X238623121Y-49980832D01*
X238152743Y-45505483D02*
X241136308Y-45191898D01*
X238623121Y-49980832D02*
X241109426Y-49719515D01*
X241136308Y-45191898D02*
X241685834Y-45636894D01*
X241790362Y-46631416D02*
X241685834Y-45636894D01*
X242758001Y-51054501D02*
X242831171Y-51750666D01*
X242831171Y-51750666D02*
X247306520Y-51280288D01*
X246815236Y-46606035D02*
X242339887Y-47076413D01*
X246877953Y-47202748D02*
X246815236Y-46606035D01*
X247306520Y-51280288D02*
X247254255Y-50783027D01*
X241109426Y-49719515D02*
G75*
G02*
X242758001Y-51054501I156798J-1491776D01*
G01*
X242339887Y-47076413D02*
G75*
G02*
X241790362Y-46631416I-52264J497261D01*
G01*
%TO.C,SWL30*%
X204996489Y-88099979D02*
X205402068Y-87520751D01*
X205402068Y-87520751D02*
X208356492Y-86999806D01*
X205604257Y-91546806D02*
X206183485Y-91952386D01*
X206183485Y-91952386D02*
X208645504Y-91518265D01*
X208356492Y-86999806D02*
X208935720Y-87405386D01*
X209109368Y-88390194D02*
X208935720Y-87405386D01*
X210383188Y-92735004D02*
X210504742Y-93424370D01*
X210504742Y-93424370D02*
X214936377Y-92642953D01*
X214120231Y-88014357D02*
X209688596Y-88795773D01*
X214224419Y-88605241D02*
X214120231Y-88014357D01*
X214936377Y-92642953D02*
X214849553Y-92150549D01*
X208645504Y-91518265D02*
G75*
G02*
X210383189Y-92735004I260473J-1477212D01*
G01*
X209688596Y-88795773D02*
G75*
G02*
X209109369Y-88390194I-86824J492403D01*
G01*
%TO.C,SWL29*%
X187495692Y-92505897D02*
X187901271Y-91926669D01*
X187901271Y-91926669D02*
X190855695Y-91405724D01*
X188103460Y-95952724D02*
X188682688Y-96358304D01*
X188682688Y-96358304D02*
X191144707Y-95924183D01*
X190855695Y-91405724D02*
X191434923Y-91811304D01*
X191608571Y-92796112D02*
X191434923Y-91811304D01*
X192882391Y-97140922D02*
X193003945Y-97830288D01*
X193003945Y-97830288D02*
X197435580Y-97048871D01*
X196619434Y-92420275D02*
X192187799Y-93201691D01*
X196723622Y-93011159D02*
X196619434Y-92420275D01*
X197435580Y-97048871D02*
X197348756Y-96556467D01*
X191144707Y-95924183D02*
G75*
G02*
X192882392Y-97140922I260473J-1477212D01*
G01*
X192187799Y-93201691D02*
G75*
G02*
X191608572Y-92796112I-86824J492403D01*
G01*
%TO.C,SWL13*%
X72667477Y-84757815D02*
X73073057Y-85337043D01*
X73073057Y-85337043D02*
X75535076Y-85771163D01*
X73275245Y-81310988D02*
X73854473Y-80905408D01*
X73854473Y-80905408D02*
X76808897Y-81426353D01*
X76630262Y-88198213D02*
X81061899Y-88979630D01*
X76751815Y-87508847D02*
X76630262Y-88198213D01*
X76808897Y-81426353D02*
X77214476Y-82005581D01*
X77040828Y-82990388D02*
X77214476Y-82005581D01*
X81061899Y-88979630D02*
X81148721Y-88487226D01*
X81773854Y-84941918D02*
X81878043Y-84351033D01*
X81878043Y-84351033D02*
X77446408Y-83569616D01*
X75535076Y-85771163D02*
G75*
G02*
X76751816Y-87508847I-260472J-1477212D01*
G01*
X77446408Y-83569616D02*
G75*
G02*
X77040828Y-82990388I86824J492404D01*
G01*
%TO.C,SWL12*%
X53783211Y-83064080D02*
X54228207Y-83613605D01*
X54149060Y-79583253D02*
X54698586Y-79138257D01*
X54228207Y-83613605D02*
X56714512Y-83874926D01*
X54698586Y-79138257D02*
X57682151Y-79451842D01*
X57682151Y-79451842D02*
X58127148Y-80001367D01*
X57976332Y-86219667D02*
X62451681Y-86690045D01*
X58022619Y-80995889D02*
X58127148Y-80001367D01*
X58049502Y-85523502D02*
X57976332Y-86219667D01*
X62451681Y-86690045D02*
X62503945Y-86192784D01*
X62880248Y-82612506D02*
X62942965Y-82015791D01*
X62942965Y-82015791D02*
X58467616Y-81545414D01*
X56714512Y-83874926D02*
G75*
G02*
X58049503Y-85523502I-156792J-1491783D01*
G01*
X58467616Y-81545414D02*
G75*
G02*
X58022619Y-80995889I52264J497261D01*
G01*
%TO.C,SWL9*%
X92807726Y-74194655D02*
X93213306Y-74773883D01*
X93213306Y-74773883D02*
X95675325Y-75208003D01*
X93415494Y-70747828D02*
X93994722Y-70342248D01*
X93994722Y-70342248D02*
X96949146Y-70863193D01*
X96770511Y-77635053D02*
X101202148Y-78416470D01*
X96892064Y-76945687D02*
X96770511Y-77635053D01*
X96949146Y-70863193D02*
X97354725Y-71442421D01*
X97181077Y-72427228D02*
X97354725Y-71442421D01*
X101202148Y-78416470D02*
X101288970Y-77924066D01*
X101914103Y-74378758D02*
X102018292Y-73787873D01*
X102018292Y-73787873D02*
X97586657Y-73006456D01*
X95675325Y-75208003D02*
G75*
G02*
X96892065Y-76945687I-260472J-1477212D01*
G01*
X97586657Y-73006456D02*
G75*
G02*
X97181077Y-72427228I86824J492404D01*
G01*
%TO.C,SWL8*%
X75602131Y-68114564D02*
X76007711Y-68693792D01*
X76007711Y-68693792D02*
X78469730Y-69127912D01*
X76209899Y-64667737D02*
X76789127Y-64262157D01*
X76789127Y-64262157D02*
X79743551Y-64783102D01*
X79564916Y-71554962D02*
X83996553Y-72336379D01*
X79686469Y-70865596D02*
X79564916Y-71554962D01*
X79743551Y-64783102D02*
X80149130Y-65362330D01*
X79975482Y-66347137D02*
X80149130Y-65362330D01*
X83996553Y-72336379D02*
X84083375Y-71843975D01*
X84708508Y-68298667D02*
X84812697Y-67707782D01*
X84812697Y-67707782D02*
X80381062Y-66926365D01*
X78469730Y-69127912D02*
G75*
G02*
X79686470Y-70865596I-260472J-1477212D01*
G01*
X80381062Y-66926365D02*
G75*
G02*
X79975482Y-66347137I86824J492404D01*
G01*
%TO.C,SWL11*%
X34777200Y-87873996D02*
X35259446Y-88391141D01*
X34899348Y-84376128D02*
X35416494Y-83893882D01*
X35259446Y-88391141D02*
X37757923Y-88478389D01*
X35416494Y-83893882D02*
X38414666Y-83998580D01*
X38414666Y-83998580D02*
X38896912Y-84515726D01*
X38862012Y-85515116D02*
X38896912Y-84515726D01*
X39180230Y-90729401D02*
X43677489Y-90886446D01*
X39204660Y-90029825D02*
X39180230Y-90729401D01*
X43677489Y-90886446D02*
X43694939Y-90386751D01*
X43820577Y-86788944D02*
X43841517Y-86189309D01*
X43841517Y-86189309D02*
X39344258Y-86032262D01*
X37757923Y-88478389D02*
G75*
G02*
X39204661Y-90029825I-52349J-1499087D01*
G01*
X39344258Y-86032262D02*
G75*
G02*
X38862012Y-85515116I17450J499696D01*
G01*
%TO.C,SWL34*%
X176780604Y-128476461D02*
X178214545Y-130524341D01*
X176903392Y-127780097D02*
X176780604Y-128476461D01*
X177272775Y-133014937D02*
X179853869Y-136701122D01*
X177846182Y-132613434D02*
X177272775Y-133014937D01*
X179770424Y-125772580D02*
X180466788Y-125895367D01*
X179853869Y-136701122D02*
X180263445Y-136414333D01*
X180466788Y-125895367D02*
X182187518Y-128352824D01*
X181245578Y-129622764D02*
X182064730Y-129049187D01*
X182187518Y-128352824D02*
X182064730Y-129049187D01*
X183212392Y-134349457D02*
X183703884Y-134005312D01*
X183703884Y-134005312D02*
X181122790Y-130319128D01*
X178214545Y-130524341D02*
G75*
G02*
X177846182Y-132613434I-1228728J-860365D01*
G01*
X181122790Y-130319128D02*
G75*
G02*
X181245578Y-129622764I409576J286788D01*
G01*
%TO.C,SWL6*%
X35367002Y-70984291D02*
X35849248Y-71501436D01*
X35489150Y-67486423D02*
X36006296Y-67004177D01*
X35849248Y-71501436D02*
X38347725Y-71588684D01*
X36006296Y-67004177D02*
X39004468Y-67108875D01*
X39004468Y-67108875D02*
X39486714Y-67626021D01*
X39451814Y-68625411D02*
X39486714Y-67626021D01*
X39770032Y-73839696D02*
X44267291Y-73996741D01*
X39794462Y-73140120D02*
X39770032Y-73839696D01*
X44267291Y-73996741D02*
X44284741Y-73497046D01*
X44410379Y-69899239D02*
X44431319Y-69299604D01*
X44431319Y-69299604D02*
X39934060Y-69142557D01*
X38347725Y-71588684D02*
G75*
G02*
X39794463Y-73140120I-52349J-1499087D01*
G01*
X39934060Y-69142557D02*
G75*
G02*
X39451814Y-68625411I17450J499696D01*
G01*
%TO.C,SWL16*%
X87084859Y-112918737D02*
X87405879Y-113548773D01*
X87405879Y-113548773D02*
X89783520Y-114321316D01*
X88166419Y-109590039D02*
X88796456Y-109269019D01*
X88796456Y-109269019D02*
X91649625Y-110196070D01*
X90530268Y-116877166D02*
X94810022Y-118267742D01*
X90746580Y-116211426D02*
X90530268Y-116877166D01*
X91649625Y-110196070D02*
X91970645Y-110826107D01*
X91661628Y-111777163D02*
X91970645Y-110826107D01*
X94810022Y-118267742D02*
X94964531Y-117792214D01*
X96076992Y-114368410D02*
X96262402Y-113797777D01*
X96262402Y-113797777D02*
X91982648Y-112407200D01*
X89783520Y-114321316D02*
G75*
G02*
X90746580Y-116211426I-463525J-1426585D01*
G01*
X91982648Y-112407200D02*
G75*
G02*
X91661628Y-111777163I154508J475528D01*
G01*
%TO.C,SWL33*%
X260485453Y-84370225D02*
X260967699Y-83853079D01*
X260607601Y-87868093D02*
X261124747Y-88350338D01*
X260967699Y-83853079D02*
X263965871Y-83748381D01*
X261124747Y-88350338D02*
X263623224Y-88263089D01*
X263965871Y-83748381D02*
X264483017Y-84230627D01*
X264517916Y-85230017D02*
X264483017Y-84230627D01*
X265174659Y-89709826D02*
X265199089Y-90409400D01*
X265199089Y-90409400D02*
X269696348Y-90252352D01*
X269532320Y-85555215D02*
X265035061Y-85712263D01*
X269553260Y-86154850D02*
X269532320Y-85555215D01*
X269696348Y-90252352D02*
X269678898Y-89752657D01*
X263623224Y-88263089D02*
G75*
G02*
X265174660Y-89709826I52349J-1499087D01*
G01*
X265035061Y-85712263D02*
G75*
G02*
X264517916Y-85230017I-17450J499695D01*
G01*
%TO.C,SWL15*%
X107356504Y-95342304D02*
X107762084Y-95921532D01*
X107762084Y-95921532D02*
X110224103Y-96355652D01*
X107964272Y-91895477D02*
X108543500Y-91489897D01*
X108543500Y-91489897D02*
X111497924Y-92010842D01*
X111319289Y-98782702D02*
X115750926Y-99564119D01*
X111440842Y-98093336D02*
X111319289Y-98782702D01*
X111497924Y-92010842D02*
X111903503Y-92590070D01*
X111729855Y-93574877D02*
X111903503Y-92590070D01*
X115750926Y-99564119D02*
X115837748Y-99071715D01*
X116462881Y-95526407D02*
X116567070Y-94935522D01*
X116567070Y-94935522D02*
X112135435Y-94154105D01*
X110224103Y-96355652D02*
G75*
G02*
X111440843Y-98093336I-260472J-1477212D01*
G01*
X112135435Y-94154105D02*
G75*
G02*
X111729855Y-93574877I86824J492404D01*
G01*
%TO.C,SWL17*%
X106237825Y-120604643D02*
X106444563Y-121280853D01*
X106444563Y-121280853D02*
X108651931Y-122454531D01*
X107880976Y-117514326D02*
X108557185Y-117307588D01*
X108557185Y-117307588D02*
X111206028Y-118716003D01*
X108943516Y-125101224D02*
X112916780Y-127213846D01*
X109272146Y-124483160D02*
X108943516Y-125101224D01*
X110943295Y-120275160D02*
X111412766Y-119392213D01*
X111206028Y-118716003D02*
X111412766Y-119392213D01*
X112916780Y-127213846D02*
X113151516Y-126772372D01*
X114841614Y-123593760D02*
X115123297Y-123063992D01*
X115123297Y-123063992D02*
X111150033Y-120951370D01*
X108651931Y-122454531D02*
G75*
G02*
X109272146Y-124483160I-704206J-1324422D01*
G01*
X111150033Y-120951370D02*
G75*
G02*
X110943295Y-120275160I234735J441474D01*
G01*
%TO.C,SWL32*%
X241261714Y-79868753D02*
X241706711Y-79319228D01*
X241627564Y-83349580D02*
X242177089Y-83794577D01*
X241706711Y-79319228D02*
X244690276Y-79005643D01*
X242177089Y-83794577D02*
X244663394Y-83533260D01*
X244690276Y-79005643D02*
X245239802Y-79450639D01*
X245344330Y-80445161D02*
X245239802Y-79450639D01*
X246311969Y-84868246D02*
X246385139Y-85564411D01*
X246385139Y-85564411D02*
X250860488Y-85094033D01*
X250369204Y-80419780D02*
X245893855Y-80890158D01*
X250431921Y-81016493D02*
X250369204Y-80419780D01*
X250860488Y-85094033D02*
X250808223Y-84596772D01*
X244663394Y-83533260D02*
G75*
G02*
X246311969Y-84868246I156798J-1491776D01*
G01*
X245893855Y-80890158D02*
G75*
G02*
X245344330Y-80445161I-52264J497261D01*
G01*
%TO.C,DL3*%
X82894214Y-60159973D02*
X83902095Y-59626891D01*
X83137322Y-58781242D02*
X82894214Y-60159973D01*
X83902095Y-59626891D02*
X83137322Y-58781242D01*
X84023649Y-58937526D02*
X83780541Y-60316258D01*
%TO.C,DL34*%
X173758836Y-137062433D02*
X174848460Y-137398163D01*
X174848460Y-137398163D02*
X174905647Y-136259425D01*
X174905647Y-136259425D02*
X173758836Y-137062433D01*
X175421866Y-136996663D02*
X174275053Y-137799668D01*
%TO.C,DL22*%
X244521258Y-55393964D02*
X244667599Y-56786294D01*
X244667599Y-56786294D02*
X245489498Y-55996053D01*
X245416328Y-55299886D02*
X245562668Y-56692218D01*
X245489498Y-55996053D02*
X244521258Y-55393964D01*
%TO.C,DL21*%
X223729047Y-57278863D02*
X223972156Y-58657594D01*
X223972156Y-58657594D02*
X224736928Y-57811944D01*
X224615374Y-57122577D02*
X224858482Y-58501309D01*
X224736928Y-57811944D02*
X223729047Y-57278863D01*
%TO.C,DL23*%
X265444332Y-60182428D02*
X265493193Y-61581574D01*
X265493193Y-61581574D02*
X266368213Y-60850591D01*
X266343785Y-60151018D02*
X266392642Y-61550165D01*
X266368213Y-60850591D02*
X265444332Y-60182428D01*
%TO.C,DL9*%
X97147790Y-82981795D02*
X98155671Y-82448713D01*
X97390898Y-81603064D02*
X97147790Y-82981795D01*
X98155671Y-82448713D02*
X97390898Y-81603064D01*
X98277225Y-81759348D02*
X98034117Y-83138080D01*
%TO.C,DL29*%
X194944058Y-101346815D02*
X195187167Y-102725546D01*
X195187167Y-102725546D02*
X195951939Y-101879896D01*
X195830385Y-101190529D02*
X196073493Y-102569261D01*
X195951939Y-101879896D02*
X194944058Y-101346815D01*
%TO.C,DL6*%
X40887762Y-79081895D02*
X41811643Y-78413732D01*
X40936622Y-77682749D02*
X40887762Y-79081895D01*
X41811643Y-78413732D02*
X40936622Y-77682749D01*
X41836072Y-77714158D02*
X41787215Y-79113305D01*
%TO.C,DL14*%
X94195771Y-99723527D02*
X95203652Y-99190445D01*
X94438879Y-98344796D02*
X94195771Y-99723527D01*
X95203652Y-99190445D02*
X94438879Y-98344796D01*
X95325206Y-98501080D02*
X95082098Y-99879812D01*
%TO.C,DL37*%
X155210000Y-109260000D02*
X155910000Y-110160000D01*
X155910000Y-110160000D02*
X156610000Y-109260000D01*
X156610000Y-109260000D02*
X155210000Y-109260000D01*
X156610000Y-110160000D02*
X155210000Y-110160000D01*
%TO.C,DL35*%
X197826427Y-125511500D02*
X198483687Y-126747626D01*
X198483687Y-126747626D02*
X198949710Y-125707039D01*
X198621080Y-125088976D02*
X199278339Y-126325103D01*
X198949710Y-125707039D02*
X197826427Y-125511500D01*
%TO.C,DL16*%
X90159754Y-122224381D02*
X91232016Y-121836758D01*
X90592377Y-120892903D02*
X90159754Y-122224381D01*
X91232016Y-121836758D02*
X90592377Y-120892903D01*
X91448328Y-121171018D02*
X91015705Y-122502497D01*
%TO.C,DL4*%
X100082444Y-66338544D02*
X101090325Y-65805462D01*
X100325552Y-64959813D02*
X100082444Y-66338544D01*
X101090325Y-65805462D02*
X100325552Y-64959813D01*
X101211879Y-65116097D02*
X100968771Y-66494829D01*
%TO.C,DL31*%
X229633085Y-90762326D02*
X229876192Y-92141056D01*
X229876192Y-92141056D02*
X230640966Y-91295408D01*
X230519412Y-90606041D02*
X230762519Y-91984774D01*
X230640966Y-91295408D02*
X229633085Y-90762326D01*
%TO.C,DL32*%
X248075226Y-89207708D02*
X248221567Y-90600038D01*
X248221567Y-90600038D02*
X249043466Y-89809797D01*
X248970296Y-89113630D02*
X249116636Y-90505962D01*
X249043466Y-89809797D02*
X248075226Y-89207708D01*
%TO.C,DL10*%
X114648587Y-87387713D02*
X115656468Y-86854631D01*
X114891695Y-86008982D02*
X114648587Y-87387713D01*
X115656468Y-86854631D02*
X114891695Y-86008982D01*
X115778022Y-86165266D02*
X115534914Y-87543998D01*
%TO.C,DL36*%
X216058739Y-118556021D02*
X216491362Y-119887499D01*
X216491362Y-119887499D02*
X217131001Y-118943644D01*
X216914690Y-118277905D02*
X217347313Y-119609384D01*
X217131001Y-118943644D02*
X216058739Y-118556021D01*
%TO.C,DL8*%
X79942195Y-76901705D02*
X80950076Y-76368623D01*
X80185303Y-75522974D02*
X79942195Y-76901705D01*
X80950076Y-76368623D02*
X80185303Y-75522974D01*
X81071630Y-75679258D02*
X80828522Y-77057990D01*
%TO.C,DL24*%
X191992039Y-84605084D02*
X192235148Y-85983815D01*
X192235148Y-85983815D02*
X192999920Y-85138165D01*
X192878366Y-84448798D02*
X193121474Y-85827530D01*
X192999920Y-85138165D02*
X191992039Y-84605084D01*
%TO.C,DL5*%
X117583241Y-70744462D02*
X118591122Y-70211380D01*
X117826349Y-69365731D02*
X117583241Y-70744462D01*
X118591122Y-70211380D02*
X117826349Y-69365731D01*
X118712676Y-69522015D02*
X118469568Y-70900747D01*
%TO.C,DL28*%
X266041113Y-77272011D02*
X266089972Y-78671157D01*
X266089972Y-78671157D02*
X266964993Y-77940173D01*
X266940565Y-77240602D02*
X266989424Y-78639748D01*
X266964993Y-77940173D02*
X266041113Y-77272011D01*
%TO.C,DL20*%
X206540817Y-63457434D02*
X206783924Y-64836164D01*
X206783924Y-64836164D02*
X207548698Y-63990516D01*
X207427144Y-63301149D02*
X207670251Y-64679882D01*
X207548698Y-63990516D02*
X206540817Y-63457434D01*
%TO.C,DL18*%
X128876914Y-130021124D02*
X130023726Y-130824131D01*
X129393132Y-129283887D02*
X130539945Y-130086894D01*
X129966539Y-129685393D02*
X128876914Y-130021124D01*
X130023726Y-130824131D02*
X129966539Y-129685393D01*
%TO.C,DL15*%
X111696568Y-104129444D02*
X112704449Y-103596362D01*
X111939676Y-102750713D02*
X111696568Y-104129444D01*
X112704449Y-103596362D02*
X111939676Y-102750713D01*
X112826003Y-102906997D02*
X112582895Y-104285729D01*
%TO.C,DL30*%
X212444855Y-96940898D02*
X212687964Y-98319629D01*
X212687964Y-98319629D02*
X213452736Y-97473979D01*
X213331182Y-96784612D02*
X213574290Y-98163344D01*
X213452736Y-97473979D02*
X212444855Y-96940898D01*
%TO.C,DL1*%
X41481054Y-62092251D02*
X42404935Y-61424088D01*
X41529914Y-60693105D02*
X41481054Y-62092251D01*
X42404935Y-61424088D02*
X41529914Y-60693105D01*
X42429364Y-60724514D02*
X42380507Y-62123661D01*
%TO.C,DL2*%
X62269178Y-57812775D02*
X63237418Y-57210685D01*
X62415518Y-56420445D02*
X62269178Y-57812775D01*
X63237418Y-57210685D02*
X62415518Y-56420445D01*
X63310587Y-56514520D02*
X63164248Y-57906851D01*
%TO.C,DL12*%
X58725663Y-91527068D02*
X59693903Y-90924978D01*
X58872003Y-90134738D02*
X58725663Y-91527068D01*
X59693903Y-90924978D02*
X58872003Y-90134738D01*
X59767072Y-90228813D02*
X59620733Y-91621144D01*
%TO.C,DL7*%
X60492194Y-74719648D02*
X61460434Y-74117558D01*
X60638534Y-73327318D02*
X60492194Y-74719648D01*
X61460434Y-74117558D02*
X60638534Y-73327318D01*
X61533603Y-73421393D02*
X61387264Y-74813724D01*
%TO.C,DL33*%
X266630915Y-94161717D02*
X266679774Y-95560863D01*
X266679774Y-95560863D02*
X267554795Y-94829879D01*
X267530367Y-94130307D02*
X267579226Y-95529454D01*
X267554795Y-94829879D02*
X266630915Y-94161717D01*
%TO.C,DL26*%
X226681066Y-74020594D02*
X226924174Y-75399325D01*
X226924174Y-75399325D02*
X227688947Y-74553676D01*
X227567393Y-73864309D02*
X227810501Y-75243041D01*
X227688947Y-74553676D02*
X226681066Y-74020594D01*
%TO.C,DL13*%
X77007541Y-93544956D02*
X78015422Y-93011874D01*
X77250649Y-92166225D02*
X77007541Y-93544956D01*
X78015422Y-93011874D02*
X77250649Y-92166225D01*
X78136976Y-92322509D02*
X77893868Y-93701241D01*
%TO.C,DL17*%
X107650095Y-130302862D02*
X108773376Y-130107324D01*
X108307355Y-129066736D02*
X107650095Y-130302862D01*
X108773376Y-130107324D02*
X108307355Y-129066736D01*
X109102008Y-129489260D02*
X108444748Y-130725387D01*
%TO.C,DL27*%
X246308694Y-72400288D02*
X246455035Y-73792618D01*
X246455035Y-73792618D02*
X247276934Y-73002377D01*
X247203764Y-72306210D02*
X247350104Y-73698542D01*
X247276934Y-73002377D02*
X246308694Y-72400288D01*
%TO.C,DL11*%
X40297962Y-95971600D02*
X41221843Y-95303437D01*
X40346822Y-94572454D02*
X40297962Y-95971600D01*
X41221843Y-95303437D02*
X40346822Y-94572454D01*
X41246272Y-94603863D02*
X41197415Y-96003010D01*
%TO.C,DL19*%
X189040020Y-67863351D02*
X189283128Y-69242082D01*
X189283128Y-69242082D02*
X190047901Y-68396433D01*
X189926347Y-67707066D02*
X190169455Y-69085798D01*
X190047901Y-68396433D02*
X189040020Y-67863351D01*
%TO.C,DL25*%
X209492836Y-80199166D02*
X209735945Y-81577897D01*
X209735945Y-81577897D02*
X210500716Y-80732246D01*
X210379164Y-80042882D02*
X210622270Y-81421613D01*
X210500716Y-80732246D02*
X209492836Y-80199166D01*
%TD*%
D13*
%TO.C,BAT+1*%
X154331689Y-95419787D03*
%TD*%
%TO.C,BATGND1*%
X145041689Y-95419787D03*
%TD*%
M02*
