%TF.GenerationSoftware,KiCad,Pcbnew,9.0.7*%
%TF.CreationDate,2026-02-25T20:28:23+01:00*%
%TF.ProjectId,AFF314KEEB,41464633-3134-44b4-9545-422e6b696361,rev?*%
%TF.SameCoordinates,Original*%
%TF.FileFunction,Copper,L2,Bot*%
%TF.FilePolarity,Positive*%
%FSLAX46Y46*%
G04 Gerber Fmt 4.6, Leading zero omitted, Abs format (unit mm)*
G04 Created by KiCad (PCBNEW 9.0.7) date 2026-02-25 20:28:23*
%MOMM*%
%LPD*%
G01*
G04 APERTURE LIST*
G04 Aperture macros list*
%AMRotRect*
0 Rectangle, with rotation*
0 The origin of the aperture is its center*
0 $1 length*
0 $2 width*
0 $3 Rotation angle, in degrees counterclockwise*
0 Add horizontal line*
21,1,$1,$2,0,0,$3*%
G04 Aperture macros list end*
%TA.AperFunction,ComponentPad*%
%ADD10C,1.752600*%
%TD*%
%TA.AperFunction,ConnectorPad*%
%ADD11C,3.800000*%
%TD*%
%TA.AperFunction,ComponentPad*%
%ADD12C,2.600000*%
%TD*%
%TA.AperFunction,SMDPad,CuDef*%
%ADD13RotRect,2.600000X2.600000X350.000000*%
%TD*%
%TA.AperFunction,ComponentPad*%
%ADD14C,2.032000*%
%TD*%
%TA.AperFunction,SMDPad,CuDef*%
%ADD15RotRect,2.600000X2.600000X354.000000*%
%TD*%
%TA.AperFunction,SMDPad,CuDef*%
%ADD16RotRect,2.600000X2.600000X10.000000*%
%TD*%
%TA.AperFunction,ComponentPad*%
%ADD17C,2.500000*%
%TD*%
%TA.AperFunction,SMDPad,CuDef*%
%ADD18RotRect,2.600000X2.600000X28.000000*%
%TD*%
%TA.AperFunction,SMDPad,CuDef*%
%ADD19RotRect,2.600000X2.600000X18.000000*%
%TD*%
%TA.AperFunction,SMDPad,CuDef*%
%ADD20RotRect,2.600000X2.600000X2.000000*%
%TD*%
%TA.AperFunction,SMDPad,CuDef*%
%ADD21RotRect,2.600000X2.600000X358.000000*%
%TD*%
%TA.AperFunction,ComponentPad*%
%ADD22C,1.800000*%
%TD*%
%TA.AperFunction,ComponentPad*%
%ADD23C,2.100000*%
%TD*%
%TA.AperFunction,SMDPad,CuDef*%
%ADD24RotRect,2.600000X2.600000X6.000000*%
%TD*%
%TA.AperFunction,WasherPad*%
%ADD25C,0.900000*%
%TD*%
%TA.AperFunction,SMDPad,CuDef*%
%ADD26RotRect,2.600000X2.600000X55.000000*%
%TD*%
%TA.AperFunction,ComponentPad*%
%ADD27C,1.524000*%
%TD*%
%TA.AperFunction,SMDPad,CuDef*%
%ADD28RotRect,2.600000X2.600000X305.000000*%
%TD*%
%TA.AperFunction,SMDPad,CuDef*%
%ADD29RotRect,2.600000X2.600000X342.000000*%
%TD*%
%TA.AperFunction,SMDPad,CuDef*%
%ADD30RotRect,2.600000X2.600000X332.000000*%
%TD*%
%TA.AperFunction,SMDPad,CuDef*%
%ADD31RotRect,1.800000X1.500000X170.000000*%
%TD*%
%TA.AperFunction,SMDPad,CuDef*%
%ADD32RotRect,1.800000X1.500000X125.000000*%
%TD*%
%TA.AperFunction,SMDPad,CuDef*%
%ADD33RotRect,1.800000X1.500000X186.000000*%
%TD*%
%TA.AperFunction,SMDPad,CuDef*%
%ADD34RotRect,1.800000X1.500000X190.000000*%
%TD*%
%TA.AperFunction,SMDPad,CuDef*%
%ADD35RotRect,1.800000X1.500000X182.000000*%
%TD*%
%TA.AperFunction,SMDPad,CuDef*%
%ADD36RotRect,1.800000X1.500000X178.000000*%
%TD*%
%TA.AperFunction,SMDPad,CuDef*%
%ADD37R,1.500000X1.800000*%
%TD*%
%TA.AperFunction,SMDPad,CuDef*%
%ADD38RotRect,1.800000X1.500000X208.000000*%
%TD*%
%TA.AperFunction,SMDPad,CuDef*%
%ADD39RotRect,1.800000X1.500000X162.000000*%
%TD*%
%TA.AperFunction,SMDPad,CuDef*%
%ADD40RotRect,1.800000X1.500000X198.000000*%
%TD*%
%TA.AperFunction,SMDPad,CuDef*%
%ADD41RotRect,1.800000X1.500000X235.000000*%
%TD*%
%TA.AperFunction,SMDPad,CuDef*%
%ADD42RotRect,1.800000X1.500000X174.000000*%
%TD*%
%TA.AperFunction,SMDPad,CuDef*%
%ADD43RotRect,1.800000X1.500000X152.000000*%
%TD*%
%TA.AperFunction,Conductor*%
%ADD44C,0.200000*%
%TD*%
G04 APERTURE END LIST*
D10*
%TO.P,U1,1,1*%
%TO.N,unconnected-(U1-Pad1)*%
X142062065Y-63584463D03*
%TO.P,U1,2,0*%
%TO.N,unconnected-(U1-0-Pad2)*%
X142062065Y-66124463D03*
%TO.P,U1,3,GND*%
%TO.N,GND*%
X142062065Y-68664463D03*
%TO.P,U1,4,GND*%
X142062065Y-71204463D03*
%TO.P,U1,5,2*%
%TO.N,A*%
X142062065Y-73744463D03*
%TO.P,U1,6,3*%
%TO.N,B*%
X142062065Y-76284463D03*
%TO.P,U1,7,4*%
%TO.N,COL_0*%
X142062065Y-78824463D03*
%TO.P,U1,8,5*%
%TO.N,COL_1*%
X142062065Y-81364463D03*
%TO.P,U1,9,6*%
%TO.N,COL_2*%
X142062065Y-83904463D03*
%TO.P,U1,10,7*%
%TO.N,COL_3*%
X142062065Y-86444463D03*
%TO.P,U1,11,8*%
%TO.N,COL_4*%
X142062065Y-88984463D03*
%TO.P,U1,12,9*%
%TO.N,ROW_3*%
X142062065Y-91524463D03*
%TO.P,U1,13,10*%
%TO.N,COL_5*%
X157302065Y-91524463D03*
%TO.P,U1,14,16*%
%TO.N,COL_6*%
X157302065Y-88984463D03*
%TO.P,U1,15,14*%
%TO.N,COL_7*%
X157302065Y-86444463D03*
%TO.P,U1,16,15*%
%TO.N,COL_8*%
X157302065Y-83904463D03*
%TO.P,U1,17,18*%
%TO.N,COL_9*%
X157302065Y-81364463D03*
%TO.P,U1,18,19*%
%TO.N,ROW_2*%
X157302065Y-78824463D03*
%TO.P,U1,19,20*%
%TO.N,ROW_1*%
X157302065Y-76284463D03*
%TO.P,U1,20,21*%
%TO.N,ROW_0*%
X157302065Y-73744463D03*
%TO.P,U1,21,3.3v*%
%TO.N,unconnected-(U1-3.3v-Pad21)*%
X157302065Y-71204463D03*
%TO.P,U1,22,RST*%
%TO.N,RESET*%
X157302065Y-68664463D03*
%TO.P,U1,23,GND*%
%TO.N,GND*%
X157302065Y-66124463D03*
%TO.P,U1,24,B+*%
%TO.N,BAT+*%
X157302065Y-63584463D03*
%TO.P,U1,25,1*%
%TO.N,unconnected-(U1-1-Pad25)*%
X144602065Y-86444463D03*
%TO.P,U1,26,2*%
%TO.N,unconnected-(U1-2-Pad26)*%
X147142065Y-86444463D03*
%TO.P,U1,27,7*%
%TO.N,unconnected-(U1-7-Pad27)*%
X149682065Y-86444463D03*
%TD*%
D11*
%TO.P,H5,1,1*%
%TO.N,unconnected-(H5-Pad1)*%
X230501659Y-54503770D03*
D12*
X230501659Y-54503770D03*
%TD*%
D11*
%TO.P,H4,1,1*%
%TO.N,unconnected-(H4-Pad1)*%
X88550000Y-106250000D03*
D12*
X88550000Y-106250000D03*
%TD*%
%TO.P,H8,1,1*%
%TO.N,unconnected-(H8-Pad1)*%
X210849195Y-106165826D03*
D11*
X210849195Y-106165826D03*
%TD*%
D12*
%TO.P,H7,1,1*%
%TO.N,unconnected-(H7-Pad1)*%
X195099157Y-72352239D03*
D11*
X195099157Y-72352239D03*
%TD*%
D12*
%TO.P,H6,1,1*%
%TO.N,unconnected-(H6-Pad1)*%
X252752961Y-77995735D03*
D11*
X252752961Y-77995735D03*
%TD*%
D12*
%TO.P,H3,1,1*%
%TO.N,unconnected-(H3-Pad1)*%
X104282673Y-72534893D03*
D11*
X104282673Y-72534893D03*
%TD*%
D13*
%TO.P,SWL4,2,2*%
%TO.N,Net-(DL4-A)*%
X105783138Y-59778803D03*
D14*
X91398771Y-64908922D03*
%TO.P,SWL4,1,1*%
%TO.N,COL_3*%
X95958149Y-67845259D03*
D13*
X94790634Y-55606589D03*
%TD*%
D15*
%TO.P,SWL2,2,2*%
%TO.N,Net-(DL2-A)*%
X67498401Y-50871352D03*
D14*
X53506933Y-56992377D03*
%TO.P,SWL2,1,1*%
%TO.N,COL_1*%
X58260033Y-59603515D03*
D15*
X56241636Y-47476100D03*
%TD*%
D12*
%TO.P,H2,1,1*%
%TO.N,unconnected-(H2-Pad1)*%
X46629404Y-78141236D03*
D11*
X46629404Y-78141236D03*
%TD*%
D12*
%TO.P,H1,1,1*%
%TO.N,unconnected-(H1-Pad1)*%
X68876751Y-54735836D03*
D11*
X68876751Y-54735836D03*
%TD*%
D16*
%TO.P,SWL26,1,1*%
%TO.N,COL_7*%
X218280954Y-67124491D03*
D14*
X223563930Y-78225765D03*
%TO.P,SWL26,2,2*%
%TO.N,Net-(DL26-A)*%
X218275230Y-77025909D03*
D16*
X230037509Y-67285431D03*
%TD*%
D17*
%TO.P,BAT+1,1,1*%
%TO.N,VBAT*%
X154331689Y-95419787D03*
%TD*%
D18*
%TO.P,SWL35,1,1*%
%TO.N,COL_6*%
X187706432Y-121548693D03*
D14*
X196161323Y-130474103D03*
%TO.P,SWL35,2,2*%
%TO.N,Net-(DL35-A)*%
X190760695Y-130967271D03*
D18*
X198937314Y-118068781D03*
%TD*%
D16*
%TO.P,SWL31,1,1*%
%TO.N,COL_7*%
X221232973Y-83866223D03*
D14*
X226515949Y-94967497D03*
%TO.P,SWL31,2,2*%
%TO.N,Net-(DL31-A)*%
X221227249Y-93767641D03*
D16*
X232989528Y-84027163D03*
%TD*%
D13*
%TO.P,SWL10,1,1*%
%TO.N,COL_4*%
X109356777Y-76655757D03*
D14*
X110524292Y-88894427D03*
%TO.P,SWL10,2,2*%
%TO.N,Net-(DL10-A)*%
X105964914Y-85958090D03*
D13*
X120349281Y-80827971D03*
%TD*%
D19*
%TO.P,SWL36,1,1*%
%TO.N,COL_7*%
X206780624Y-112896099D03*
D14*
X213557185Y-123154087D03*
%TO.P,SWL36,2,2*%
%TO.N,Net-(DL36-A)*%
X208152967Y-122701955D03*
D19*
X218445164Y-111419277D03*
%TD*%
D20*
%TO.P,SWL23,1,1*%
%TO.N,COL_9*%
X258085720Y-52184368D03*
D14*
X261772284Y-63912854D03*
%TO.P,SWL23,2,2*%
%TO.N,Net-(DL23-A)*%
X256702041Y-61988631D03*
D20*
X269705463Y-53979939D03*
%TD*%
D21*
%TO.P,SWL1,1,1*%
%TO.N,COL_0*%
X34747145Y-52201217D03*
D14*
X37606591Y-64158294D03*
%TO.P,SWL1,2,2*%
%TO.N,Net-(DL1-A)*%
X32682926Y-61885076D03*
D21*
X46213330Y-54802966D03*
%TD*%
D22*
%TO.P,RSW1,1,1*%
%TO.N,GND*%
X168390973Y-58714221D03*
%TO.P,RSW1,2,2*%
%TO.N,RESET*%
X163410000Y-59150000D03*
D23*
%TO.P,RSW1,MP*%
%TO.N,N/C*%
X162631694Y-61727642D03*
X169605057Y-61117552D03*
%TD*%
D13*
%TO.P,SWL3,1,1*%
%TO.N,COL_2*%
X77602404Y-49428017D03*
D14*
X78769919Y-61666687D03*
%TO.P,SWL3,2,2*%
%TO.N,Net-(DL3-A)*%
X74210541Y-58730350D03*
D13*
X88594908Y-53600231D03*
%TD*%
D24*
%TO.P,SWL27,1,1*%
%TO.N,COL_8*%
X238410092Y-64935020D03*
D14*
X242905814Y-76377774D03*
%TO.P,SWL27,2,2*%
%TO.N,Net-(DL27-A)*%
X237713695Y-74811924D03*
D24*
X250126783Y-65915665D03*
%TD*%
D16*
%TO.P,SWL21,1,1*%
%TO.N,COL_7*%
X215328935Y-50382759D03*
D14*
X220611911Y-61484033D03*
%TO.P,SWL21,2,2*%
%TO.N,Net-(DL21-A)*%
X215323211Y-60284177D03*
D16*
X227085490Y-50543699D03*
%TD*%
D20*
%TO.P,SWL28,1,1*%
%TO.N,COL_9*%
X258682503Y-69273950D03*
D14*
X262369067Y-81002436D03*
%TO.P,SWL28,2,2*%
%TO.N,Net-(DL28-A)*%
X257298824Y-79078213D03*
D20*
X270302246Y-71069521D03*
%TD*%
D15*
%TO.P,SWL7,1,1*%
%TO.N,COL_1*%
X54464652Y-64382972D03*
D14*
X56483049Y-76510387D03*
%TO.P,SWL7,2,2*%
%TO.N,Net-(DL7-A)*%
X51729949Y-73899249D03*
D15*
X65721417Y-67778224D03*
%TD*%
D16*
%TO.P,SWL25,1,1*%
%TO.N,COL_6*%
X201092724Y-73303062D03*
D14*
X206375700Y-84404336D03*
%TO.P,SWL25,2,2*%
%TO.N,Net-(DL25-A)*%
X201087000Y-83204480D03*
D16*
X212849279Y-73464002D03*
%TD*%
%TO.P,SWL20,1,1*%
%TO.N,COL_6*%
X198140705Y-56561331D03*
D14*
X203423681Y-67662605D03*
%TO.P,SWL20,2,2*%
%TO.N,Net-(DL20-A)*%
X198134981Y-66462749D03*
D16*
X209897260Y-56722271D03*
%TD*%
D17*
%TO.P,BATGND1,1,1*%
%TO.N,GND*%
X145041689Y-95419787D03*
%TD*%
D16*
%TO.P,SWL24,1,1*%
%TO.N,COL_5*%
X183591927Y-77708980D03*
D14*
X188874903Y-88810254D03*
%TO.P,SWL24,2,2*%
%TO.N,Net-(DL24-A)*%
X183586203Y-87610398D03*
D16*
X195348482Y-77869920D03*
%TD*%
D25*
%TO.P,PSW1,*%
%TO.N,*%
X132225774Y-58068723D03*
X135210000Y-58380000D03*
%TD*%
D16*
%TO.P,SWL19,1,1*%
%TO.N,COL_5*%
X180639908Y-60967248D03*
D14*
X185922884Y-72068522D03*
%TO.P,SWL19,2,2*%
%TO.N,Net-(DL19-A)*%
X180634184Y-70868666D03*
D16*
X192396463Y-61128188D03*
%TD*%
D26*
%TO.P,SWL18,1,1*%
%TO.N,COL_4*%
X118060856Y-131084619D03*
D14*
X129646271Y-135198776D03*
%TO.P,SWL18,2,2*%
%TO.N,Net-(DL18-A)*%
X125058170Y-138090026D03*
D26*
X126487799Y-122885280D03*
%TD*%
D13*
%TO.P,SWL14,1,1*%
%TO.N,COL_3*%
X88903961Y-88991572D03*
D14*
X90071476Y-101230242D03*
%TO.P,SWL14,2,2*%
%TO.N,Net-(DL14-A)*%
X85512098Y-98293905D03*
D13*
X99896465Y-93163786D03*
%TD*%
%TO.P,SWL5,1,1*%
%TO.N,COL_4*%
X112291431Y-60012506D03*
D14*
X113458946Y-72251176D03*
%TO.P,SWL5,2,2*%
%TO.N,Net-(DL5-A)*%
X108899568Y-69314839D03*
D13*
X123283935Y-64184720D03*
%TD*%
D24*
%TO.P,SWL22,1,1*%
%TO.N,COL_8*%
X236622655Y-47928695D03*
D14*
X241118377Y-59371449D03*
%TO.P,SWL22,2,2*%
%TO.N,Net-(DL22-A)*%
X235926258Y-57805599D03*
D24*
X248339346Y-48909340D03*
%TD*%
D16*
%TO.P,SWL30,1,1*%
%TO.N,COL_6*%
X204044743Y-90044794D03*
D14*
X209327719Y-101146068D03*
%TO.P,SWL30,2,2*%
%TO.N,Net-(DL30-A)*%
X204039019Y-99946212D03*
D16*
X215801298Y-90205734D03*
%TD*%
%TO.P,SWL29,1,1*%
%TO.N,COL_5*%
X186543946Y-94450712D03*
D14*
X191826922Y-105551986D03*
%TO.P,SWL29,2,2*%
%TO.N,Net-(DL29-A)*%
X186538222Y-104352130D03*
D16*
X198300501Y-94611652D03*
%TD*%
D13*
%TO.P,SWL13,1,1*%
%TO.N,COL_2*%
X71715731Y-82813000D03*
D14*
X72883246Y-95051670D03*
%TO.P,SWL13,2,2*%
%TO.N,Net-(DL13-A)*%
X68323868Y-92115333D03*
D13*
X82708235Y-86985214D03*
%TD*%
D15*
%TO.P,SWL12,1,1*%
%TO.N,COL_1*%
X52698120Y-81190393D03*
D14*
X54716517Y-93317808D03*
%TO.P,SWL12,2,2*%
%TO.N,Net-(DL12-A)*%
X49963417Y-90706670D03*
D15*
X63954885Y-84585645D03*
%TD*%
D27*
%TO.P,SW1,A,A*%
%TO.N,A*%
X147300000Y-117150000D03*
%TO.P,SW1,B,B*%
%TO.N,B*%
X152300000Y-117150000D03*
%TO.P,SW1,C,C*%
%TO.N,GND*%
X149800000Y-117150000D03*
%TO.P,SW1,S1,S1*%
%TO.N,COL_8*%
X152300000Y-102050000D03*
%TO.P,SW1,S2,S2*%
%TO.N,SW37_2*%
X147300000Y-102050000D03*
%TD*%
D13*
%TO.P,SWL9,1,1*%
%TO.N,COL_3*%
X91855980Y-72249840D03*
D14*
X93023495Y-84488510D03*
%TO.P,SWL9,2,2*%
%TO.N,Net-(DL9-A)*%
X88464117Y-81552173D03*
D13*
X102848484Y-76422054D03*
%TD*%
%TO.P,SWL8,1,1*%
%TO.N,COL_2*%
X74650385Y-66169749D03*
D14*
X75817900Y-78408419D03*
%TO.P,SWL8,2,2*%
%TO.N,Net-(DL8-A)*%
X71258522Y-75472082D03*
D13*
X85642889Y-70341963D03*
%TD*%
D21*
%TO.P,SWL11,1,1*%
%TO.N,COL_0*%
X33564051Y-86080565D03*
D14*
X36423497Y-98037642D03*
%TO.P,SWL11,2,2*%
%TO.N,Net-(DL11-A)*%
X31499832Y-95764424D03*
D21*
X45030236Y-88682314D03*
%TD*%
D28*
%TO.P,SWL34,1,1*%
%TO.N,COL_5*%
X177605598Y-125731919D03*
D14*
X169777109Y-135211523D03*
%TO.P,SWL34,2,2*%
%TO.N,Net-(DL34-A)*%
X168629446Y-129911252D03*
D28*
X182428272Y-136454994D03*
%TD*%
D21*
%TO.P,SWL6,1,1*%
%TO.N,COL_0*%
X34153853Y-69190860D03*
D14*
X37013299Y-81147937D03*
%TO.P,SWL6,2,2*%
%TO.N,Net-(DL6-A)*%
X32089634Y-78874719D03*
D21*
X45620038Y-71792609D03*
%TD*%
D29*
%TO.P,SWL16,1,1*%
%TO.N,COL_2*%
X86413042Y-110860391D03*
D14*
X85865901Y-123142440D03*
%TO.P,SWL16,2,2*%
%TO.N,Net-(DL16-A)*%
X81759554Y-119600138D03*
D29*
X96717907Y-116521862D03*
%TD*%
D20*
%TO.P,SWL33,1,1*%
%TO.N,COL_9*%
X259272304Y-86163655D03*
D14*
X262958868Y-97892141D03*
%TO.P,SWL33,2,2*%
%TO.N,Net-(DL33-A)*%
X257888625Y-95967918D03*
D20*
X270892047Y-87959226D03*
%TD*%
D13*
%TO.P,SWL15,1,1*%
%TO.N,COL_4*%
X106404758Y-93397489D03*
D14*
X107572273Y-105636159D03*
%TO.P,SWL15,2,2*%
%TO.N,Net-(DL15-A)*%
X103012895Y-102699822D03*
D13*
X117397262Y-97569703D03*
%TD*%
D30*
%TO.P,SWL17,1,1*%
%TO.N,COL_3*%
X105933642Y-118460908D03*
D14*
X103262058Y-130461357D03*
%TO.P,SWL17,2,2*%
%TO.N,Net-(DL17-A)*%
X99833210Y-126259809D03*
D30*
X115098850Y-125825790D03*
%TD*%
D24*
%TO.P,SWL32,1,1*%
%TO.N,COL_8*%
X240176623Y-81742440D03*
D14*
X244672345Y-93185194D03*
%TO.P,SWL32,2,2*%
%TO.N,Net-(DL32-A)*%
X239480226Y-91619344D03*
D24*
X251893314Y-82723085D03*
%TD*%
D31*
%TO.P,DL3,1,K*%
%TO.N,ROW_0*%
X85083864Y-59835269D03*
%TO.P,DL3,2,A*%
%TO.N,Net-(DL3-A)*%
X81735518Y-59244865D03*
%TD*%
D32*
%TO.P,DL34,1,K*%
%TO.N,ROW_3*%
X175536752Y-138381149D03*
%TO.P,DL34,2,A*%
%TO.N,Net-(DL34-A)*%
X173586592Y-135596029D03*
%TD*%
D33*
%TO.P,DL22,1,K*%
%TO.N,ROW_0*%
X246682924Y-55870618D03*
%TO.P,DL22,2,A*%
%TO.N,Net-(DL22-A)*%
X243301550Y-56226016D03*
%TD*%
D34*
%TO.P,DL21,1,K*%
%TO.N,ROW_0*%
X225918697Y-57603566D03*
%TO.P,DL21,2,A*%
%TO.N,Net-(DL21-A)*%
X222570351Y-58193970D03*
%TD*%
D35*
%TO.P,DL23,1,K*%
%TO.N,ROW_0*%
X267567484Y-60808712D03*
%TO.P,DL23,2,A*%
%TO.N,Net-(DL23-A)*%
X264169552Y-60927370D03*
%TD*%
D31*
%TO.P,DL9,1,K*%
%TO.N,ROW_1*%
X99337440Y-82657091D03*
%TO.P,DL9,2,A*%
%TO.N,Net-(DL9-A)*%
X95989094Y-82066687D03*
%TD*%
D34*
%TO.P,DL29,1,K*%
%TO.N,ROW_2*%
X197133708Y-101671518D03*
%TO.P,DL29,2,A*%
%TO.N,Net-(DL29-A)*%
X193785362Y-102261922D03*
%TD*%
D36*
%TO.P,DL6,1,K*%
%TO.N,ROW_1*%
X43010913Y-78455611D03*
%TO.P,DL6,2,A*%
%TO.N,Net-(DL6-A)*%
X39612983Y-78336953D03*
%TD*%
D31*
%TO.P,DL14,1,K*%
%TO.N,ROW_2*%
X96385421Y-99398823D03*
%TO.P,DL14,2,A*%
%TO.N,Net-(DL14-A)*%
X93037075Y-98808419D03*
%TD*%
D37*
%TO.P,DL37,1,K*%
%TO.N,ROW_3*%
X155910000Y-111360000D03*
%TO.P,DL37,2,A*%
%TO.N,SW37_2*%
X155910000Y-107960000D03*
%TD*%
D38*
%TO.P,DL35,1,K*%
%TO.N,ROW_3*%
X200009247Y-125143674D03*
%TO.P,DL35,2,A*%
%TO.N,Net-(DL35-A)*%
X197007225Y-126739876D03*
%TD*%
D39*
%TO.P,DL16,1,K*%
%TO.N,ROW_3*%
X92373284Y-122207578D03*
%TO.P,DL16,2,A*%
%TO.N,Net-(DL16-A)*%
X89139692Y-121156920D03*
%TD*%
D31*
%TO.P,DL4,1,K*%
%TO.N,ROW_0*%
X102272094Y-66013840D03*
%TO.P,DL4,2,A*%
%TO.N,Net-(DL4-A)*%
X98923748Y-65423436D03*
%TD*%
D34*
%TO.P,DL31,1,K*%
%TO.N,ROW_2*%
X231822735Y-91087031D03*
%TO.P,DL31,2,A*%
%TO.N,Net-(DL31-A)*%
X228474389Y-91677433D03*
%TD*%
D33*
%TO.P,DL32,1,K*%
%TO.N,ROW_2*%
X250236892Y-89684362D03*
%TO.P,DL32,2,A*%
%TO.N,Net-(DL32-A)*%
X246855518Y-90039760D03*
%TD*%
D31*
%TO.P,DL10,1,K*%
%TO.N,ROW_1*%
X116838237Y-87063009D03*
%TO.P,DL10,2,A*%
%TO.N,Net-(DL10-A)*%
X113489891Y-86472605D03*
%TD*%
D40*
%TO.P,DL36,1,K*%
%TO.N,ROW_3*%
X218272269Y-118572824D03*
%TO.P,DL36,2,A*%
%TO.N,Net-(DL36-A)*%
X215038677Y-119623482D03*
%TD*%
D31*
%TO.P,DL8,1,K*%
%TO.N,ROW_1*%
X82131845Y-76577001D03*
%TO.P,DL8,2,A*%
%TO.N,Net-(DL8-A)*%
X78783499Y-75986597D03*
%TD*%
D34*
%TO.P,DL24,1,K*%
%TO.N,ROW_1*%
X194181689Y-84929787D03*
%TO.P,DL24,2,A*%
%TO.N,Net-(DL24-A)*%
X190833343Y-85520191D03*
%TD*%
D31*
%TO.P,DL5,1,K*%
%TO.N,ROW_0*%
X119772891Y-70419758D03*
%TO.P,DL5,2,A*%
%TO.N,Net-(DL5-A)*%
X116424545Y-69829354D03*
%TD*%
D35*
%TO.P,DL28,1,K*%
%TO.N,ROW_1*%
X268164264Y-77898295D03*
%TO.P,DL28,2,A*%
%TO.N,Net-(DL28-A)*%
X264766334Y-78016953D03*
%TD*%
D34*
%TO.P,DL20,1,K*%
%TO.N,ROW_0*%
X208730467Y-63782139D03*
%TO.P,DL20,2,A*%
%TO.N,Net-(DL20-A)*%
X205382121Y-64372541D03*
%TD*%
D41*
%TO.P,DL18,1,K*%
%TO.N,ROW_3*%
X130654831Y-128702409D03*
%TO.P,DL18,2,A*%
%TO.N,Net-(DL18-A)*%
X128704671Y-131487525D03*
%TD*%
D31*
%TO.P,DL15,1,K*%
%TO.N,ROW_2*%
X113886218Y-103804740D03*
%TO.P,DL15,2,A*%
%TO.N,Net-(DL15-A)*%
X110537872Y-103214336D03*
%TD*%
D34*
%TO.P,DL30,1,K*%
%TO.N,ROW_2*%
X214634505Y-97265601D03*
%TO.P,DL30,2,A*%
%TO.N,Net-(DL30-A)*%
X211286159Y-97856005D03*
%TD*%
D36*
%TO.P,DL1,1,K*%
%TO.N,ROW_0*%
X43604205Y-61465967D03*
%TO.P,DL1,2,A*%
%TO.N,Net-(DL1-A)*%
X40206275Y-61347309D03*
%TD*%
D42*
%TO.P,DL2,1,K*%
%TO.N,ROW_0*%
X64430844Y-57336119D03*
%TO.P,DL2,2,A*%
%TO.N,Net-(DL2-A)*%
X61049470Y-56980723D03*
%TD*%
%TO.P,DL12,1,K*%
%TO.N,ROW_2*%
X60887329Y-91050412D03*
%TO.P,DL12,2,A*%
%TO.N,Net-(DL12-A)*%
X57505955Y-90695016D03*
%TD*%
%TO.P,DL7,1,K*%
%TO.N,ROW_1*%
X62653860Y-74242992D03*
%TO.P,DL7,2,A*%
%TO.N,Net-(DL7-A)*%
X59272486Y-73887596D03*
%TD*%
D35*
%TO.P,DL33,1,K*%
%TO.N,ROW_2*%
X268754066Y-94788001D03*
%TO.P,DL33,2,A*%
%TO.N,Net-(DL33-A)*%
X265356136Y-94906659D03*
%TD*%
D34*
%TO.P,DL26,1,K*%
%TO.N,ROW_1*%
X228870716Y-74345298D03*
%TO.P,DL26,2,A*%
%TO.N,Net-(DL26-A)*%
X225522370Y-74935702D03*
%TD*%
D31*
%TO.P,DL13,1,K*%
%TO.N,ROW_2*%
X79197191Y-93220252D03*
%TO.P,DL13,2,A*%
%TO.N,Net-(DL13-A)*%
X75848845Y-92629848D03*
%TD*%
D43*
%TO.P,DL17,1,K*%
%TO.N,ROW_3*%
X109832915Y-130670690D03*
%TO.P,DL17,2,A*%
%TO.N,Net-(DL17-A)*%
X106830893Y-129074486D03*
%TD*%
D33*
%TO.P,DL27,1,K*%
%TO.N,ROW_1*%
X248470360Y-72876942D03*
%TO.P,DL27,2,A*%
%TO.N,Net-(DL27-A)*%
X245088986Y-73232340D03*
%TD*%
D36*
%TO.P,DL11,1,K*%
%TO.N,ROW_2*%
X42421113Y-95345316D03*
%TO.P,DL11,2,A*%
%TO.N,Net-(DL11-A)*%
X39023183Y-95226658D03*
%TD*%
D34*
%TO.P,DL19,1,K*%
%TO.N,ROW_0*%
X191229670Y-68188055D03*
%TO.P,DL19,2,A*%
%TO.N,Net-(DL19-A)*%
X187881324Y-68778459D03*
%TD*%
%TO.P,DL25,1,K*%
%TO.N,ROW_1*%
X211682487Y-80523869D03*
%TO.P,DL25,2,A*%
%TO.N,Net-(DL25-A)*%
X208334139Y-81114273D03*
%TD*%
D44*
%TO.N,GND*%
X168390973Y-58714221D02*
X167490973Y-57814221D01*
X167490973Y-57814221D02*
X155452307Y-57814221D01*
X155452307Y-57814221D02*
X142062065Y-71204463D01*
%TO.N,RESET*%
X163410000Y-59150000D02*
X158390000Y-59150000D01*
X158390000Y-59150000D02*
X156124765Y-61415235D01*
X156124765Y-67487163D02*
X157302065Y-68664463D01*
X156124765Y-61415235D02*
X156124765Y-67487163D01*
%TO.N,Net-(DL1-A)*%
X33220693Y-61347309D02*
X32682926Y-61885076D01*
X41169570Y-60384014D02*
X40206275Y-61347309D01*
X40206275Y-61347309D02*
X33220693Y-61347309D01*
X46213330Y-57249396D02*
X43078712Y-60384014D01*
X43078712Y-60384014D02*
X41169570Y-60384014D01*
X46213330Y-54802966D02*
X46213330Y-57249396D01*
%TO.N,Net-(DL2-A)*%
X61049470Y-56980723D02*
X53518587Y-56980723D01*
X53518587Y-56980723D02*
X53506933Y-56992377D01*
X67498401Y-52858706D02*
X67498401Y-50871352D01*
X64717320Y-55639787D02*
X67498401Y-52858706D01*
X62390406Y-55639787D02*
X64717320Y-55639787D01*
X61049470Y-56980723D02*
X62390406Y-55639787D01*
%TO.N,Net-(DL3-A)*%
X81735518Y-59244865D02*
X74725056Y-59244865D01*
X82967097Y-58013286D02*
X81735518Y-59244865D01*
X86585653Y-55609486D02*
X86585653Y-57136362D01*
X85708729Y-58013286D02*
X82967097Y-58013286D01*
X88594908Y-53600231D02*
X86585653Y-55609486D01*
X74725056Y-59244865D02*
X74210541Y-58730350D01*
X86585653Y-57136362D02*
X85708729Y-58013286D01*
%TO.N,Net-(DL4-A)*%
X105783138Y-59778803D02*
X105783138Y-61305679D01*
X98923748Y-65423436D02*
X91913285Y-65423436D01*
X102896959Y-64191858D02*
X100155326Y-64191858D01*
X91913285Y-65423436D02*
X91398771Y-64908922D01*
X100155326Y-64191858D02*
X98923748Y-65423436D01*
X105783138Y-61305679D02*
X102896959Y-64191858D01*
%TO.N,Net-(DL5-A)*%
X117656124Y-68597775D02*
X116424545Y-69829354D01*
X109414083Y-69829354D02*
X108899568Y-69314839D01*
X123283935Y-64184720D02*
X123283935Y-65711596D01*
X123283935Y-65711596D02*
X120397756Y-68597775D01*
X120397756Y-68597775D02*
X117656124Y-68597775D01*
X116424545Y-69829354D02*
X109414083Y-69829354D01*
%TO.N,Net-(DL6-A)*%
X45620038Y-71792609D02*
X45620038Y-74239039D01*
X45620038Y-74239039D02*
X42485419Y-77373658D01*
X42485419Y-77373658D02*
X40576278Y-77373658D01*
X32627400Y-78336953D02*
X32089634Y-78874719D01*
X39612983Y-78336953D02*
X32627400Y-78336953D01*
X40576278Y-77373658D02*
X39612983Y-78336953D01*
%TO.N,Net-(DL7-A)*%
X63691961Y-72419515D02*
X60740567Y-72419515D01*
X65721417Y-67778224D02*
X65721417Y-70390059D01*
X65721417Y-70390059D02*
X63691961Y-72419515D01*
X60740567Y-72419515D02*
X59272486Y-73887596D01*
X59272486Y-73887596D02*
X51741602Y-73887596D01*
X51741602Y-73887596D02*
X51729949Y-73899249D01*
%TO.N,Net-(DL8-A)*%
X78783499Y-75986597D02*
X71773037Y-75986597D01*
X85642889Y-70341963D02*
X85642889Y-71868839D01*
X82756710Y-74755018D02*
X80015078Y-74755018D01*
X80015078Y-74755018D02*
X78783499Y-75986597D01*
X71773037Y-75986597D02*
X71258522Y-75472082D01*
X85642889Y-71868839D02*
X82756710Y-74755018D01*
%TO.N,Net-(DL9-A)*%
X88978631Y-82066687D02*
X88464117Y-81552173D01*
X102848484Y-76422054D02*
X102848484Y-77948930D01*
X97220672Y-80835109D02*
X95989094Y-82066687D01*
X102848484Y-77948930D02*
X99962305Y-80835109D01*
X95989094Y-82066687D02*
X88978631Y-82066687D01*
X99962305Y-80835109D02*
X97220672Y-80835109D01*
%TO.N,Net-(DL10-A)*%
X106479429Y-86472605D02*
X105964914Y-85958090D01*
X120349281Y-80827971D02*
X120349281Y-82354847D01*
X113489891Y-86472605D02*
X106479429Y-86472605D01*
X114721470Y-85241026D02*
X113489891Y-86472605D01*
X117463102Y-85241026D02*
X114721470Y-85241026D01*
X120349281Y-82354847D02*
X117463102Y-85241026D01*
%TO.N,Net-(DL11-A)*%
X40714758Y-93535083D02*
X42623897Y-93535083D01*
X39023183Y-95226658D02*
X40714758Y-93535083D01*
X39023183Y-95226658D02*
X32037598Y-95226658D01*
X45030236Y-91128744D02*
X45030236Y-88682314D01*
X42623897Y-93535083D02*
X45030236Y-91128744D01*
X32037598Y-95226658D02*
X31499832Y-95764424D01*
%TO.N,Net-(DL12-A)*%
X58974035Y-89226936D02*
X57505955Y-90695016D01*
X63954885Y-86572999D02*
X61300948Y-89226936D01*
X63954885Y-84585645D02*
X63954885Y-86572999D01*
X49975071Y-90695016D02*
X49963417Y-90706670D01*
X61300948Y-89226936D02*
X58974035Y-89226936D01*
X57505955Y-90695016D02*
X49975071Y-90695016D01*
%TO.N,Net-(DL13-A)*%
X79600538Y-91619787D02*
X76858906Y-91619787D01*
X68838383Y-92629848D02*
X68323868Y-92115333D01*
X75848845Y-92629848D02*
X68838383Y-92629848D01*
X82708235Y-88512090D02*
X79600538Y-91619787D01*
X82708235Y-86985214D02*
X82708235Y-88512090D01*
X76858906Y-91619787D02*
X75848845Y-92629848D01*
%TO.N,Net-(DL14-A)*%
X93037075Y-98808419D02*
X86026612Y-98808419D01*
X86026612Y-98808419D02*
X85512098Y-98293905D01*
X99896465Y-93163786D02*
X99896465Y-94690662D01*
X97010286Y-97576841D02*
X94268653Y-97576841D01*
X94268653Y-97576841D02*
X93037075Y-98808419D01*
X99896465Y-94690662D02*
X97010286Y-97576841D01*
%TO.N,Net-(DL15-A)*%
X117397262Y-97569703D02*
X117397262Y-99096579D01*
X117397262Y-99096579D02*
X114511083Y-101982758D01*
X111769450Y-101982758D02*
X110537872Y-103214336D01*
X103527409Y-103214336D02*
X103012895Y-102699822D01*
X114511083Y-101982758D02*
X111769450Y-101982758D01*
X110537872Y-103214336D02*
X103527409Y-103214336D01*
%TO.N,Net-(DL17-A)*%
X106830893Y-129074486D02*
X105496194Y-127739787D01*
X115098850Y-125825790D02*
X111850154Y-129074486D01*
X101313188Y-127739787D02*
X99833210Y-126259809D01*
X111850154Y-129074486D02*
X106830893Y-129074486D01*
X105496194Y-127739787D02*
X101313188Y-127739787D01*
%TO.N,Net-(DL18-A)*%
X126487799Y-122885280D02*
X126487799Y-129270653D01*
X126487799Y-129270653D02*
X128704671Y-131487525D01*
X128704671Y-131487525D02*
X125058170Y-135134026D01*
X125058170Y-135134026D02*
X125058170Y-138090026D01*
%TO.N,Net-(DL19-A)*%
X187881324Y-68778459D02*
X182724391Y-68778459D01*
X182724391Y-68778459D02*
X180634184Y-70868666D01*
X192396463Y-61128188D02*
X187881324Y-65643327D01*
X187881324Y-65643327D02*
X187881324Y-68778459D01*
%TO.N,Net-(DL20-A)*%
X200225189Y-64372541D02*
X198134981Y-66462749D01*
X209897260Y-56722271D02*
X205382121Y-61237410D01*
X205382121Y-64372541D02*
X200225189Y-64372541D01*
X205382121Y-61237410D02*
X205382121Y-64372541D01*
%TO.N,RESET*%
X158160731Y-68944463D02*
X157302065Y-68944463D01*
%TO.N,ROW_0*%
X99123675Y-69162259D02*
X102272094Y-66013840D01*
X246682924Y-55870618D02*
X241865093Y-60688449D01*
X119772891Y-70419758D02*
X124632920Y-75279787D01*
X229003580Y-60688449D02*
X225918697Y-57603566D01*
X156046741Y-75279787D02*
X157302065Y-74024463D01*
X85083864Y-61023635D02*
X93222488Y-69162259D01*
X124632920Y-75279787D02*
X156046741Y-75279787D01*
X192021220Y-68979605D02*
X203969201Y-68979605D01*
X191229670Y-68188055D02*
X191229670Y-68949625D01*
X70078412Y-62983687D02*
X81935446Y-62983687D01*
X93222488Y-69162259D02*
X99123675Y-69162259D01*
X191229670Y-68949625D02*
X186154832Y-74024463D01*
X191229670Y-68188055D02*
X192021220Y-68979605D01*
X81935446Y-62983687D02*
X85083864Y-59835269D01*
X64430844Y-57336119D02*
X70078412Y-62983687D01*
X208730467Y-63782139D02*
X220176325Y-63782139D01*
X60300996Y-61465967D02*
X64430844Y-57336119D01*
X256042160Y-65229854D02*
X263146342Y-65229854D01*
X220176325Y-63782139D02*
X225918697Y-58039767D01*
X186154832Y-74024463D02*
X157302065Y-74024463D01*
X225918697Y-58039767D02*
X225918697Y-57603566D01*
X208730467Y-64218339D02*
X208730467Y-63782139D01*
X203969201Y-68979605D02*
X208730467Y-64218339D01*
X109826430Y-73568176D02*
X116624473Y-73568176D01*
X85083864Y-59835269D02*
X85083864Y-61023635D01*
X116624473Y-73568176D02*
X119772891Y-70419758D01*
X43604205Y-61465967D02*
X60300996Y-61465967D01*
X263146342Y-65229854D02*
X267567484Y-60808712D01*
X246682924Y-55870618D02*
X256042160Y-65229854D01*
X241865093Y-60688449D02*
X229003580Y-60688449D01*
X102272094Y-66013840D02*
X109826430Y-73568176D01*
%TO.N,ROW_1*%
X106891776Y-90211427D02*
X113689819Y-90211427D01*
X257912854Y-82319436D02*
X263743123Y-82319436D01*
X243652528Y-77694774D02*
X248470360Y-72876942D01*
X263743123Y-82319436D02*
X268164264Y-77898295D01*
X189420423Y-90127254D02*
X170864856Y-90127254D01*
X78983427Y-79725419D02*
X82131845Y-76577001D01*
X43010913Y-78455611D02*
X58441241Y-78455611D01*
X228870716Y-74345298D02*
X232220192Y-77694774D01*
X228870716Y-75106868D02*
X228870716Y-74345298D01*
X58441241Y-78455611D02*
X62653860Y-74242992D01*
X90287834Y-85805510D02*
X96189021Y-85805510D01*
X211682487Y-80523869D02*
X223453715Y-80523869D01*
X132253165Y-87063009D02*
X141574411Y-77741763D01*
X194181689Y-85365988D02*
X189420423Y-90127254D01*
X170864856Y-90127254D02*
X157302065Y-76564463D01*
X194181689Y-84929787D02*
X194181689Y-85365988D01*
X232220192Y-77694774D02*
X243652528Y-77694774D01*
X211682487Y-81285439D02*
X211682487Y-80523869D01*
X99337440Y-82657091D02*
X106891776Y-90211427D01*
X156124765Y-77741763D02*
X157302065Y-76564463D01*
X116838237Y-87063009D02*
X132253165Y-87063009D01*
X194181689Y-84929787D02*
X194973238Y-85721336D01*
X82131845Y-77649521D02*
X90287834Y-85805510D01*
X223453715Y-80523869D02*
X228870716Y-75106868D01*
X96189021Y-85805510D02*
X99337440Y-82657091D01*
X68136287Y-79725419D02*
X78983427Y-79725419D01*
X113689819Y-90211427D02*
X116838237Y-87063009D01*
X141574411Y-77741763D02*
X156124765Y-77741763D01*
X194973238Y-85721336D02*
X207246590Y-85721336D01*
X207246590Y-85721336D02*
X211682487Y-81285439D01*
X62653860Y-74242992D02*
X68136287Y-79725419D01*
X248470360Y-72876942D02*
X257912854Y-82319436D01*
X82131845Y-76577001D02*
X82131845Y-77649521D01*
%TO.N,ROW_2*%
X192272443Y-106968985D02*
X185166587Y-106968985D01*
X231822735Y-91848601D02*
X231822735Y-91087031D01*
X231822735Y-91087031D02*
X235237898Y-94502194D01*
X56592425Y-95345316D02*
X60887329Y-91050412D01*
X250236892Y-90745805D02*
X258700228Y-99209141D01*
X258700228Y-99209141D02*
X264332926Y-99209141D01*
X79197191Y-93220252D02*
X79197191Y-94408618D01*
X197133708Y-102107720D02*
X192272443Y-106968985D01*
X103939757Y-106953159D02*
X110737799Y-106953159D01*
X197133708Y-101671518D02*
X197133708Y-102107720D01*
X197925258Y-102463068D02*
X209873239Y-102463068D01*
X214634505Y-97701802D02*
X214634505Y-97265601D01*
X118236834Y-103804740D02*
X141759811Y-80281763D01*
X96385421Y-99398823D02*
X103939757Y-106953159D01*
X214634505Y-97265601D02*
X226405735Y-97265601D01*
X79197191Y-94408618D02*
X87335815Y-102547242D01*
X141759811Y-80281763D02*
X156124765Y-80281763D01*
X245419060Y-94502194D02*
X250236892Y-89684362D01*
X93237002Y-102547242D02*
X96385421Y-99398823D01*
X185166587Y-106968985D02*
X157302065Y-79104463D01*
X235237898Y-94502194D02*
X245419060Y-94502194D01*
X110737799Y-106953159D02*
X113886218Y-103804740D01*
X250236892Y-89684362D02*
X250236892Y-90745805D01*
X156124765Y-80281763D02*
X157302065Y-79104463D01*
X197133708Y-101671518D02*
X197925258Y-102463068D01*
X264332926Y-99209141D02*
X268754066Y-94788001D01*
X226405735Y-97265601D02*
X231822735Y-91848601D01*
X42421113Y-95345316D02*
X56592425Y-95345316D01*
X113886218Y-103804740D02*
X118236834Y-103804740D01*
X87335815Y-102547242D02*
X93237002Y-102547242D01*
X209873239Y-102463068D02*
X214634505Y-97701802D01*
%TO.N,ROW_3*%
X189470583Y-139027363D02*
X176182966Y-139027363D01*
X218272269Y-120301524D02*
X218272269Y-118572824D01*
X130654831Y-128702409D02*
X130654831Y-103211697D01*
X175536752Y-138381149D02*
X171084215Y-138381149D01*
X163156071Y-130453005D02*
X163156071Y-118606071D01*
X176182966Y-139027363D02*
X175536752Y-138381149D01*
X92373284Y-122207578D02*
X101944063Y-131778357D01*
X213430119Y-125143674D02*
X218272269Y-120301524D01*
X155910000Y-111360000D02*
X155106690Y-111360000D01*
X200009247Y-128488699D02*
X189470583Y-139027363D01*
X108725248Y-131778357D02*
X109832915Y-130670690D01*
X130654831Y-103211697D02*
X142062065Y-91804463D01*
X200009247Y-125143674D02*
X213430119Y-125143674D01*
X171084215Y-138381149D02*
X163156071Y-130453005D01*
X175304723Y-137626076D02*
X176291935Y-138613288D01*
X101944063Y-131778357D02*
X108725248Y-131778357D01*
X142062065Y-98315375D02*
X142062065Y-91804463D01*
X155106690Y-111360000D02*
X142062065Y-98315375D01*
X200009247Y-125143674D02*
X200009247Y-128488699D01*
X163156071Y-118606071D02*
X155910000Y-111360000D01*
%TO.N,Net-(DL16-A)*%
X87582910Y-119600138D02*
X81759554Y-119600138D01*
X89139692Y-121156920D02*
X87582910Y-119600138D01*
X96717907Y-116521862D02*
X95210868Y-118028901D01*
X95210868Y-118028901D02*
X92267711Y-118028901D01*
X92267711Y-118028901D02*
X89139692Y-121156920D01*
%TO.N,Net-(DL21-A)*%
X217413418Y-58193970D02*
X215323211Y-60284177D01*
X222570351Y-58193970D02*
X217413418Y-58193970D01*
X227085490Y-50543699D02*
X222570351Y-55058838D01*
X222570351Y-55058838D02*
X222570351Y-58193970D01*
%TO.N,Net-(DL22-A)*%
X248291309Y-48909340D02*
X243301550Y-53899099D01*
X243301550Y-53899099D02*
X243301550Y-56226016D01*
X237505838Y-56226016D02*
X235926258Y-57805596D01*
X243301550Y-56226016D02*
X237505838Y-56226016D01*
X248339346Y-48909340D02*
X248291309Y-48909340D01*
%TO.N,Net-(DL23-A)*%
X264169552Y-59018233D02*
X264169552Y-60927370D01*
X257763302Y-60927370D02*
X256702041Y-61988631D01*
X269705463Y-53979939D02*
X269207846Y-53979939D01*
X264169552Y-60927370D02*
X257763302Y-60927370D01*
X269207846Y-53979939D02*
X264169552Y-59018233D01*
%TO.N,Net-(DL24-A)*%
X190833343Y-85520191D02*
X185676410Y-85520191D01*
X190833343Y-82385059D02*
X190833343Y-85520191D01*
X185676410Y-85520191D02*
X183586203Y-87610398D01*
X195348482Y-77869920D02*
X190833343Y-82385059D01*
%TO.N,Net-(DL25-A)*%
X212849279Y-73464002D02*
X208334139Y-77979142D01*
X208334139Y-81114273D02*
X203177207Y-81114273D01*
X203177207Y-81114273D02*
X201087000Y-83204480D01*
X208334139Y-77979142D02*
X208334139Y-81114273D01*
%TO.N,Net-(DL26-A)*%
X230037509Y-67285431D02*
X225522370Y-71800570D01*
X225522370Y-74935702D02*
X220365437Y-74935702D01*
X220365437Y-74935702D02*
X218275230Y-77025909D01*
X225522370Y-71800570D02*
X225522370Y-74935702D01*
%TO.N,Net-(DL27-A)*%
X250126783Y-65915665D02*
X250078746Y-65915665D01*
X239293276Y-73232340D02*
X237713695Y-74811921D01*
X250078746Y-65915665D02*
X245088986Y-70905425D01*
X245088986Y-70905425D02*
X245088986Y-73232340D01*
X245088986Y-73232340D02*
X239293276Y-73232340D01*
%TO.N,Net-(DL28-A)*%
X264766334Y-78016953D02*
X258360084Y-78016953D01*
X258360084Y-78016953D02*
X257298824Y-79078213D01*
X264766334Y-76107816D02*
X264766334Y-78016953D01*
X269804629Y-71069521D02*
X264766334Y-76107816D01*
X270302246Y-71069521D02*
X269804629Y-71069521D01*
%TO.N,Net-(DL29-A)*%
X193785362Y-102261922D02*
X188628430Y-102261922D01*
X198300501Y-94611652D02*
X193785362Y-99126791D01*
X188628430Y-102261922D02*
X186538222Y-104352130D01*
X193785362Y-99126791D02*
X193785362Y-102261922D01*
%TO.N,Net-(DL30-A)*%
X211286159Y-97856005D02*
X206129226Y-97856005D01*
X206129226Y-97856005D02*
X204039019Y-99946212D01*
X215801298Y-90205734D02*
X211286159Y-94720873D01*
X211286159Y-94720873D02*
X211286159Y-97856005D01*
%TO.N,Net-(DL31-A)*%
X228474389Y-88542302D02*
X228474389Y-91677433D01*
X228474389Y-91677433D02*
X223317457Y-91677433D01*
X223317457Y-91677433D02*
X221227249Y-93767641D01*
X232989528Y-84027163D02*
X228474389Y-88542302D01*
%TO.N,Net-(DL32-A)*%
X246855518Y-90039760D02*
X241059807Y-90039760D01*
X251845277Y-82723085D02*
X246855518Y-87712844D01*
X246855518Y-87712844D02*
X246855518Y-90039760D01*
X241059807Y-90039760D02*
X239480226Y-91619341D01*
X251893314Y-82723085D02*
X251845277Y-82723085D01*
%TO.N,Net-(DL33-A)*%
X265356136Y-94906659D02*
X258949884Y-94906659D01*
X270892047Y-87959226D02*
X270394430Y-87959226D01*
X258949884Y-94906659D02*
X257888625Y-95967918D01*
X265356136Y-92997520D02*
X265356136Y-94906659D01*
X270394430Y-87959226D02*
X265356136Y-92997520D01*
%TO.N,Net-(DL34-A)*%
X180268944Y-136454994D02*
X178944808Y-135130858D01*
X174051763Y-135130858D02*
X173586592Y-135596029D01*
X182428272Y-136454994D02*
X180268944Y-136454994D01*
X173586592Y-135596029D02*
X168629446Y-130638883D01*
X178944808Y-135130858D02*
X174051763Y-135130858D01*
X168629446Y-130638883D02*
X168629446Y-129911252D01*
%TO.N,Net-(DL35-A)*%
X198937314Y-120293214D02*
X197007225Y-122223303D01*
X197007225Y-126739876D02*
X194988090Y-126739876D01*
X197007225Y-122223303D02*
X197007225Y-126739876D01*
X194988090Y-126739876D02*
X190760695Y-130967271D01*
X197801689Y-125945412D02*
X197007225Y-126739876D01*
X198937314Y-118068781D02*
X199449553Y-118581020D01*
X198937314Y-118068781D02*
X198937314Y-120293214D01*
%TO.N,Net-(DL36-A)*%
X218445164Y-111419277D02*
X218445164Y-116216995D01*
X215038677Y-119623482D02*
X211960204Y-122701955D01*
X211960204Y-122701955D02*
X208152967Y-122701955D01*
X218445164Y-116216995D02*
X215038677Y-119623482D01*
%TO.N,COL_0*%
X29930854Y-89713762D02*
X29930854Y-96057966D01*
X34747145Y-52201217D02*
X31113948Y-55834414D01*
X29930854Y-96057966D02*
X31910530Y-98037642D01*
X34153853Y-69190860D02*
X30520656Y-72824057D01*
X33093624Y-64158294D02*
X37606591Y-64158294D01*
X31113948Y-55834414D02*
X31113948Y-62178618D01*
X32500332Y-81147937D02*
X37013299Y-81147937D01*
X31910530Y-98037642D02*
X36423497Y-98037642D01*
X33564051Y-86080565D02*
X29930854Y-89713762D01*
X30520656Y-72824057D02*
X30520656Y-79168261D01*
X31113948Y-62178618D02*
X33093624Y-64158294D01*
X30520656Y-79168261D02*
X32500332Y-81147937D01*
%TO.N,COL_1*%
X50412949Y-74444769D02*
X52478567Y-76510387D01*
X52698120Y-81190393D02*
X52698120Y-80295316D01*
X50412949Y-68434675D02*
X50412949Y-74444769D01*
X48646417Y-91252190D02*
X50712035Y-93317808D01*
X50712035Y-93317808D02*
X54716517Y-93317808D01*
X48646417Y-85242096D02*
X48646417Y-91252190D01*
X54255551Y-59603515D02*
X58260033Y-59603515D01*
X52698120Y-81190393D02*
X48646417Y-85242096D01*
X56241636Y-47476100D02*
X52189933Y-51527803D01*
X52189933Y-57537897D02*
X54255551Y-59603515D01*
X54464652Y-64382972D02*
X50412949Y-68434675D01*
X52189933Y-51527803D02*
X52189933Y-57537897D01*
X52478567Y-76510387D02*
X56483049Y-76510387D01*
%TO.N,COL_2*%
X67006868Y-92660853D02*
X69397685Y-95051670D01*
X86413042Y-110860391D02*
X85046141Y-110860391D01*
X75284358Y-61666687D02*
X78769919Y-61666687D01*
X74650385Y-66169749D02*
X69941522Y-70878612D01*
X69941522Y-70878612D02*
X69941522Y-76017602D01*
X80442554Y-115463978D02*
X80442554Y-120145658D01*
X72893541Y-59275870D02*
X75284358Y-61666687D01*
X85046141Y-110860391D02*
X80442554Y-115463978D01*
X72893541Y-54136880D02*
X72893541Y-59275870D01*
X71715731Y-82813000D02*
X67006868Y-87521863D01*
X67006868Y-87521863D02*
X67006868Y-92660853D01*
X83439337Y-123142441D02*
X85865901Y-123142441D01*
X72332339Y-78408419D02*
X75817900Y-78408419D01*
X80442554Y-120145658D02*
X83439337Y-123142441D01*
X69941522Y-76017602D02*
X72332339Y-78408419D01*
X69397685Y-95051670D02*
X72883246Y-95051670D01*
X77602404Y-49428017D02*
X72893541Y-54136880D01*
%TO.N,COL_3*%
X87147117Y-82097693D02*
X89537934Y-84488510D01*
X105933642Y-118460908D02*
X103684949Y-118460908D01*
X88903961Y-88991572D02*
X84195098Y-93700435D01*
X90081771Y-65454442D02*
X92472588Y-67845259D01*
X87147117Y-76958703D02*
X87147117Y-82097693D01*
X98516210Y-126805329D02*
X102172238Y-130461357D01*
X102172238Y-130461357D02*
X103262058Y-130461357D01*
X84195098Y-93700435D02*
X84195098Y-98839425D01*
X103684949Y-118460908D02*
X98516210Y-123629647D01*
X92472588Y-67845259D02*
X95958149Y-67845259D01*
X91855980Y-72249840D02*
X87147117Y-76958703D01*
X94790634Y-55606589D02*
X90081771Y-60315452D01*
X86585915Y-101230242D02*
X90071476Y-101230242D01*
X89537934Y-84488510D02*
X93023495Y-84488510D01*
X84195098Y-98839425D02*
X86585915Y-101230242D01*
X98516210Y-123629647D02*
X98516210Y-126805329D01*
%TO.N,COL_4*%
X107582568Y-64721369D02*
X107582568Y-69860359D01*
X109356777Y-76655757D02*
X104647914Y-81364620D01*
X119647863Y-131084619D02*
X123741170Y-135177926D01*
X104647914Y-86503610D02*
X107038731Y-88894427D01*
X118060856Y-131084619D02*
X119647863Y-131084619D01*
X123741170Y-138635546D02*
X124512650Y-139407026D01*
X106404758Y-93397489D02*
X101695895Y-98106352D01*
X107038731Y-88894427D02*
X110524292Y-88894427D01*
X101695895Y-98106352D02*
X101695895Y-103245342D01*
X129449089Y-134855225D02*
X129449089Y-133765405D01*
X126874861Y-139407026D02*
X129646271Y-136635616D01*
X104647914Y-81364620D02*
X104647914Y-86503610D01*
X107582568Y-69860359D02*
X109973385Y-72251176D01*
X123741170Y-135177926D02*
X123741170Y-138635546D01*
X124512650Y-139407026D02*
X126874861Y-139407026D01*
X101695895Y-103245342D02*
X104086712Y-105636159D01*
X104086712Y-105636159D02*
X107572273Y-105636159D01*
X112291431Y-60012506D02*
X107582568Y-64721369D01*
X109973385Y-72251176D02*
X113458946Y-72251176D01*
X129646271Y-136635616D02*
X129646271Y-135198776D01*
%TO.N,COL_5*%
X185221222Y-104897650D02*
X186891557Y-106567985D01*
X182269203Y-88155918D02*
X183040683Y-88927398D01*
X186543946Y-94450712D02*
X187083742Y-94990508D01*
X182269203Y-87064878D02*
X182269203Y-88155918D01*
X190810923Y-106567985D02*
X191826922Y-105551986D01*
X167312446Y-129365732D02*
X167312446Y-132746860D01*
X187083742Y-101944090D02*
X185221222Y-103806610D01*
X170946259Y-125731919D02*
X167312446Y-129365732D01*
X186891557Y-106567985D02*
X190810923Y-106567985D01*
X180987519Y-73084521D02*
X184906885Y-73084521D01*
X179317184Y-71414186D02*
X180987519Y-73084521D01*
X184906885Y-73084521D02*
X185922884Y-72068522D01*
X184131723Y-78248776D02*
X184131723Y-85202358D01*
X183040683Y-88927398D02*
X188757759Y-88927398D01*
X187083742Y-94990508D02*
X187083742Y-101944090D01*
X180683817Y-61011157D02*
X180683817Y-68956513D01*
X188757759Y-88927398D02*
X188874903Y-88810254D01*
X177605598Y-125731919D02*
X170946259Y-125731919D01*
X180639908Y-60967248D02*
X180683817Y-61011157D01*
X183591927Y-77708980D02*
X184131723Y-78248776D01*
X179317184Y-70323146D02*
X179317184Y-71414186D01*
X180683817Y-68956513D02*
X179317184Y-70323146D01*
X167312446Y-132746860D02*
X169777109Y-135211523D01*
X184131723Y-85202358D02*
X182269203Y-87064878D01*
X185221222Y-103806610D02*
X185221222Y-104897650D01*
%TO.N,COL_6*%
X199770000Y-83750000D02*
X200541480Y-84521480D01*
X190215175Y-132284271D02*
X194351155Y-132284271D01*
X206258556Y-84521480D02*
X206375700Y-84404336D01*
X196817981Y-65917229D02*
X196817981Y-67008269D01*
X194351155Y-132284271D02*
X196161323Y-130474103D01*
X198680501Y-57101127D02*
X198680501Y-64054709D01*
X189443695Y-130421751D02*
X189443695Y-131512791D01*
X196817981Y-67008269D02*
X197589461Y-67779749D01*
X201092724Y-73303062D02*
X201136633Y-73346971D01*
X197589461Y-67779749D02*
X203306537Y-67779749D01*
X198140705Y-56561331D02*
X198680501Y-57101127D01*
X190215175Y-124057436D02*
X190215175Y-129650271D01*
X202722019Y-99400692D02*
X202722019Y-100491732D01*
X209210575Y-101263212D02*
X209327719Y-101146068D01*
X200541480Y-84521480D02*
X206258556Y-84521480D01*
X204584539Y-90584590D02*
X204584539Y-97538172D01*
X202722019Y-100491732D02*
X203493499Y-101263212D01*
X190215175Y-129650271D02*
X189443695Y-130421751D01*
X198680501Y-64054709D02*
X196817981Y-65917229D01*
X189443695Y-131512791D02*
X190215175Y-132284271D01*
X204044743Y-90044794D02*
X204584539Y-90584590D01*
X203493499Y-101263212D02*
X209210575Y-101263212D01*
X187706432Y-121548693D02*
X190215175Y-124057436D01*
X204584539Y-97538172D02*
X202722019Y-99400692D01*
X199770000Y-82658960D02*
X199770000Y-83750000D01*
X203306537Y-67779749D02*
X203423681Y-67662605D01*
X201136633Y-73346971D02*
X201136633Y-81292327D01*
X201136633Y-81292327D02*
X199770000Y-82658960D01*
%TO.N,COL_7*%
X219910249Y-93222121D02*
X219910249Y-94313161D01*
X223446786Y-78342909D02*
X223563930Y-78225765D01*
X207607447Y-124018955D02*
X212692318Y-124018955D01*
X214777691Y-61601177D02*
X220494767Y-61601177D01*
X215328935Y-50382759D02*
X215868731Y-50922555D01*
X215868731Y-50922555D02*
X215868731Y-57876137D01*
X218280954Y-67124491D02*
X218820750Y-67664287D01*
X206835967Y-123247475D02*
X207607447Y-124018955D01*
X220494767Y-61601177D02*
X220611911Y-61484033D01*
X219910249Y-94313161D02*
X220681729Y-95084641D01*
X206835967Y-122156435D02*
X206835967Y-123247475D01*
X216958230Y-76480389D02*
X216958230Y-77571429D01*
X221232973Y-83866223D02*
X221772769Y-84406019D01*
X215868731Y-57876137D02*
X214006211Y-59738657D01*
X206780624Y-112896099D02*
X208698487Y-114813962D01*
X221772769Y-91359601D02*
X219910249Y-93222121D01*
X217729710Y-78342909D02*
X223446786Y-78342909D01*
X218820750Y-67664287D02*
X218820750Y-74617869D01*
X214006211Y-59738657D02*
X214006211Y-60829697D01*
X212692318Y-124018955D02*
X213557185Y-123154088D01*
X220681729Y-95084641D02*
X226398805Y-95084641D01*
X226398805Y-95084641D02*
X226515949Y-94967497D01*
X214006211Y-60829697D02*
X214777691Y-61601177D01*
X216958230Y-77571429D02*
X217729710Y-78342909D01*
X208698487Y-114813962D02*
X208698487Y-120293915D01*
X218820750Y-74617869D02*
X216958230Y-76480389D01*
X208698487Y-120293915D02*
X206835967Y-122156435D01*
X221772769Y-84406019D02*
X221772769Y-91359601D01*
%TO.N,COL_8*%
X239183559Y-93185194D02*
X244672345Y-93185194D01*
X236396695Y-74266401D02*
X236396695Y-75357441D01*
X237417028Y-76377774D02*
X242905814Y-76377774D01*
X238163226Y-92164861D02*
X239183559Y-93185194D01*
X236622655Y-55246679D02*
X234609258Y-57260076D01*
X234609258Y-58351116D02*
X235629591Y-59371449D01*
X235629591Y-59371449D02*
X241118377Y-59371449D01*
X240176623Y-89060424D02*
X238163226Y-91073821D01*
X234609258Y-57260076D02*
X234609258Y-58351116D01*
X240176623Y-81742440D02*
X240176623Y-89060424D01*
X238163226Y-91073821D02*
X238163226Y-92164861D01*
X238410092Y-72253004D02*
X236396695Y-74266401D01*
X236396695Y-75357441D02*
X237417028Y-76377774D01*
X236622655Y-47928695D02*
X236622655Y-55246679D01*
X238410092Y-64935020D02*
X238410092Y-72253004D01*
%TO.N,COL_9*%
X256571625Y-96513438D02*
X257950328Y-97892141D01*
X259272304Y-86163655D02*
X259272304Y-92721719D01*
X258085720Y-52184368D02*
X258085720Y-58742432D01*
X259272304Y-92721719D02*
X256571625Y-95422398D01*
X256763744Y-63912854D02*
X261772284Y-63912854D01*
X258682503Y-75832014D02*
X255981824Y-78532693D01*
X255981824Y-79623733D02*
X257360527Y-81002436D01*
X255385041Y-62534151D02*
X256763744Y-63912854D01*
X256571625Y-95422398D02*
X256571625Y-96513438D01*
X258085720Y-58742432D02*
X255385041Y-61443111D01*
X255385041Y-61443111D02*
X255385041Y-62534151D01*
X257950328Y-97892141D02*
X262958868Y-97892141D01*
X255981824Y-78532693D02*
X255981824Y-79623733D01*
X257360527Y-81002436D02*
X262369067Y-81002436D01*
X258682503Y-69273950D02*
X258682503Y-75832014D01*
%TO.N,SW37_2*%
X153210000Y-107960000D02*
X147300000Y-102050000D01*
X155910000Y-107960000D02*
X153210000Y-107960000D01*
%TD*%
M02*
