%TF.GenerationSoftware,KiCad,Pcbnew,9.0.7*%
%TF.CreationDate,2026-02-25T20:28:23+01:00*%
%TF.ProjectId,AFF314KEEB,41464633-3134-44b4-9545-422e6b696361,rev?*%
%TF.SameCoordinates,Original*%
%TF.FileFunction,Soldermask,Bot*%
%TF.FilePolarity,Negative*%
%FSLAX46Y46*%
G04 Gerber Fmt 4.6, Leading zero omitted, Abs format (unit mm)*
G04 Created by KiCad (PCBNEW 9.0.7) date 2026-02-25 20:28:23*
%MOMM*%
%LPD*%
G01*
G04 APERTURE LIST*
G04 Aperture macros list*
%AMRotRect*
0 Rectangle, with rotation*
0 The origin of the aperture is its center*
0 $1 length*
0 $2 width*
0 $3 Rotation angle, in degrees counterclockwise*
0 Add horizontal line*
21,1,$1,$2,0,0,$3*%
G04 Aperture macros list end*
%ADD10C,1.752600*%
%ADD11C,3.800000*%
%ADD12C,2.600000*%
%ADD13RotRect,2.600000X2.600000X350.000000*%
%ADD14C,2.032000*%
%ADD15C,1.701800*%
%ADD16C,3.000000*%
%ADD17C,3.429000*%
%ADD18RotRect,2.600000X2.600000X354.000000*%
%ADD19RotRect,2.600000X2.600000X10.000000*%
%ADD20C,2.500000*%
%ADD21RotRect,2.600000X2.600000X28.000000*%
%ADD22RotRect,2.600000X2.600000X18.000000*%
%ADD23RotRect,2.600000X2.600000X2.000000*%
%ADD24RotRect,2.600000X2.600000X358.000000*%
%ADD25C,1.800000*%
%ADD26C,2.100000*%
%ADD27RotRect,2.600000X2.600000X6.000000*%
%ADD28C,0.900000*%
%ADD29RotRect,2.600000X2.600000X55.000000*%
%ADD30C,1.524000*%
%ADD31RotRect,2.600000X2.600000X305.000000*%
%ADD32RotRect,2.600000X2.600000X342.000000*%
%ADD33RotRect,2.600000X2.600000X332.000000*%
%ADD34RotRect,1.800000X1.500000X170.000000*%
%ADD35RotRect,1.800000X1.500000X125.000000*%
%ADD36RotRect,1.800000X1.500000X186.000000*%
%ADD37RotRect,1.800000X1.500000X190.000000*%
%ADD38RotRect,1.800000X1.500000X182.000000*%
%ADD39RotRect,1.800000X1.500000X178.000000*%
%ADD40R,1.500000X1.800000*%
%ADD41RotRect,1.800000X1.500000X208.000000*%
%ADD42RotRect,1.800000X1.500000X162.000000*%
%ADD43RotRect,1.800000X1.500000X198.000000*%
%ADD44RotRect,1.800000X1.500000X235.000000*%
%ADD45RotRect,1.800000X1.500000X174.000000*%
%ADD46RotRect,1.800000X1.500000X152.000000*%
G04 APERTURE END LIST*
D10*
%TO.C,U1*%
X142062065Y-63584463D03*
X142062065Y-66124463D03*
X142062065Y-68664463D03*
X142062065Y-71204463D03*
X142062065Y-73744463D03*
X142062065Y-76284463D03*
X142062065Y-78824463D03*
X142062065Y-81364463D03*
X142062065Y-83904463D03*
X142062065Y-86444463D03*
X142062065Y-88984463D03*
X142062065Y-91524463D03*
X157302065Y-91524463D03*
X157302065Y-88984463D03*
X157302065Y-86444463D03*
X157302065Y-83904463D03*
X157302065Y-81364463D03*
X157302065Y-78824463D03*
X157302065Y-76284463D03*
X157302065Y-73744463D03*
X157302065Y-71204463D03*
X157302065Y-68664463D03*
X157302065Y-66124463D03*
X157302065Y-63584463D03*
X144602065Y-86444463D03*
X147142065Y-86444463D03*
X149682065Y-86444463D03*
%TD*%
D11*
%TO.C,H5*%
X230501659Y-54503770D03*
D12*
X230501659Y-54503770D03*
%TD*%
D11*
%TO.C,H4*%
X88550000Y-106250000D03*
D12*
X88550000Y-106250000D03*
%TD*%
%TO.C,H8*%
X210849195Y-106165826D03*
D11*
X210849195Y-106165826D03*
%TD*%
D12*
%TO.C,H7*%
X195099157Y-72352239D03*
D11*
X195099157Y-72352239D03*
%TD*%
D12*
%TO.C,H6*%
X252752961Y-77995735D03*
D11*
X252752961Y-77995735D03*
%TD*%
D12*
%TO.C,H3*%
X104282673Y-72534893D03*
D11*
X104282673Y-72534893D03*
%TD*%
D13*
%TO.C,SWL4*%
X105783138Y-59778803D03*
D14*
X91398771Y-64908922D03*
X95958149Y-67845259D03*
D13*
X94790634Y-55606589D03*
D15*
X102399116Y-62989958D03*
D16*
X102557892Y-59210105D03*
D17*
X96982673Y-62034893D03*
D16*
X98015880Y-56175287D03*
D15*
X91566230Y-61079828D03*
%TD*%
D18*
%TO.C,SWL2*%
X67498401Y-50871352D03*
D14*
X53506933Y-56992377D03*
X58260033Y-59603515D03*
D18*
X56241636Y-47476100D03*
D15*
X64346621Y-54310743D03*
D16*
X64241342Y-50529021D03*
D17*
X58876751Y-53735836D03*
D16*
X59498695Y-47818431D03*
D15*
X53406881Y-53160929D03*
%TD*%
D12*
%TO.C,H2*%
X46629404Y-78141236D03*
D11*
X46629404Y-78141236D03*
%TD*%
D12*
%TO.C,H1*%
X68876751Y-54735836D03*
D11*
X68876751Y-54735836D03*
%TD*%
D15*
%TO.C,SWL26*%
X217122963Y-73370464D03*
D16*
X221506199Y-66555793D03*
D17*
X222539406Y-72415399D03*
D16*
X226812264Y-67854129D03*
D15*
X227955849Y-71460334D03*
D19*
X218280954Y-67124491D03*
D14*
X223563930Y-78225765D03*
X218275230Y-77025909D03*
D19*
X230037509Y-67285431D03*
%TD*%
D20*
%TO.C,BAT+1*%
X154331689Y-95419787D03*
%TD*%
D15*
%TO.C,SWL35*%
X188535229Y-127846806D03*
D16*
X190598085Y-120011174D03*
D17*
X193391441Y-125264712D03*
D16*
X196045661Y-119606301D03*
D15*
X198247653Y-122682618D03*
D21*
X187706432Y-121548693D03*
D14*
X196161323Y-130474103D03*
X190760695Y-130967271D03*
D21*
X198937314Y-118068781D03*
%TD*%
D15*
%TO.C,SWL31*%
X220074982Y-90112196D03*
D16*
X224458218Y-83297525D03*
D17*
X225491425Y-89157131D03*
D16*
X229764283Y-84595861D03*
D15*
X230907868Y-88202066D03*
D19*
X221232973Y-83866223D03*
D14*
X226515949Y-94967497D03*
X221227249Y-93767641D03*
D19*
X232989528Y-84027163D03*
%TD*%
D15*
%TO.C,SWL10*%
X106132373Y-82128996D03*
D16*
X112582023Y-77224455D03*
D17*
X111548816Y-83084061D03*
D16*
X117124035Y-80259273D03*
D15*
X116965259Y-84039126D03*
D13*
X109356777Y-76655757D03*
D14*
X110524292Y-88894427D03*
X105964914Y-85958090D03*
D13*
X120349281Y-80827971D03*
%TD*%
D15*
%TO.C,SWL36*%
X206503174Y-119242448D03*
D16*
X209895334Y-111884069D03*
D17*
X211733985Y-117542855D03*
D16*
X215330454Y-112431308D03*
D15*
X216964796Y-115843262D03*
D22*
X206780624Y-112896099D03*
D14*
X213557185Y-123154087D03*
X208152967Y-122701955D03*
D22*
X218445164Y-111419277D03*
%TD*%
D15*
%TO.C,SWL23*%
X256069727Y-58208395D03*
D16*
X261358725Y-52070073D03*
D17*
X261566377Y-58016448D03*
D16*
X266432458Y-54094235D03*
D15*
X267063027Y-57824501D03*
D23*
X258085720Y-52184368D03*
D14*
X261772284Y-63912854D03*
X256702041Y-61988631D03*
D23*
X269705463Y-53979939D03*
%TD*%
D15*
%TO.C,SWL1*%
X32315848Y-58069941D03*
D16*
X38020150Y-52315513D03*
D17*
X37812498Y-58261888D03*
D16*
X42940325Y-54688670D03*
D15*
X43309148Y-58453835D03*
D24*
X34747145Y-52201217D03*
D14*
X37606591Y-64158294D03*
X32682926Y-61885076D03*
D24*
X46213330Y-54802966D03*
%TD*%
D25*
%TO.C,RSW1*%
X168390973Y-58714221D03*
X163410000Y-59150000D03*
D26*
X162631694Y-61727642D03*
X169605057Y-61117552D03*
%TD*%
D15*
%TO.C,SWL3*%
X74378000Y-54901256D03*
D16*
X80827650Y-49996715D03*
D17*
X79794443Y-55856321D03*
D16*
X85369662Y-53031533D03*
D15*
X85210886Y-56811386D03*
D13*
X77602404Y-49428017D03*
D14*
X78769919Y-61666687D03*
X74210541Y-58730350D03*
D13*
X88594908Y-53600231D03*
%TD*%
D15*
%TO.C,SWL27*%
X236819226Y-71085002D03*
D16*
X241667152Y-64592690D03*
D17*
X242289096Y-70510095D03*
D16*
X246869724Y-66257996D03*
D15*
X247758966Y-69935188D03*
D27*
X238410092Y-64935020D03*
D14*
X242905814Y-76377774D03*
X237713695Y-74811924D03*
D27*
X250126783Y-65915665D03*
%TD*%
D15*
%TO.C,SWL21*%
X214170944Y-56628732D03*
D16*
X218554180Y-49814061D03*
D17*
X219587387Y-55673667D03*
D16*
X223860245Y-51112397D03*
D15*
X225003830Y-54718602D03*
D19*
X215328935Y-50382759D03*
D14*
X220611911Y-61484033D03*
X215323211Y-60284177D03*
D19*
X227085490Y-50543699D03*
%TD*%
D15*
%TO.C,SWL28*%
X256666510Y-75297977D03*
D16*
X261955508Y-69159655D03*
D17*
X262163160Y-75106030D03*
D16*
X267029241Y-71183817D03*
D15*
X267659810Y-74914083D03*
D23*
X258682503Y-69273950D03*
D14*
X262369067Y-81002436D03*
X257298824Y-79078213D03*
D23*
X270302246Y-71069521D03*
%TD*%
D15*
%TO.C,SWL7*%
X51629897Y-70067801D03*
D16*
X57721711Y-64725303D03*
D17*
X57099767Y-70642708D03*
D16*
X62464358Y-67435893D03*
D15*
X62569637Y-71217615D03*
D18*
X54464652Y-64382972D03*
D14*
X56483049Y-76510387D03*
X51729949Y-73899249D03*
D18*
X65721417Y-67778224D03*
%TD*%
D15*
%TO.C,SWL25*%
X199934733Y-79549035D03*
D16*
X204317969Y-72734364D03*
D17*
X205351176Y-78593970D03*
D16*
X209624034Y-74032700D03*
D15*
X210767619Y-77638905D03*
D19*
X201092724Y-73303062D03*
D14*
X206375700Y-84404336D03*
X201087000Y-83204480D03*
D19*
X212849279Y-73464002D03*
%TD*%
D15*
%TO.C,SWL20*%
X196982714Y-62807304D03*
D16*
X201365950Y-55992633D03*
D17*
X202399157Y-61852239D03*
D16*
X206672015Y-57290969D03*
D15*
X207815600Y-60897174D03*
D19*
X198140705Y-56561331D03*
D14*
X203423681Y-67662605D03*
X198134981Y-66462749D03*
D19*
X209897260Y-56722271D03*
%TD*%
D20*
%TO.C,BATGND1*%
X145041689Y-95419787D03*
%TD*%
D15*
%TO.C,SWL24*%
X182433936Y-83954953D03*
D16*
X186817172Y-77140282D03*
D17*
X187850379Y-82999888D03*
D16*
X192123237Y-78438618D03*
D15*
X193266822Y-82044823D03*
D19*
X183591927Y-77708980D03*
D14*
X188874903Y-88810254D03*
X183586203Y-87610398D03*
D19*
X195348482Y-77869920D03*
%TD*%
D28*
%TO.C,PSW1*%
X132225774Y-58068723D03*
X135210000Y-58380000D03*
%TD*%
D15*
%TO.C,SWL19*%
X179481917Y-67213221D03*
D16*
X183865153Y-60398550D03*
D17*
X184898360Y-66258156D03*
D16*
X189171218Y-61696886D03*
D15*
X190314803Y-65303091D03*
D19*
X180639908Y-60967248D03*
D14*
X185922884Y-72068522D03*
X180634184Y-70868666D03*
D19*
X192396463Y-61128188D03*
%TD*%
D15*
%TO.C,SWL18*%
X121658603Y-136320011D03*
D17*
X124813274Y-131814675D03*
D16*
X119939320Y-128401894D03*
X124609336Y-125568003D03*
D15*
X127967945Y-127309339D03*
D29*
X118060856Y-131084619D03*
D14*
X129646271Y-135198776D03*
X125058170Y-138090026D03*
D29*
X126487799Y-122885280D03*
%TD*%
D15*
%TO.C,SWL14*%
X85679557Y-94464811D03*
D16*
X92129207Y-89560270D03*
D17*
X91096000Y-95419876D03*
D16*
X96671219Y-92595088D03*
D15*
X96512443Y-96374941D03*
D13*
X88903961Y-88991572D03*
D14*
X90071476Y-101230242D03*
X85512098Y-98293905D03*
D13*
X99896465Y-93163786D03*
%TD*%
D15*
%TO.C,SWL5*%
X109067027Y-65485745D03*
D16*
X115516677Y-60581204D03*
D17*
X114483470Y-66440810D03*
D16*
X120058689Y-63616022D03*
D15*
X119899913Y-67395875D03*
D13*
X112291431Y-60012506D03*
D14*
X113458946Y-72251176D03*
X108899568Y-69314839D03*
D13*
X123283935Y-64184720D03*
%TD*%
D15*
%TO.C,SWL22*%
X235031789Y-54078677D03*
D16*
X239879715Y-47586365D03*
D17*
X240501659Y-53503770D03*
D16*
X245082287Y-49251671D03*
D15*
X245971529Y-52928863D03*
D27*
X236622655Y-47928695D03*
D14*
X241118377Y-59371449D03*
X235926258Y-57805599D03*
D27*
X248339346Y-48909340D03*
%TD*%
D15*
%TO.C,SWL30*%
X202886752Y-96290767D03*
D16*
X207269988Y-89476096D03*
D17*
X208303195Y-95335702D03*
D16*
X212576053Y-90774432D03*
D15*
X213719638Y-94380637D03*
D19*
X204044743Y-90044794D03*
D14*
X209327719Y-101146068D03*
X204039019Y-99946212D03*
D19*
X215801298Y-90205734D03*
%TD*%
D15*
%TO.C,SWL29*%
X185385955Y-100696685D03*
D16*
X189769191Y-93882014D03*
D17*
X190802398Y-99741620D03*
D16*
X195075256Y-95180350D03*
D15*
X196218841Y-98786555D03*
D19*
X186543946Y-94450712D03*
D14*
X191826922Y-105551986D03*
X186538222Y-104352130D03*
D19*
X198300501Y-94611652D03*
%TD*%
D15*
%TO.C,SWL13*%
X68491327Y-88286239D03*
D16*
X74940977Y-83381698D03*
D17*
X73907770Y-89241304D03*
D16*
X79482989Y-86416516D03*
D15*
X79324213Y-90196369D03*
D13*
X71715731Y-82813000D03*
D14*
X72883246Y-95051670D03*
X68323868Y-92115333D03*
D13*
X82708235Y-86985214D03*
%TD*%
D15*
%TO.C,SWL12*%
X49863365Y-86875222D03*
D16*
X55955179Y-81532724D03*
D17*
X55333235Y-87450129D03*
D16*
X60697826Y-84243314D03*
D15*
X60803105Y-88025036D03*
D18*
X52698120Y-81190393D03*
D14*
X54716517Y-93317808D03*
X49963417Y-90706670D03*
D18*
X63954885Y-84585645D03*
%TD*%
D30*
%TO.C,SW1*%
X147300000Y-117150000D03*
X152300000Y-117150000D03*
X149800000Y-117150000D03*
X152300000Y-102050000D03*
X147300000Y-102050000D03*
%TD*%
D15*
%TO.C,SWL9*%
X88631576Y-77723079D03*
D16*
X95081226Y-72818538D03*
D17*
X94048019Y-78678144D03*
D16*
X99623238Y-75853356D03*
D15*
X99464462Y-79633209D03*
D13*
X91855980Y-72249840D03*
D14*
X93023495Y-84488510D03*
X88464117Y-81552173D03*
D13*
X102848484Y-76422054D03*
%TD*%
D15*
%TO.C,SWL8*%
X71425981Y-71642988D03*
D16*
X77875631Y-66738447D03*
D17*
X76842424Y-72598053D03*
D16*
X82417643Y-69773265D03*
D15*
X82258867Y-73553118D03*
D13*
X74650385Y-66169749D03*
D14*
X75817900Y-78408419D03*
X71258522Y-75472082D03*
D13*
X85642889Y-70341963D03*
%TD*%
D15*
%TO.C,SWL11*%
X31132754Y-91949289D03*
D16*
X36837056Y-86194861D03*
D17*
X36629404Y-92141236D03*
D16*
X41757231Y-88568018D03*
D15*
X42126054Y-92333183D03*
D24*
X33564051Y-86080565D03*
D14*
X36423497Y-98037642D03*
X31499832Y-95764424D03*
D24*
X45030236Y-88682314D03*
%TD*%
D15*
%TO.C,SWL34*%
X171455435Y-127322086D03*
D16*
X179484060Y-128414641D03*
D17*
X174610106Y-131827422D03*
D16*
X180549808Y-133772271D03*
D15*
X177764777Y-136332758D03*
D31*
X177605598Y-125731919D03*
D14*
X169777109Y-135211523D03*
X168629446Y-129911252D03*
D31*
X182428272Y-136454994D03*
%TD*%
D15*
%TO.C,SWL6*%
X31722556Y-75059584D03*
D16*
X37426858Y-69305156D03*
D17*
X37219206Y-75251531D03*
D16*
X42347033Y-71678313D03*
D15*
X42715856Y-75443478D03*
D24*
X34153853Y-69190860D03*
D14*
X37013299Y-81147937D03*
X32089634Y-78874719D03*
D24*
X45620038Y-71792609D03*
%TD*%
D15*
%TO.C,SWL16*%
X82458290Y-115831615D03*
D16*
X89527752Y-111872422D03*
D17*
X87689101Y-117531208D03*
D16*
X93603197Y-115509831D03*
D15*
X92919912Y-119230801D03*
D32*
X86413042Y-110860391D03*
D14*
X85865901Y-123142440D03*
X81759554Y-119600138D03*
D32*
X96717907Y-116521862D03*
%TD*%
D15*
%TO.C,SWL33*%
X257256311Y-92187682D03*
D16*
X262545309Y-86049360D03*
D17*
X262752961Y-91995735D03*
D16*
X267619042Y-88073522D03*
D15*
X268249611Y-91803788D03*
D23*
X259272304Y-86163655D03*
D14*
X262958868Y-97892141D03*
X257888625Y-95967918D03*
D23*
X270892047Y-87959226D03*
%TD*%
D15*
%TO.C,SWL15*%
X103180354Y-98870728D03*
D16*
X109630004Y-93966187D03*
D17*
X108596797Y-99825793D03*
D16*
X114172016Y-97001005D03*
D15*
X114013240Y-100780858D03*
D13*
X106404758Y-93397489D03*
D14*
X107572273Y-105636159D03*
X103012895Y-102699822D03*
D13*
X117397262Y-97569703D03*
%TD*%
D15*
%TO.C,SWL17*%
X101175728Y-122669872D03*
D16*
X108825296Y-119998428D03*
D17*
X106031940Y-125251966D03*
D16*
X112207196Y-124288270D03*
D15*
X110888152Y-127834060D03*
D33*
X105933642Y-118460908D03*
D14*
X103262058Y-130461357D03*
X99833210Y-126259809D03*
D33*
X115098850Y-125825790D03*
%TD*%
D15*
%TO.C,SWL32*%
X238585757Y-87892422D03*
D16*
X243433683Y-81400110D03*
D17*
X244055627Y-87317515D03*
D16*
X248636255Y-83065416D03*
D15*
X249525497Y-86742608D03*
D27*
X240176623Y-81742440D03*
D14*
X244672345Y-93185194D03*
X239480226Y-91619344D03*
D27*
X251893314Y-82723085D03*
%TD*%
D34*
%TO.C,DL3*%
X85083864Y-59835269D03*
X81735518Y-59244865D03*
%TD*%
D35*
%TO.C,DL34*%
X175536752Y-138381149D03*
X173586592Y-135596029D03*
%TD*%
D36*
%TO.C,DL22*%
X246682924Y-55870618D03*
X243301550Y-56226016D03*
%TD*%
D37*
%TO.C,DL21*%
X225918697Y-57603566D03*
X222570351Y-58193970D03*
%TD*%
D38*
%TO.C,DL23*%
X267567484Y-60808712D03*
X264169552Y-60927370D03*
%TD*%
D34*
%TO.C,DL9*%
X99337440Y-82657091D03*
X95989094Y-82066687D03*
%TD*%
D37*
%TO.C,DL29*%
X197133708Y-101671518D03*
X193785362Y-102261922D03*
%TD*%
D39*
%TO.C,DL6*%
X43010913Y-78455611D03*
X39612983Y-78336953D03*
%TD*%
D34*
%TO.C,DL14*%
X96385421Y-99398823D03*
X93037075Y-98808419D03*
%TD*%
D40*
%TO.C,DL37*%
X155910000Y-111360000D03*
X155910000Y-107960000D03*
%TD*%
D41*
%TO.C,DL35*%
X200009247Y-125143674D03*
X197007225Y-126739876D03*
%TD*%
D42*
%TO.C,DL16*%
X92373284Y-122207578D03*
X89139692Y-121156920D03*
%TD*%
D34*
%TO.C,DL4*%
X102272094Y-66013840D03*
X98923748Y-65423436D03*
%TD*%
D37*
%TO.C,DL31*%
X231822735Y-91087031D03*
X228474389Y-91677433D03*
%TD*%
D36*
%TO.C,DL32*%
X250236892Y-89684362D03*
X246855518Y-90039760D03*
%TD*%
D34*
%TO.C,DL10*%
X116838237Y-87063009D03*
X113489891Y-86472605D03*
%TD*%
D43*
%TO.C,DL36*%
X218272269Y-118572824D03*
X215038677Y-119623482D03*
%TD*%
D34*
%TO.C,DL8*%
X82131845Y-76577001D03*
X78783499Y-75986597D03*
%TD*%
D37*
%TO.C,DL24*%
X194181689Y-84929787D03*
X190833343Y-85520191D03*
%TD*%
D34*
%TO.C,DL5*%
X119772891Y-70419758D03*
X116424545Y-69829354D03*
%TD*%
D38*
%TO.C,DL28*%
X268164264Y-77898295D03*
X264766334Y-78016953D03*
%TD*%
D37*
%TO.C,DL20*%
X208730467Y-63782139D03*
X205382121Y-64372541D03*
%TD*%
D44*
%TO.C,DL18*%
X130654831Y-128702409D03*
X128704671Y-131487525D03*
%TD*%
D34*
%TO.C,DL15*%
X113886218Y-103804740D03*
X110537872Y-103214336D03*
%TD*%
D37*
%TO.C,DL30*%
X214634505Y-97265601D03*
X211286159Y-97856005D03*
%TD*%
D39*
%TO.C,DL1*%
X43604205Y-61465967D03*
X40206275Y-61347309D03*
%TD*%
D45*
%TO.C,DL2*%
X64430844Y-57336119D03*
X61049470Y-56980723D03*
%TD*%
%TO.C,DL12*%
X60887329Y-91050412D03*
X57505955Y-90695016D03*
%TD*%
%TO.C,DL7*%
X62653860Y-74242992D03*
X59272486Y-73887596D03*
%TD*%
D38*
%TO.C,DL33*%
X268754066Y-94788001D03*
X265356136Y-94906659D03*
%TD*%
D37*
%TO.C,DL26*%
X228870716Y-74345298D03*
X225522370Y-74935702D03*
%TD*%
D34*
%TO.C,DL13*%
X79197191Y-93220252D03*
X75848845Y-92629848D03*
%TD*%
D46*
%TO.C,DL17*%
X109832915Y-130670690D03*
X106830893Y-129074486D03*
%TD*%
D36*
%TO.C,DL27*%
X248470360Y-72876942D03*
X245088986Y-73232340D03*
%TD*%
D39*
%TO.C,DL11*%
X42421113Y-95345316D03*
X39023183Y-95226658D03*
%TD*%
D37*
%TO.C,DL19*%
X191229670Y-68188055D03*
X187881324Y-68778459D03*
%TD*%
%TO.C,DL25*%
X211682487Y-80523869D03*
X208334139Y-81114273D03*
%TD*%
M02*
