%TF.GenerationSoftware,KiCad,Pcbnew,9.0.7*%
%TF.CreationDate,2026-02-25T20:28:23+01:00*%
%TF.ProjectId,AFF314KEEB,41464633-3134-44b4-9545-422e6b696361,rev?*%
%TF.SameCoordinates,Original*%
%TF.FileFunction,Copper,L1,Top*%
%TF.FilePolarity,Positive*%
%FSLAX46Y46*%
G04 Gerber Fmt 4.6, Leading zero omitted, Abs format (unit mm)*
G04 Created by KiCad (PCBNEW 9.0.7) date 2026-02-25 20:28:23*
%MOMM*%
%LPD*%
G01*
G04 APERTURE LIST*
G04 Aperture macros list*
%AMRotRect*
0 Rectangle, with rotation*
0 The origin of the aperture is its center*
0 $1 length*
0 $2 width*
0 $3 Rotation angle, in degrees counterclockwise*
0 Add horizontal line*
21,1,$1,$2,0,0,$3*%
G04 Aperture macros list end*
%TA.AperFunction,ComponentPad*%
%ADD10C,1.752600*%
%TD*%
%TA.AperFunction,ConnectorPad*%
%ADD11C,3.800000*%
%TD*%
%TA.AperFunction,ComponentPad*%
%ADD12C,2.600000*%
%TD*%
%TA.AperFunction,ComponentPad*%
%ADD13C,2.032000*%
%TD*%
%TA.AperFunction,ComponentPad*%
%ADD14C,2.500000*%
%TD*%
%TA.AperFunction,ComponentPad*%
%ADD15C,1.800000*%
%TD*%
%TA.AperFunction,ComponentPad*%
%ADD16C,2.100000*%
%TD*%
%TA.AperFunction,WasherPad*%
%ADD17C,0.900000*%
%TD*%
%TA.AperFunction,SMDPad,CuDef*%
%ADD18RotRect,0.700000X1.000000X355.000000*%
%TD*%
%TA.AperFunction,SMDPad,CuDef*%
%ADD19RotRect,2.800000X1.000000X265.000000*%
%TD*%
%TA.AperFunction,ComponentPad*%
%ADD20C,1.524000*%
%TD*%
%TA.AperFunction,Conductor*%
%ADD21C,0.200000*%
%TD*%
G04 APERTURE END LIST*
D10*
%TO.P,U1,1,1*%
%TO.N,unconnected-(U1-Pad1)*%
X142062065Y-63584463D03*
%TO.P,U1,2,0*%
%TO.N,unconnected-(U1-0-Pad2)*%
X142062065Y-66124463D03*
%TO.P,U1,3,GND*%
%TO.N,GND*%
X142062065Y-68664463D03*
%TO.P,U1,4,GND*%
X142062065Y-71204463D03*
%TO.P,U1,5,2*%
%TO.N,A*%
X142062065Y-73744463D03*
%TO.P,U1,6,3*%
%TO.N,B*%
X142062065Y-76284463D03*
%TO.P,U1,7,4*%
%TO.N,COL_0*%
X142062065Y-78824463D03*
%TO.P,U1,8,5*%
%TO.N,COL_1*%
X142062065Y-81364463D03*
%TO.P,U1,9,6*%
%TO.N,COL_2*%
X142062065Y-83904463D03*
%TO.P,U1,10,7*%
%TO.N,COL_3*%
X142062065Y-86444463D03*
%TO.P,U1,11,8*%
%TO.N,COL_4*%
X142062065Y-88984463D03*
%TO.P,U1,12,9*%
%TO.N,ROW_3*%
X142062065Y-91524463D03*
%TO.P,U1,13,10*%
%TO.N,COL_5*%
X157302065Y-91524463D03*
%TO.P,U1,14,16*%
%TO.N,COL_6*%
X157302065Y-88984463D03*
%TO.P,U1,15,14*%
%TO.N,COL_7*%
X157302065Y-86444463D03*
%TO.P,U1,16,15*%
%TO.N,COL_8*%
X157302065Y-83904463D03*
%TO.P,U1,17,18*%
%TO.N,COL_9*%
X157302065Y-81364463D03*
%TO.P,U1,18,19*%
%TO.N,ROW_2*%
X157302065Y-78824463D03*
%TO.P,U1,19,20*%
%TO.N,ROW_1*%
X157302065Y-76284463D03*
%TO.P,U1,20,21*%
%TO.N,ROW_0*%
X157302065Y-73744463D03*
%TO.P,U1,21,3.3v*%
%TO.N,unconnected-(U1-3.3v-Pad21)*%
X157302065Y-71204463D03*
%TO.P,U1,22,RST*%
%TO.N,RESET*%
X157302065Y-68664463D03*
%TO.P,U1,23,GND*%
%TO.N,GND*%
X157302065Y-66124463D03*
%TO.P,U1,24,B+*%
%TO.N,BAT+*%
X157302065Y-63584463D03*
%TO.P,U1,25,1*%
%TO.N,unconnected-(U1-1-Pad25)*%
X144602065Y-86444463D03*
%TO.P,U1,26,2*%
%TO.N,unconnected-(U1-2-Pad26)*%
X147142065Y-86444463D03*
%TO.P,U1,27,7*%
%TO.N,unconnected-(U1-7-Pad27)*%
X149682065Y-86444463D03*
%TD*%
D11*
%TO.P,H5,1,1*%
%TO.N,unconnected-(H5-Pad1)*%
X230501659Y-54503770D03*
D12*
X230501659Y-54503770D03*
%TD*%
D11*
%TO.P,H4,1,1*%
%TO.N,unconnected-(H4-Pad1)*%
X88550000Y-106250000D03*
D12*
X88550000Y-106250000D03*
%TD*%
%TO.P,H8,1,1*%
%TO.N,unconnected-(H8-Pad1)*%
X210849195Y-106165826D03*
D11*
X210849195Y-106165826D03*
%TD*%
D12*
%TO.P,H7,1,1*%
%TO.N,unconnected-(H7-Pad1)*%
X195099157Y-72352239D03*
D11*
X195099157Y-72352239D03*
%TD*%
D12*
%TO.P,H6,1,1*%
%TO.N,unconnected-(H6-Pad1)*%
X252752961Y-77995735D03*
D11*
X252752961Y-77995735D03*
%TD*%
D12*
%TO.P,H3,1,1*%
%TO.N,unconnected-(H3-Pad1)*%
X104282673Y-72534893D03*
D11*
X104282673Y-72534893D03*
%TD*%
D13*
%TO.P,SWL4,2,2*%
%TO.N,Net-(DL4-A)*%
X91398771Y-64908922D03*
%TO.P,SWL4,1,1*%
%TO.N,COL_3*%
X95958149Y-67845259D03*
%TD*%
%TO.P,SWL2,2,2*%
%TO.N,Net-(DL2-A)*%
X53506933Y-56992377D03*
%TO.P,SWL2,1,1*%
%TO.N,COL_1*%
X58260033Y-59603515D03*
%TD*%
D12*
%TO.P,H2,1,1*%
%TO.N,unconnected-(H2-Pad1)*%
X46629404Y-78141236D03*
D11*
X46629404Y-78141236D03*
%TD*%
D12*
%TO.P,H1,1,1*%
%TO.N,unconnected-(H1-Pad1)*%
X68876751Y-54735836D03*
D11*
X68876751Y-54735836D03*
%TD*%
D13*
%TO.P,SWL26,1,1*%
%TO.N,COL_7*%
X223563930Y-78225765D03*
%TO.P,SWL26,2,2*%
%TO.N,Net-(DL26-A)*%
X218275230Y-77025909D03*
%TD*%
D14*
%TO.P,BAT+1,1,1*%
%TO.N,VBAT*%
X154331689Y-95419787D03*
%TD*%
D13*
%TO.P,SWL35,1,1*%
%TO.N,COL_6*%
X196161323Y-130474103D03*
%TO.P,SWL35,2,2*%
%TO.N,Net-(DL35-A)*%
X190760695Y-130967271D03*
%TD*%
%TO.P,SWL31,1,1*%
%TO.N,COL_7*%
X226515949Y-94967497D03*
%TO.P,SWL31,2,2*%
%TO.N,Net-(DL31-A)*%
X221227249Y-93767641D03*
%TD*%
%TO.P,SWL10,1,1*%
%TO.N,COL_4*%
X110524292Y-88894427D03*
%TO.P,SWL10,2,2*%
%TO.N,Net-(DL10-A)*%
X105964914Y-85958090D03*
%TD*%
%TO.P,SWL36,1,1*%
%TO.N,COL_7*%
X213557185Y-123154087D03*
%TO.P,SWL36,2,2*%
%TO.N,Net-(DL36-A)*%
X208152967Y-122701955D03*
%TD*%
%TO.P,SWL23,1,1*%
%TO.N,COL_9*%
X261772284Y-63912854D03*
%TO.P,SWL23,2,2*%
%TO.N,Net-(DL23-A)*%
X256702041Y-61988631D03*
%TD*%
%TO.P,SWL1,1,1*%
%TO.N,COL_0*%
X37606591Y-64158294D03*
%TO.P,SWL1,2,2*%
%TO.N,Net-(DL1-A)*%
X32682926Y-61885076D03*
%TD*%
D15*
%TO.P,RSW1,1,1*%
%TO.N,GND*%
X168390973Y-58714221D03*
%TO.P,RSW1,2,2*%
%TO.N,RESET*%
X163410000Y-59150000D03*
D16*
%TO.P,RSW1,MP*%
%TO.N,N/C*%
X162631694Y-61727642D03*
X169605057Y-61117552D03*
%TD*%
D13*
%TO.P,SWL3,1,1*%
%TO.N,COL_2*%
X78769919Y-61666687D03*
%TO.P,SWL3,2,2*%
%TO.N,Net-(DL3-A)*%
X74210541Y-58730350D03*
%TD*%
%TO.P,SWL27,1,1*%
%TO.N,COL_8*%
X242905814Y-76377774D03*
%TO.P,SWL27,2,2*%
%TO.N,Net-(DL27-A)*%
X237713695Y-74811924D03*
%TD*%
%TO.P,SWL21,1,1*%
%TO.N,COL_7*%
X220611911Y-61484033D03*
%TO.P,SWL21,2,2*%
%TO.N,Net-(DL21-A)*%
X215323211Y-60284177D03*
%TD*%
%TO.P,SWL28,1,1*%
%TO.N,COL_9*%
X262369067Y-81002436D03*
%TO.P,SWL28,2,2*%
%TO.N,Net-(DL28-A)*%
X257298824Y-79078213D03*
%TD*%
%TO.P,SWL7,1,1*%
%TO.N,COL_1*%
X56483049Y-76510387D03*
%TO.P,SWL7,2,2*%
%TO.N,Net-(DL7-A)*%
X51729949Y-73899249D03*
%TD*%
%TO.P,SWL25,1,1*%
%TO.N,COL_6*%
X206375700Y-84404336D03*
%TO.P,SWL25,2,2*%
%TO.N,Net-(DL25-A)*%
X201087000Y-83204480D03*
%TD*%
%TO.P,SWL20,1,1*%
%TO.N,COL_6*%
X203423681Y-67662605D03*
%TO.P,SWL20,2,2*%
%TO.N,Net-(DL20-A)*%
X198134981Y-66462749D03*
%TD*%
D14*
%TO.P,BATGND1,1,1*%
%TO.N,GND*%
X145041689Y-95419787D03*
%TD*%
D13*
%TO.P,SWL24,1,1*%
%TO.N,COL_5*%
X188874903Y-88810254D03*
%TO.P,SWL24,2,2*%
%TO.N,Net-(DL24-A)*%
X183586203Y-87610398D03*
%TD*%
D17*
%TO.P,PSW1,*%
%TO.N,*%
X132225774Y-58068723D03*
X135210000Y-58380000D03*
D18*
%TO.P,PSW1,1,A*%
%TO.N,unconnected-(PSW1-A-Pad1)*%
X135800266Y-60238517D03*
%TO.P,PSW1,2,B*%
%TO.N,BAT+*%
X132811681Y-59977050D03*
%TO.P,PSW1,3,C*%
%TO.N,VBAT*%
X131317389Y-59846317D03*
D19*
%TO.P,PSW1,NC*%
%TO.N,N/C*%
X137559773Y-58485197D03*
X129640025Y-57792309D03*
%TD*%
D13*
%TO.P,SWL19,1,1*%
%TO.N,COL_5*%
X185922884Y-72068522D03*
%TO.P,SWL19,2,2*%
%TO.N,Net-(DL19-A)*%
X180634184Y-70868666D03*
%TD*%
%TO.P,SWL18,1,1*%
%TO.N,COL_4*%
X129646271Y-135198776D03*
%TO.P,SWL18,2,2*%
%TO.N,Net-(DL18-A)*%
X125058170Y-138090026D03*
%TD*%
%TO.P,SWL14,1,1*%
%TO.N,COL_3*%
X90071476Y-101230242D03*
%TO.P,SWL14,2,2*%
%TO.N,Net-(DL14-A)*%
X85512098Y-98293905D03*
%TD*%
%TO.P,SWL5,1,1*%
%TO.N,COL_4*%
X113458946Y-72251176D03*
%TO.P,SWL5,2,2*%
%TO.N,Net-(DL5-A)*%
X108899568Y-69314839D03*
%TD*%
%TO.P,SWL22,1,1*%
%TO.N,COL_8*%
X241118377Y-59371449D03*
%TO.P,SWL22,2,2*%
%TO.N,Net-(DL22-A)*%
X235926258Y-57805599D03*
%TD*%
%TO.P,SWL30,1,1*%
%TO.N,COL_6*%
X209327719Y-101146068D03*
%TO.P,SWL30,2,2*%
%TO.N,Net-(DL30-A)*%
X204039019Y-99946212D03*
%TD*%
%TO.P,SWL29,1,1*%
%TO.N,COL_5*%
X191826922Y-105551986D03*
%TO.P,SWL29,2,2*%
%TO.N,Net-(DL29-A)*%
X186538222Y-104352130D03*
%TD*%
%TO.P,SWL13,1,1*%
%TO.N,COL_2*%
X72883246Y-95051670D03*
%TO.P,SWL13,2,2*%
%TO.N,Net-(DL13-A)*%
X68323868Y-92115333D03*
%TD*%
%TO.P,SWL12,1,1*%
%TO.N,COL_1*%
X54716517Y-93317808D03*
%TO.P,SWL12,2,2*%
%TO.N,Net-(DL12-A)*%
X49963417Y-90706670D03*
%TD*%
D20*
%TO.P,SW1,A,A*%
%TO.N,A*%
X147300000Y-117150000D03*
%TO.P,SW1,B,B*%
%TO.N,B*%
X152300000Y-117150000D03*
%TO.P,SW1,C,C*%
%TO.N,GND*%
X149800000Y-117150000D03*
%TO.P,SW1,S1,S1*%
%TO.N,COL_8*%
X152300000Y-102050000D03*
%TO.P,SW1,S2,S2*%
%TO.N,SW37_2*%
X147300000Y-102050000D03*
%TD*%
D13*
%TO.P,SWL9,1,1*%
%TO.N,COL_3*%
X93023495Y-84488510D03*
%TO.P,SWL9,2,2*%
%TO.N,Net-(DL9-A)*%
X88464117Y-81552173D03*
%TD*%
%TO.P,SWL8,1,1*%
%TO.N,COL_2*%
X75817900Y-78408419D03*
%TO.P,SWL8,2,2*%
%TO.N,Net-(DL8-A)*%
X71258522Y-75472082D03*
%TD*%
%TO.P,SWL11,1,1*%
%TO.N,COL_0*%
X36423497Y-98037642D03*
%TO.P,SWL11,2,2*%
%TO.N,Net-(DL11-A)*%
X31499832Y-95764424D03*
%TD*%
%TO.P,SWL34,1,1*%
%TO.N,COL_5*%
X169777109Y-135211523D03*
%TO.P,SWL34,2,2*%
%TO.N,Net-(DL34-A)*%
X168629446Y-129911252D03*
%TD*%
%TO.P,SWL6,1,1*%
%TO.N,COL_0*%
X37013299Y-81147937D03*
%TO.P,SWL6,2,2*%
%TO.N,Net-(DL6-A)*%
X32089634Y-78874719D03*
%TD*%
%TO.P,SWL16,1,1*%
%TO.N,COL_2*%
X85865901Y-123142440D03*
%TO.P,SWL16,2,2*%
%TO.N,Net-(DL16-A)*%
X81759554Y-119600138D03*
%TD*%
%TO.P,SWL33,1,1*%
%TO.N,COL_9*%
X262958868Y-97892141D03*
%TO.P,SWL33,2,2*%
%TO.N,Net-(DL33-A)*%
X257888625Y-95967918D03*
%TD*%
%TO.P,SWL15,1,1*%
%TO.N,COL_4*%
X107572273Y-105636159D03*
%TO.P,SWL15,2,2*%
%TO.N,Net-(DL15-A)*%
X103012895Y-102699822D03*
%TD*%
%TO.P,SWL17,1,1*%
%TO.N,COL_3*%
X103262058Y-130461357D03*
%TO.P,SWL17,2,2*%
%TO.N,Net-(DL17-A)*%
X99833210Y-126259809D03*
%TD*%
%TO.P,SWL32,1,1*%
%TO.N,COL_8*%
X244672345Y-93185194D03*
%TO.P,SWL32,2,2*%
%TO.N,Net-(DL32-A)*%
X239480226Y-91619344D03*
%TD*%
D21*
%TO.N,COL_6*%
X203423681Y-67662605D02*
X201133620Y-69952666D01*
X201133620Y-69952666D02*
X183412704Y-69952666D01*
X183412704Y-69952666D02*
X164380907Y-88984463D01*
X164380907Y-88984463D02*
X157302065Y-88984463D01*
%TO.N,VBAT*%
X154331689Y-95419787D02*
X154331689Y-76729133D01*
X154331689Y-76729133D02*
X142402556Y-64800000D01*
X142402556Y-64800000D02*
X136271072Y-64800000D01*
X136271072Y-64800000D02*
X131317389Y-59846317D01*
%TO.N,GND*%
X145041689Y-95419787D02*
X148319365Y-92142111D01*
X148319365Y-77461763D02*
X142062065Y-71204463D01*
X148319365Y-92142111D02*
X148319365Y-77461763D01*
X149800000Y-117150000D02*
X150859365Y-116090635D01*
X150859365Y-116090635D02*
X150859365Y-77461763D01*
X150859365Y-77461763D02*
X142062065Y-68664463D01*
%TO.N,BAT+*%
X132811681Y-59977050D02*
X133902750Y-61068119D01*
X133902750Y-61068119D02*
X154785721Y-61068119D01*
X154785721Y-61068119D02*
X157302065Y-63584463D01*
%TO.N,B*%
X152300000Y-117150000D02*
X151237000Y-118213000D01*
X143023765Y-114377075D02*
X143023765Y-92359135D01*
X151237000Y-118213000D02*
X146859690Y-118213000D01*
X146859690Y-118213000D02*
X143023765Y-114377075D01*
X143023765Y-92359135D02*
X143239365Y-92143535D01*
X143239365Y-92143535D02*
X143239365Y-77461763D01*
X143239365Y-77461763D02*
X142062065Y-76284463D01*
%TO.N,A*%
X143424765Y-92525235D02*
X145940000Y-90010000D01*
X145940000Y-90010000D02*
X145940000Y-77622398D01*
X143424765Y-113274765D02*
X143424765Y-92525235D01*
X147300000Y-117150000D02*
X143424765Y-113274765D01*
X145940000Y-77622398D02*
X142062065Y-73744463D01*
%TO.N,VBAT*%
X131317389Y-60348227D02*
X131317389Y-59846317D01*
X154331689Y-95419787D02*
X153501689Y-94589787D01*
%TO.N,COL_0*%
X119617933Y-65792975D02*
X128750577Y-65792975D01*
X34563904Y-96178049D02*
X36423497Y-98037642D01*
X51842734Y-64158294D02*
X58587678Y-57413350D01*
X114831689Y-63399787D02*
X117224745Y-63399787D01*
X113219960Y-61788058D02*
X114831689Y-63399787D01*
X37013299Y-81147937D02*
X34563904Y-83597332D01*
X58587678Y-57413350D02*
X78430414Y-57413350D01*
X100376428Y-59646350D02*
X102518136Y-61788058D01*
X78430414Y-57413350D02*
X80663414Y-59646350D01*
X35153706Y-66611179D02*
X35153706Y-79288344D01*
X128750577Y-65792975D02*
X142062065Y-79104463D01*
X102518136Y-61788058D02*
X113219960Y-61788058D01*
X117224745Y-63399787D02*
X119617933Y-65792975D01*
X35153706Y-79288344D02*
X37013299Y-81147937D01*
X34563904Y-83597332D02*
X34563904Y-96178049D01*
X80663414Y-59646350D02*
X100376428Y-59646350D01*
X37606591Y-64158294D02*
X51842734Y-64158294D01*
X37606591Y-64158294D02*
X35153706Y-66611179D01*
%TO.N,COL_1*%
X55034267Y-75061605D02*
X56483049Y-76510387D01*
X93070504Y-64283845D02*
X117491940Y-64283845D01*
X53267735Y-91869026D02*
X54716517Y-93317808D01*
X88834009Y-60047350D02*
X93070504Y-64283845D01*
X56483049Y-76510387D02*
X53267735Y-79725701D01*
X126611577Y-66193975D02*
X142062065Y-81644463D01*
X117491940Y-64283845D02*
X119402070Y-66193975D01*
X53267735Y-79725701D02*
X53267735Y-91869026D01*
X58703868Y-60047350D02*
X88834009Y-60047350D01*
X55034267Y-62829281D02*
X55034267Y-75061605D01*
X58260033Y-59603515D02*
X55034267Y-62829281D01*
X58260033Y-59603515D02*
X58703868Y-60047350D01*
X119402070Y-66193975D02*
X126611577Y-66193975D01*
%TO.N,COL_2*%
X89754601Y-119253740D02*
X85865901Y-123142440D01*
X75817900Y-78408419D02*
X71842270Y-82384049D01*
X72883246Y-95051670D02*
X72883246Y-97845625D01*
X78769919Y-61666687D02*
X83353019Y-66249787D01*
X74776924Y-65659682D02*
X74776924Y-77367443D01*
X78769919Y-61666687D02*
X74776924Y-65659682D01*
X85865901Y-123142441D02*
X83439337Y-123142441D01*
X115086566Y-71449176D02*
X129326778Y-71449176D01*
X71842270Y-94010694D02*
X72883246Y-95051670D01*
X96225197Y-66249787D02*
X97419669Y-67444259D01*
X83353019Y-66249787D02*
X96225197Y-66249787D01*
X74776924Y-77367443D02*
X75817900Y-78408419D01*
X129326778Y-71449176D02*
X142062065Y-84184463D01*
X89754601Y-114716980D02*
X89754601Y-119253740D01*
X72883246Y-97845625D02*
X89754601Y-114716980D01*
X111081649Y-67444259D02*
X115086566Y-71449176D01*
X71842270Y-82384049D02*
X71842270Y-94010694D01*
X97419669Y-67444259D02*
X111081649Y-67444259D01*
%TO.N,COL_3*%
X127187778Y-71850176D02*
X142062065Y-86724463D01*
X89030500Y-100189266D02*
X90071476Y-101230242D01*
X95958149Y-67845259D02*
X110915549Y-67845259D01*
X91982519Y-71820889D02*
X91982519Y-83447534D01*
X114920466Y-71850176D02*
X127187778Y-71850176D01*
X93023495Y-84488510D02*
X89030500Y-88481505D01*
X91982519Y-83447534D02*
X93023495Y-84488510D01*
X89030500Y-88481505D02*
X89030500Y-100189266D01*
X95958149Y-67845259D02*
X91982519Y-71820889D01*
X110915549Y-67845259D02*
X114920466Y-71850176D01*
X103262058Y-130461357D02*
X103262058Y-114420824D01*
X103262058Y-114420824D02*
X90071476Y-101230242D01*
%TO.N,COL_4*%
X113458946Y-72251176D02*
X125048778Y-72251176D01*
X107572273Y-105636159D02*
X107572273Y-111652616D01*
X129646271Y-133726614D02*
X129646271Y-135198776D01*
X113458946Y-72251176D02*
X109483316Y-76226806D01*
X109483316Y-87853451D02*
X110524292Y-88894427D01*
X109483316Y-76226806D02*
X109483316Y-87853451D01*
X110524292Y-88894427D02*
X106531297Y-92887422D01*
X106531297Y-92887422D02*
X106531297Y-104595183D01*
X107572273Y-111652616D02*
X129646271Y-133726614D01*
X106531297Y-104595183D02*
X107572273Y-105636159D01*
X125048778Y-72251176D02*
X142062065Y-89264463D01*
%TO.N,COL_5*%
X187858904Y-101583968D02*
X191826922Y-105551986D01*
X185922884Y-72068522D02*
X184906885Y-73084521D01*
X169946446Y-135042186D02*
X169777109Y-135211523D01*
X185922884Y-72068522D02*
X166186943Y-91804463D01*
X191826922Y-105551986D02*
X191126192Y-105551986D01*
X184906885Y-73084521D02*
X184906885Y-84842236D01*
X187858904Y-89826253D02*
X187858904Y-101583968D01*
X166186943Y-91804463D02*
X157302065Y-91804463D01*
X188874903Y-88810254D02*
X187858904Y-89826253D01*
X191126192Y-105551986D02*
X169946446Y-126731732D01*
X184906885Y-84842236D02*
X188874903Y-88810254D01*
X169946446Y-126731732D02*
X169946446Y-135042186D01*
%TO.N,COL_6*%
X202407682Y-80436318D02*
X206375700Y-84404336D01*
X205359701Y-85420335D02*
X205359701Y-97178050D01*
X205359701Y-97178050D02*
X209327719Y-101146068D01*
X206375700Y-84404336D02*
X205359701Y-85420335D01*
X205301274Y-105172513D02*
X205301274Y-121334152D01*
X203423681Y-67662605D02*
X202407682Y-68678604D01*
X205301274Y-121334152D02*
X196161323Y-130474103D01*
X209327719Y-101146068D02*
X205301274Y-105172513D01*
X202407682Y-68678604D02*
X202407682Y-80436318D01*
%TO.N,COL_7*%
X198239810Y-69551666D02*
X174474862Y-69551666D01*
X219592230Y-74254065D02*
X223563930Y-78225765D01*
X222547931Y-90999479D02*
X226515949Y-94967497D01*
X223563930Y-78225765D02*
X222547931Y-79241764D01*
X214573184Y-122138088D02*
X213557185Y-123154087D01*
X205291444Y-62500032D02*
X198239810Y-69551666D01*
X226515949Y-94967497D02*
X213479454Y-108003992D01*
X213479454Y-116367266D02*
X214573184Y-117460996D01*
X220611911Y-61484033D02*
X219592230Y-62503714D01*
X220611911Y-61484033D02*
X219595912Y-62500032D01*
X219595912Y-62500032D02*
X205291444Y-62500032D01*
X219592230Y-62503714D02*
X219592230Y-74254065D01*
X174474862Y-69551666D02*
X157302065Y-86724463D01*
X222547931Y-79241764D02*
X222547931Y-90999479D01*
X213479454Y-108003992D02*
X213479454Y-116367266D01*
X214573184Y-117460996D02*
X214573184Y-122138088D01*
%TO.N,COL_8*%
X242905814Y-76377774D02*
X241582683Y-77700905D01*
X172335862Y-69150666D02*
X157302065Y-84184463D01*
X239816152Y-60673674D02*
X239816152Y-73288112D01*
X198021689Y-69150666D02*
X172335862Y-69150666D01*
X241118377Y-59371449D02*
X239816152Y-60673674D01*
X241582683Y-90095532D02*
X244672345Y-93185194D01*
X241582683Y-77700905D02*
X241582683Y-90095532D01*
X205073323Y-62099032D02*
X198021689Y-69150666D01*
X239816152Y-73288112D02*
X242905814Y-76377774D01*
X155939365Y-85547163D02*
X157302065Y-84184463D01*
X241118377Y-59371449D02*
X218098459Y-59371449D01*
X215370876Y-62099032D02*
X205073323Y-62099032D01*
X218098459Y-59371449D02*
X215370876Y-62099032D01*
X155939365Y-98410635D02*
X155939365Y-85547163D01*
X152300000Y-102050000D02*
X155939365Y-98410635D01*
%TO.N,COL_9*%
X262369067Y-81002436D02*
X260687461Y-82684042D01*
X260687461Y-82684042D02*
X260687461Y-95620734D01*
X206818516Y-59786739D02*
X197530898Y-59786739D01*
X233518218Y-58351116D02*
X208254139Y-58351116D01*
X260687461Y-95620734D02*
X262958868Y-97892141D01*
X208254139Y-58351116D02*
X206818516Y-59786739D01*
X247522302Y-63912854D02*
X240098044Y-56488596D01*
X260097660Y-78731029D02*
X262369067Y-81002436D01*
X240098044Y-56488596D02*
X235380738Y-56488596D01*
X188567971Y-68749666D02*
X170196862Y-68749666D01*
X170196862Y-68749666D02*
X157302065Y-81644463D01*
X235380738Y-56488596D02*
X233518218Y-58351116D01*
X197530898Y-59786739D02*
X188567971Y-68749666D01*
X261772284Y-63912854D02*
X247522302Y-63912854D01*
X261772284Y-63912854D02*
X260097660Y-65587478D01*
X260097660Y-65587478D02*
X260097660Y-78731029D01*
%TD*%
M02*
